SplineFontDB: 3.0
FontName: KacstLetter
FullName: KacstLetter
FamilyName: KacstLetter
Weight: Medium
Copyright: KACST holds the copyright of the included Arabic font which is donated under GPL by KACST. \nURW Design and Development holds the copyright of the included Latin font which is donated under GPL by URW. 
Version: 1
ItalicAngle: 0
UnderlinePosition: -800
UnderlineWidth: 100
Ascent: 1638
Descent: 410
LayerCount: 2
Layer: 0 1 "Back" 
Layer: 1 1 "Fore" 
NeedsXUIDChange: 1
XUID: [1021 944 277740825 10130334]
FSType: 0
OS2Version: 2
OS2_WeightWidthSlopeOnly: 0
OS2_UseTypoMetrics: 1
CreationTime: 1163511077
ModificationTime: 1215812583
PfmFamily: 17
TTFWeight: 500
TTFWidth: 5
LineGap: 59
VLineGap: 0
Panose: 2 0 0 0 0 0 0 0 0 0
OS2TypoAscent: -38
OS2TypoAOffset: 1
OS2TypoDescent: -190
OS2TypoDOffset: 1
OS2TypoLinegap: 59
OS2WinAscent: -1
OS2WinAOffset: 1
OS2WinDescent: -25
OS2WinDOffset: 1
HheadAscent: -564
HheadAOffset: 1
HheadDescent: 425
HheadDOffset: 1
OS2SubXSize: 1434
OS2SubYSize: 1331
OS2SubXOff: 0
OS2SubYOff: 293
OS2SupXSize: 1434
OS2SupYSize: 1331
OS2SupXOff: 0
OS2SupYOff: 928
OS2StrikeYSize: 102
OS2StrikeYPos: 530
OS2Vendor: 'GLYF'
OS2CodePages: 00000040.00000000
OS2UnicodeRanges: 00002000.00000000.00000000.00000000
Lookup: 1 0 0 "'aalt' Access All Alternates in Latin lookup 0"  {"'aalt' Access All Alternates in Latin lookup 0 subtable"  } ['aalt' ('latn' <'dflt' > ) ]
Lookup: 3 0 0 "'aalt' Access All Alternates in Latin lookup 1"  {"'aalt' Access All Alternates in Latin lookup 1 subtable"  } ['aalt' ('latn' <'dflt' > ) ]
Lookup: 1 1 0 "'isol' Isolated Forms in Arabic lookup 2"  {"'isol' Isolated Forms in Arabic lookup 2 subtable"  } ['isol' ('arab' <'dflt' > ) ]
Lookup: 1 1 0 "'init' Initial Forms in Arabic lookup 3"  {"'init' Initial Forms in Arabic lookup 3 subtable"  } ['init' ('arab' <'dflt' > ) ]
Lookup: 1 1 0 "'medi' Medial Forms in Arabic lookup 4"  {"'medi' Medial Forms in Arabic lookup 4 subtable"  } ['medi' ('arab' <'dflt' > ) ]

StartChar: arabiccomma
Encoding: 1548 1548 1
Width: 403
Flags: W
LayerCount: 2
Fore
SplineSet
277 379 m 1,0,1
 239 351 239 351 207 314 c 128,-1,2
 175 277 175 277 158.5 241 c 128,-1,3
 142 205 142 205 144 174.5 c 128,-1,4
 146 144 146 144 175 130 c 1,5,-1
 177 131 l 1,6,7
 185 138 185 138 192.5 142.5 c 128,-1,8
 200 147 200 147 207 151 c 1,9,-1
 209 153 l 1,10,11
 213 155 213 155 214 156 c 1,12,13
 219 158 219 158 222.5 159.5 c 128,-1,14
 226 161 226 161 229 163 c 1,15,-1
 234 164 l 1,16,-1
 235 164 l 1,17,18
 237 165 237 165 247 165 c 0,19,20
 254 165 254 165 260 164 c 128,-1,21
 266 163 266 163 271 161 c 0,22,23
 274 160 274 160 278 158 c 1,24,25
 279 157 279 157 280 157 c 1,26,27
 283 155 283 155 285.5 153 c 128,-1,28
 288 151 288 151 291 149 c 0,29,30
 295 145 295 145 296 143 c 2,31,32
 297 142 297 142 297.5 141 c 128,-1,33
 298 140 298 140 299 139 c 256,34,35
 300 138 300 138 302 134 c 0,36,37
 305 130 305 130 309 120 c 1,38,-1
 317 82 l 1,39,-1
 317 79 l 2,40,41
 317 74 317 74 316.5 70.5 c 128,-1,42
 316 67 316 67 315 63 c 2,43,44
 315 59 315 59 313 51 c 1,45,46
 312 49 312 49 312 48 c 1,47,-1
 311 46 l 1,48,49
 311 44 311 44 310 43 c 1,50,51
 310 41 310 41 308 37 c 0,52,53
 307 35 307 35 306.5 33.5 c 128,-1,54
 306 32 306 32 305 30 c 0,55,56
 303 26 303 26 299 20 c 0,57,58
 296 14 296 14 291 9 c 0,59,60
 285 3 l 128,-1,61
 282 0 282 0 279 -2 c 0,62,63
 277 -3 277 -3 276.5 -3.5 c 128,-1,64
 276 -4 276 -4 274 -5 c 1,65,66
 272 -7 272 -7 269.5 -8.5 c 128,-1,67
 267 -10 267 -10 264 -11 c 1,68,69
 263 -12 263 -12 263 -22 c 256,70,71
 263 -32 263 -32 262 -32 c 1,72,-1
 262 -12 l 1,73,74
 260 -14 260 -14 257 -14.5 c 128,-1,75
 254 -15 254 -15 252 -16 c 1,76,77
 251 -17 251 -17 249 -17 c 1,78,-1
 244 -19 l 1,79,-1
 241 -19 l 1,80,81
 239 -20 239 -20 236 -20 c 0,82,83
 231 -21 231 -21 221 -21 c 2,84,-1
 208 -21 l 1,85,-1
 199 -19 l 2,86,87
 188 -17 188 -17 179 -13 c 2,88,-1
 173 -10 l 1,89,90
 172 -9 172 -9 168 -7 c 2,91,92
 167 -6 167 -6 163 -4 c 2,93,94
 162 -3 162 -3 161 -2.5 c 128,-1,95
 160 -2 160 -2 158 0 c 0,96,97
 140 15 140 15 128 39 c 2,98,-1
 124 50 l 1,99,-1
 124 49 l 1,100,-1
 122 52 l 1,101,102
 120 60 120 60 119 63 c 2,103,-1
 112 88 l 1,104,-1
 111 98 l 1,105,106
 110 100 110 100 110 106 c 0,107,108
 110 107 110 107 109.5 107.5 c 128,-1,109
 109 108 109 108 109 110 c 2,110,-1
 109 143 l 2,111,112
 109 148 109 148 110 151 c 1,113,-1
 110 156 l 1,114,115
 116 193 116 193 132 230 c 128,-1,116
 148 267 148 267 170 300 c 128,-1,117
 192 333 192 333 219.5 360 c 128,-1,118
 247 387 247 387 276 405 c 1,119,-1
 277 379 l 1,0,1
EndSplineSet
EndChar

StartChar: arabicsemicolon
Encoding: 1563 1563 2
Width: 852
Flags: W
LayerCount: 2
Fore
SplineSet
580 371 m 0,0,1
 580 350 580 350 572.5 330.5 c 128,-1,2
 565 311 565 311 550.5 296.5 c 128,-1,3
 536 282 536 282 515 273 c 128,-1,4
 494 264 494 264 467 264 c 0,5,6
 405 264 405 264 349 335 c 256,7,8
 293 406 293 406 293 500 c 0,9,10
 293 597 293 597 346 668 c 0,11,12
 384 721 384 721 438 749 c 1,13,-1
 469 758 l 1,14,15
 429 732 429 732 398 674 c 0,16,17
 373 618 373 618 373 561 c 0,18,19
 373 506 373 506 406 451 c 1,20,-1
 438 471 l 1,21,22
 448 475 448 475 457.5 477.5 c 128,-1,23
 467 480 467 480 475 481 c 0,24,25
 497 481 497 481 516.5 472 c 128,-1,26
 536 463 536 463 550 448 c 128,-1,27
 564 433 564 433 572 413 c 128,-1,28
 580 393 580 393 580 371 c 0,0,1
539 74 m 0,29,30
 539 56 539 56 532 40.5 c 128,-1,31
 525 25 525 25 513.5 13.5 c 128,-1,32
 502 2 502 2 486.5 -5 c 128,-1,33
 471 -12 471 -12 453 -12 c 0,34,35
 421 -12 421 -12 396 15 c 0,36,37
 371 40 371 40 371 74 c 0,38,39
 371 106 371 106 396 131 c 0,40,41
 421 158 421 158 453 158 c 0,42,43
 486 158 486 158 512 132 c 0,44,45
 539 108 539 108 539 74 c 0,29,30
EndSplineSet
EndChar

StartChar: arabicquestionmark
Encoding: 1567 1567 3
Width: 757
Flags: W
LayerCount: 2
Fore
SplineSet
404 263 m 1,0,1
 398 364 398 364 371 421 c 0,2,3
 343 479 343 479 223 616 c 0,4,5
 145 705 145 705 119 767 c 0,6,7
 92 831 92 831 92 892 c 0,8,9
 92 982 92 982 152 1056 c 0,10,11
 233 1156 233 1156 406 1156 c 0,12,13
 546 1156 546 1156 626 1083 c 0,14,15
 707 1009 707 1009 707 916 c 0,16,17
 707 885 707 885 699 860.5 c 128,-1,18
 691 836 691 836 678 819.5 c 128,-1,19
 665 803 665 803 648.5 794 c 128,-1,20
 632 785 632 785 614 785 c 0,21,22
 587 785 587 785 567.5 805.5 c 128,-1,23
 548 826 548 826 548 856 c 0,24,25
 548 880 548 880 573 924 c 256,26,27
 598 968 598 968 598 1000 c 0,28,29
 598 1040 598 1040 556 1075 c 0,30,31
 516 1109 516 1109 442 1109 c 0,32,33
 360 1109 360 1109 303 1046 c 0,34,35
 247 984 247 984 247 877 c 0,36,37
 247 826 247 826 262 775 c 0,38,39
 270 749 270 749 286 713.5 c 128,-1,40
 302 678 302 678 327 630 c 0,41,42
 359 568 359 568 380.5 520.5 c 128,-1,43
 402 473 402 473 412 438 c 0,44,45
 434 367 434 367 438 263 c 1,46,-1
 404 263 l 1,0,1
416 160 m 0,47,48
 435 160 435 160 452 152.5 c 128,-1,49
 469 145 469 145 481.5 132.5 c 128,-1,50
 494 120 494 120 501.5 102.5 c 128,-1,51
 509 85 509 85 509 66 c 0,52,53
 509 46 509 46 501.5 29.5 c 128,-1,54
 494 13 494 13 481.5 0 c 128,-1,55
 469 -13 469 -13 452 -20 c 128,-1,56
 435 -27 435 -27 416 -27 c 0,57,58
 377 -27 377 -27 349.5 0 c 128,-1,59
 322 27 322 27 322 66 c 256,60,61
 322 105 322 105 349 132.5 c 128,-1,62
 376 160 376 160 416 160 c 0,47,48
EndSplineSet
EndChar

StartChar: hamza
Encoding: 1569 1569 4
Width: 767
Flags: W
AnchorPoint: "ArabicBelow" 383 -385 basechar 0
AnchorPoint: "ArabicAbove" 383 746 basechar 0
LayerCount: 2
Fore
SplineSet
574 40 m 1,0,1
 541 40 541 40 510.5 36.5 c 128,-1,2
 480 33 480 33 454 25 c 2,3,-1
 337 -4 l 2,4,5
 327 -6 327 -6 282.5 -32 c 128,-1,6
 238 -58 238 -58 157 -109 c 2,7,-1
 117 -127 l 1,8,-1
 104 -135 l 1,9,10
 104 -126 104 -126 148 -70 c 0,11,12
 169 -47 169 -47 197 -24.5 c 128,-1,13
 225 -2 225 -2 262 17 c 2,14,-1
 286 29 l 1,15,-1
 281 53 l 1,16,17
 170 67 170 67 158 72 c 1,18,-1
 157 73 l 1,19,20
 83 93 83 93 83 136 c 0,21,22
 83 249 83 249 173 362 c 0,23,24
 280 496 280 496 443 496 c 0,25,26
 478 496 478 496 513 469 c 0,27,28
 549 434 549 434 549 402 c 1,29,-1
 473 295 l 1,30,-1
 441 319 l 2,31,32
 412 338 412 338 380.5 348.5 c 128,-1,33
 349 359 349 359 333 359 c 0,34,35
 309 359 309 359 294 354.5 c 128,-1,36
 279 350 279 350 252 335 c 0,37,38
 196 309 196 309 196 267 c 0,39,40
 196 220 196 220 336 194 c 2,41,-1
 487 178 l 1,42,-1
 582 173 l 1,43,-1
 662 173 l 1,44,-1
 574 40 l 1,0,1
EndSplineSet
Substitution2: "'isol' Isolated Forms in Arabic lookup 2 subtable" hamzaisolated
Substitution2: "'aalt' Access All Alternates in Latin lookup 0 subtable" hamzaisolated
EndChar

StartChar: alefwithmaddaabove
Encoding: 1570 1570 5
Width: 330
Flags: W
AnchorPoint: "ArabicBelow" 165 -283 basechar 0
AnchorPoint: "ArabicAbove" 165 1281 basechar 0
LayerCount: 2
Fore
SplineSet
400 1028 m 1,0,-1
 409 1031 l 1,1,-1
 373 989 l 1,2,3
 290 929 290 929 241 929 c 0,4,5
 190 929 190 929 154 939 c 2,6,-1
 129 949 l 1,7,-1
 92 971 l 1,8,-1
 75 966 l 1,9,10
 70 956 70 956 64 945 c 128,-1,11
 58 934 58 934 48 920 c 1,12,-1
 48 919 l 1,13,14
 33 899 33 899 30 896 c 1,15,-1
 74 989 l 1,16,-1
 95 1026 l 1,17,18
 103 1021 103 1021 117.5 1014.5 c 128,-1,19
 132 1008 132 1008 149 1000 c 2,20,-1
 201 982 l 2,21,22
 225 976 225 976 248 976 c 0,23,24
 296 976 296 976 400 1028 c 1,0,-1
253 297 m 2,25,26
 253 170 253 170 218 67 c 0,27,28
 207 34 207 34 195.5 9 c 128,-1,29
 184 -16 184 -16 171 -33 c 1,30,-1
 99 670 l 2,31,32
 99 681 99 681 118 715 c 128,-1,33
 137 749 137 749 172 810 c 2,34,-1
 213 882 l 1,35,36
 215 870 215 870 217 854.5 c 128,-1,37
 219 839 219 839 222 816 c 128,-1,38
 225 793 225 793 228.5 760.5 c 128,-1,39
 232 728 232 728 237 681 c 2,40,-1
 253 515 l 1,41,-1
 253 297 l 2,25,26
EndSplineSet
Substitution2: "'fina' Terminal Forms in Arabic lookup 5 subtable" alefwithmaddaabovefinal
Substitution2: "'isol' Isolated Forms in Arabic lookup 2 subtable" alefwithmaddaaboveisolated
AlternateSubs2: "'aalt' Access All Alternates in Latin lookup 1 subtable" alefwithmaddaaboveisolated alefwithmaddaabovefinal
EndChar

StartChar: alefwithhamzaabove
Encoding: 1571 1571 6
Width: 329
Flags: W
AnchorPoint: "ArabicBelow" 164 -283 basechar 0
AnchorPoint: "ArabicAbove" 164 1364 basechar 0
LayerCount: 2
Fore
SplineSet
266 929 m 1,0,-1
 216 924 l 2,1,2
 178 920 178 920 116 881 c 2,3,-1
 63 846 l 1,4,5
 62 848 62 848 62 852 c 0,6,7
 62 871 62 871 94 897 c 2,8,-1
 133 929 l 1,9,-1
 100 932 l 1,10,-1
 84 935 l 1,11,-1
 66 941 l 2,12,13
 37 949 37 949 37 964 c 0,14,15
 37 1005 37 1005 78 1056 c 0,16,17
 124 1114 124 1114 185 1114 c 0,18,19
 201 1114 201 1114 211 1104.5 c 128,-1,20
 221 1095 221 1095 225 1080 c 1,21,-1
 220 1066 l 2,22,23
 217 1057 217 1057 214 1054 c 1,24,25
 209 1043 209 1043 202 1035 c 1,26,27
 187 1065 187 1065 150 1065 c 0,28,29
 123 1065 123 1065 104 1055.5 c 128,-1,30
 85 1046 85 1046 76 1026 c 1,31,-1
 75 1018 l 2,32,33
 75 1002 75 1002 106 995 c 2,34,-1
 151 985 l 1,35,-1
 295 985 l 1,36,-1
 266 929 l 1,0,-1
257 297 m 0,37,38
 257 231 257 231 248.5 174.5 c 128,-1,39
 240 118 240 118 223 67 c 0,40,41
 202 5 202 5 173 -33 c 1,42,-1
 85 685 l 2,43,44
 85 691 85 691 97.5 716.5 c 128,-1,45
 110 742 110 742 138 787 c 2,46,-1
 206 896 l 1,47,-1
 226 734 l 2,48,49
 234 658 234 658 239.5 597 c 128,-1,50
 245 536 245 536 249 488 c 0,51,52
 253 441 253 441 255 393.5 c 128,-1,53
 257 346 257 346 257 297 c 0,37,38
EndSplineSet
Substitution2: "'fina' Terminal Forms in Arabic lookup 5 subtable" alefwithhamzaabovefinal
Substitution2: "'isol' Isolated Forms in Arabic lookup 2 subtable" alefwithhamzaaboveisolated
AlternateSubs2: "'aalt' Access All Alternates in Latin lookup 1 subtable" alefwithhamzaaboveisolated alefwithhamzaabovefinal
EndChar

StartChar: wawwithhamzaabove
Encoding: 1572 1572 7
Width: 842
Flags: W
AnchorPoint: "ArabicBelow" 421 -678 basechar 0
AnchorPoint: "ArabicAbove" 421 1163 basechar 0
LayerCount: 2
Fore
SplineSet
673 256 m 1,0,1
 673 309 673 309 635 347 c 0,2,3
 595 385 595 385 553 385 c 0,4,5
 514 385 514 385 471 357 c 0,6,7
 451 343 451 343 439 325.5 c 128,-1,8
 427 308 427 308 423 298 c 0,9,10
 421 290 421 290 421 285 c 2,11,-1
 422 275 l 1,12,13
 425 264 425 264 457 238 c 1,14,15
 480 225 480 225 497.5 218.5 c 128,-1,16
 515 212 515 212 527.5 210 c 128,-1,17
 540 208 540 208 548 207.5 c 128,-1,18
 556 207 556 207 559 206 c 1,19,-1
 562 206 l 2,20,21
 569 206 569 206 581 206.5 c 128,-1,22
 593 207 593 207 609 212 c 0,23,24
 625 219 625 219 636.5 222.5 c 128,-1,25
 648 226 648 226 655.5 230 c 128,-1,26
 663 234 663 234 667 239.5 c 128,-1,27
 671 245 671 245 673 256 c 1,0,1
818 217 m 0,28,29
 818 114 818 114 795 9 c 128,-1,30
 772 -96 772 -96 724 -197 c 0,31,32
 616 -428 616 -428 468 -428 c 0,33,34
 438 -428 438 -428 407 -425 c 128,-1,35
 376 -422 376 -422 344 -417 c 0,36,37
 314 -412 314 -412 276.5 -402.5 c 128,-1,38
 239 -393 239 -393 191 -379 c 0,39,40
 11 -336 11 -336 11 -309 c 1,41,-1
 27 -309 l 1,42,-1
 54 -312 l 1,43,-1
 206 -342 l 1,44,-1
 256 -346 l 2,45,46
 284 -346 284 -346 309 -341 c 128,-1,47
 334 -336 334 -336 357 -325 c 0,48,49
 429 -295 429 -295 497.5 -244.5 c 128,-1,50
 566 -194 566 -194 626 -128 c 256,51,52
 686 -62 686 -62 720 1.5 c 128,-1,53
 754 65 754 65 754 119 c 0,54,55
 754 143 754 143 747 177 c 1,56,57
 745 182 745 182 741.5 192 c 128,-1,58
 738 202 738 202 733 216 c 1,59,-1
 711 216 l 1,60,-1
 702 188 l 2,61,62
 682 146 682 146 668 120.5 c 128,-1,63
 654 95 654 95 646 81 c 0,64,65
 607 27 607 27 502 27 c 0,66,67
 437 27 437 27 396 83 c 0,68,69
 391 91 391 91 386.5 102.5 c 128,-1,70
 382 114 382 114 380 122 c 0,71,72
 378 131 378 131 374.5 163 c 128,-1,73
 371 195 371 195 371 237 c 0,74,75
 371 299 371 299 468 440 c 0,76,77
 516 509 516 509 556 544 c 128,-1,78
 596 579 596 579 631 579 c 0,79,80
 680 579 680 579 748 459 c 0,81,82
 781 399 781 399 799.5 339.5 c 128,-1,83
 818 280 818 280 818 217 c 0,28,29
604 711 m 1,84,-1
 550 705 l 2,85,86
 507 701 507 701 440 658 c 2,87,-1
 382 620 l 1,88,89
 381 622 381 622 381 626 c 0,90,91
 381 644 381 644 416 676 c 2,92,-1
 459 711 l 1,93,-1
 423 714 l 1,94,-1
 405 717 l 1,95,-1
 386 724 l 2,96,97
 354 732 354 732 354 749 c 0,98,99
 354 791 354 791 398 850 c 0,100,101
 450 913 450 913 516 913 c 0,102,103
 533 913 533 913 544 902.5 c 128,-1,104
 555 892 555 892 559 876 c 1,105,-1
 554 861 l 2,106,107
 551 851 551 851 547 847 c 1,108,109
 541 834 541 834 534 827 c 1,110,111
 517 859 517 859 477 859 c 0,112,113
 416 859 416 859 397 817 c 1,114,-1
 395 808 l 1,115,116
 395 790 395 790 429 783 c 2,117,-1
 479 772 l 1,118,-1
 636 772 l 1,119,-1
 604 711 l 1,84,-1
EndSplineSet
Substitution2: "'fina' Terminal Forms in Arabic lookup 5 subtable" wawwithhamzaabovefinal
Substitution2: "'isol' Isolated Forms in Arabic lookup 2 subtable" wawwithhamzaaboveisolated
AlternateSubs2: "'aalt' Access All Alternates in Latin lookup 1 subtable" wawwithhamzaaboveisolated wawwithhamzaabovefinal
EndChar

StartChar: alefwithhamzabelow
Encoding: 1573 1573 8
Width: 434
Flags: W
AnchorPoint: "ArabicBelow" 217 -633 basechar 0
AnchorPoint: "ArabicAbove" 217 1224 basechar 0
LayerCount: 2
Fore
SplineSet
302 313 m 1,0,1
 302 190 302 190 266 84 c 0,2,3
 244 18 244 18 219 -15 c 1,4,-1
 130 762 l 1,5,-1
 246 974 l 1,6,-1
 302 484 l 1,7,-1
 302 313 l 1,8,-1
 302 313 l 1,0,1
297 -292 m 1,9,-1
 243 -298 l 2,10,11
 200 -302 200 -302 133 -345 c 2,12,-1
 75 -383 l 1,13,14
 74 -381 74 -381 74 -377 c 0,15,16
 74 -359 74 -359 109 -327 c 2,17,-1
 152 -292 l 1,18,-1
 116 -289 l 1,19,-1
 98 -286 l 1,20,-1
 79 -279 l 2,21,22
 47 -271 47 -271 47 -254 c 0,23,24
 47 -212 47 -212 91 -153 c 0,25,26
 143 -90 143 -90 209 -90 c 0,27,28
 226 -90 226 -90 237 -100.5 c 128,-1,29
 248 -111 248 -111 252 -127 c 1,30,-1
 247 -142 l 2,31,32
 244 -152 244 -152 240 -156 c 1,33,34
 234 -169 234 -169 227 -176 c 1,35,36
 210 -144 210 -144 170 -144 c 0,37,38
 109 -144 109 -144 90 -186 c 1,39,-1
 88 -195 l 1,40,41
 88 -213 88 -213 122 -220 c 2,42,-1
 172 -231 l 1,43,-1
 329 -231 l 1,44,-1
 297 -292 l 1,9,-1
EndSplineSet
Substitution2: "'fina' Terminal Forms in Arabic lookup 5 subtable" alefwithhamzabelowfinal
Substitution2: "'isol' Isolated Forms in Arabic lookup 2 subtable" alefwithhamzabelowisolated
AlternateSubs2: "'aalt' Access All Alternates in Latin lookup 1 subtable" alefwithhamzabelowisolated alefwithhamzabelowfinal
EndChar

StartChar: yehwithhamzaabove
Encoding: 1574 1574 9
Width: 1066
Flags: W
AnchorPoint: "ArabicBelow" 533 -590 basechar 0
AnchorPoint: "ArabicAbove" 533 1139 basechar 0
LayerCount: 2
Fore
SplineSet
1014 503 m 1,0,1
 1012 489 1012 489 1007 471 c 128,-1,2
 1002 453 1002 453 993 429 c 2,3,-1
 987 407 l 1,4,-1
 981 429 l 2,5,6
 964 498 964 498 884 498 c 0,7,8
 795 498 795 498 686 415 c 0,9,10
 579 332 579 332 579 273 c 256,11,12
 579 214 579 214 768 190 c 0,13,14
 937 169 937 169 937 99 c 1,15,16
 931 64 931 64 921.5 33 c 128,-1,17
 912 2 912 2 900 -27 c 2,18,-1
 863 -118 l 1,19,20
 814 -163 814 -163 766.5 -198 c 128,-1,21
 719 -233 719 -233 659 -262 c 0,22,23
 582 -299 582 -299 507 -319 c 0,24,25
 488 -324 488 -324 469.5 -328.5 c 128,-1,26
 451 -333 451 -333 434 -335 c 256,27,28
 417 -337 417 -337 386.5 -338.5 c 128,-1,29
 356 -340 356 -340 311 -340 c 0,30,31
 225 -340 225 -340 152 -311 c 0,32,33
 81 -284 81 -284 44 -227 c 0,34,35
 8 -172 8 -172 8 -87 c 0,36,37
 8 58 8 58 59 225 c 0,38,39
 101 360 101 360 118 360 c 0,40,41
 120 360 120 360 120 358 c 0,42,43
 120 355 120 355 118 345 c 128,-1,44
 116 335 116 335 111 314.5 c 128,-1,45
 106 294 106 294 98.5 261 c 128,-1,46
 91 228 91 228 81 179 c 2,47,-1
 66 108 l 1,48,-1
 61 56 l 2,49,50
 61 -42 61 -42 180 -101 c 0,51,52
 285 -153 285 -153 401 -153 c 2,53,-1
 516 -141 l 1,54,-1
 653 -112 l 2,55,56
 713 -98 713 -98 757 -80.5 c 128,-1,57
 801 -63 801 -63 833 -43 c 1,58,-1
 838 -33 l 1,59,60
 838 2 838 2 658 22 c 0,61,62
 500 40 500 40 500 124 c 0,63,64
 500 257 500 257 628 451 c 0,65,66
 773 670 773 670 937 670 c 0,67,68
 989 670 989 670 1013 655 c 0,69,70
 1035 642 1035 642 1035 604 c 1,71,-1
 1014 503 l 1,72,-1
 1014 503 l 1,0,1
366 687 m 1,73,-1
 312 681 l 2,74,75
 269 677 269 677 202 634 c 2,76,-1
 144 596 l 1,77,78
 143 598 143 598 143 602 c 0,79,80
 143 620 143 620 178 652 c 2,81,-1
 221 687 l 1,82,-1
 185 690 l 1,83,-1
 167 693 l 1,84,-1
 148 700 l 2,85,86
 116 708 116 708 116 725 c 0,87,88
 116 767 116 767 160 826 c 0,89,90
 212 889 212 889 278 889 c 0,91,92
 295 889 295 889 306 878.5 c 128,-1,93
 317 868 317 868 321 852 c 1,94,-1
 316 837 l 2,95,96
 313 827 313 827 309 823 c 1,97,98
 303 810 303 810 296 803 c 1,99,100
 279 835 279 835 239 835 c 0,101,102
 178 835 178 835 159 793 c 1,103,-1
 157 784 l 1,104,105
 157 766 157 766 191 759 c 2,106,-1
 241 748 l 1,107,-1
 398 748 l 1,108,-1
 366 687 l 1,73,-1
EndSplineSet
Substitution2: "'fina' Terminal Forms in Arabic lookup 5 subtable" yehwithhamzaabovefinal
Substitution2: "'medi' Medial Forms in Arabic lookup 4 subtable" yehwithhamzaabovemedial
Substitution2: "'init' Initial Forms in Arabic lookup 3 subtable" yehwithhamzaaboveinitial
Substitution2: "'isol' Isolated Forms in Arabic lookup 2 subtable" yehwithhamzaaboveisolated
AlternateSubs2: "'aalt' Access All Alternates in Latin lookup 1 subtable" yehwithhamzaaboveisolated yehwithhamzaaboveinitial yehwithhamzaabovemedial yehwithhamzaabovefinal
EndChar

StartChar: arabicalef
Encoding: 1575 1575 10
Width: 442
Flags: W
AnchorPoint: "ArabicBelow" 221 -283 basechar 0
AnchorPoint: "ArabicAbove" 221 1146 basechar 0
LayerCount: 2
Fore
SplineSet
352 297 m 0,0,1
 352 231 352 231 343.5 174.5 c 128,-1,2
 335 118 335 118 318 67 c 0,3,4
 297 5 297 5 268 -33 c 1,5,-1
 180 685 l 2,6,7
 180 691 180 691 192.5 716.5 c 128,-1,8
 205 742 205 742 233 787 c 2,9,-1
 301 896 l 1,10,-1
 321 734 l 2,11,12
 329 658 329 658 334.5 597 c 128,-1,13
 340 536 340 536 344 488 c 256,14,15
 348 440 348 440 350 393 c 128,-1,16
 352 346 352 346 352 297 c 0,0,1
EndSplineSet
Substitution2: "'fina' Terminal Forms in Arabic lookup 5 subtable" aleffinal
Substitution2: "'isol' Isolated Forms in Arabic lookup 2 subtable" alefisolated
AlternateSubs2: "'aalt' Access All Alternates in Latin lookup 1 subtable" alefisolated aleffinal
EndChar

StartChar: beh
Encoding: 1576 1576 11
Width: 1159
Flags: W
AnchorPoint: "ArabicBelow" 579 -699 basechar 0
AnchorPoint: "ArabicAbove" 579 829 basechar 0
LayerCount: 2
Fore
SplineSet
1102 326 m 1,0,1
 1101 307 1101 307 1099 289 c 128,-1,2
 1097 271 1097 271 1094 252 c 0,3,4
 1088 217 1088 217 1055 129 c 0,5,6
 1011 11 1011 11 1000 0 c 1,7,-1
 240 0 l 1,8,-1
 193 3 l 2,9,10
 185 3 185 3 178 6 c 2,11,-1
 155 13 l 2,12,13
 136 18 136 18 117 29.5 c 128,-1,14
 98 41 98 41 78 58 c 0,15,16
 7 114 7 114 7 196 c 0,17,18
 7 219 7 219 9.5 246 c 128,-1,19
 12 273 12 273 17 302 c 0,20,21
 28 363 28 363 56 465 c 0,22,23
 85 569 85 569 105 569 c 1,24,-1
 106 554 l 2,25,26
 106 526 106 526 99.5 490.5 c 128,-1,27
 93 455 93 455 90 426 c 0,28,29
 88 409 88 409 87 390 c 128,-1,30
 86 371 86 371 86 348 c 0,31,32
 86 302 86 302 114 274 c 0,33,34
 186 184 186 184 317 184 c 2,35,-1
 976 184 l 1,36,37
 993 187 993 187 997.5 194 c 128,-1,38
 1002 201 1002 201 1002 230 c 0,39,40
 1002 247 1002 247 998 270.5 c 128,-1,41
 994 294 994 294 983 318 c 0,42,43
 973 342 973 342 918 417 c 1,44,-1
 1011 579 l 1,45,46
 1036 540 1036 540 1051.5 515 c 128,-1,47
 1067 490 1067 490 1072 479 c 256,48,49
 1077 468 1077 468 1082 455.5 c 128,-1,50
 1087 443 1087 443 1092 427 c 0,51,52
 1102 397 1102 397 1102 367 c 2,53,-1
 1102 326 l 1,54,-1
 1102 326 l 1,0,1
722 -321 m 1,55,-1
 627 -449 l 1,56,-1
 495 -354 l 1,57,-1
 587 -226 l 1,58,-1
 722 -321 l 1,55,-1
EndSplineSet
Substitution2: "'fina' Terminal Forms in Arabic lookup 5 subtable" behfinal
Substitution2: "'medi' Medial Forms in Arabic lookup 4 subtable" behmedial
Substitution2: "'init' Initial Forms in Arabic lookup 3 subtable" behinitial
Substitution2: "'isol' Isolated Forms in Arabic lookup 2 subtable" behisolated
AlternateSubs2: "'aalt' Access All Alternates in Latin lookup 1 subtable" behisolated behinitial behmedial behfinal
EndChar

StartChar: tehmarbuta
Encoding: 1577 1577 12
Width: 582
Flags: W
AnchorPoint: "ArabicBelow" 291 -268 basechar 0
AnchorPoint: "ArabicAbove" 291 1221 basechar 0
LayerCount: 2
Fore
SplineSet
470 192 m 1,0,1
 470 240 470 240 375 344 c 0,2,3
 279 449 279 449 254 449 c 1,4,-1
 178 355 l 2,5,6
 132 286 132 286 126 256 c 1,7,8
 126 202 126 202 164 176 c 0,9,10
 189 159 189 159 247 159 c 0,11,12
 289 159 289 159 323.5 161.5 c 128,-1,13
 358 164 358 164 387 169 c 2,14,-1
 460 180 l 1,15,-1
 470 192 l 1,0,1
494 142 m 2,16,17
 475 87 475 87 440 60 c 1,18,-1
 440 59 l 1,19,20
 435 54 435 54 333 11 c 2,21,-1
 266 -10 l 1,22,-1
 218 -18 l 1,23,24
 164 -18 164 -18 132 -15.5 c 128,-1,25
 100 -13 100 -13 83 -8 c 1,26,-1
 83 -7 l 1,27,28
 5 12 5 12 5 78 c 0,29,30
 5 121 5 121 21.5 175.5 c 128,-1,31
 38 230 38 230 78 294 c 2,32,-1
 166 434 l 2,33,34
 203 497 203 497 237 544 c 128,-1,35
 271 591 271 591 303 626 c 1,36,-1
 490 471 l 1,37,-1
 512 440 l 1,38,-1
 533 401 l 2,39,40
 547 365 547 365 547 319 c 2,41,-1
 544 289 l 1,42,-1
 535 259 l 1,43,-1
 494 142 l 2,16,17
288 884 m 1,44,-1
 201 766 l 1,45,-1
 79 853 l 1,46,-1
 164 971 l 1,47,-1
 288 884 l 1,44,-1
468 884 m 1,48,-1
 381 766 l 1,49,-1
 259 853 l 1,50,-1
 344 971 l 1,51,-1
 468 884 l 1,48,-1
EndSplineSet
Substitution2: "'fina' Terminal Forms in Arabic lookup 5 subtable" tehmarbutafinal
Substitution2: "'isol' Isolated Forms in Arabic lookup 2 subtable" tehmarbutaisolated
AlternateSubs2: "'aalt' Access All Alternates in Latin lookup 1 subtable" tehmarbutaisolated tehmarbutafinal
EndChar

StartChar: teh
Encoding: 1578 1578 13
Width: 1132
Flags: W
AnchorPoint: "ArabicBelow" 566 -251 basechar 0
AnchorPoint: "ArabicAbove" 566 1160 basechar 0
LayerCount: 2
Fore
SplineSet
734 823 m 1,0,-1
 647 705 l 1,1,-1
 525 792 l 1,2,-1
 610 910 l 1,3,-1
 734 823 l 1,0,-1
554 823 m 1,4,-1
 467 705 l 1,5,-1
 345 792 l 1,6,-1
 430 910 l 1,7,-1
 554 823 l 1,4,-1
1054 130 m 0,8,9
 1012 12 1012 12 1000 0 c 1,10,11
 808 -1 808 -1 663 -1 c 256,12,13
 518 -1 518 -1 416 -1 c 0,14,15
 313 -1 313 -1 256 -1 c 0,16,17
 200 -1 200 -1 187 0 c 0,18,19
 135 3 135 3 96 30 c 0,20,21
 76 44 76 44 60.5 58 c 128,-1,22
 45 72 45 72 32 86 c 0,23,24
 7 114 7 114 7 196 c 0,25,26
 7 219 7 219 9.5 246 c 128,-1,27
 12 273 12 273 17 302 c 0,28,29
 28 363 28 363 56 465 c 0,30,31
 85 569 85 569 105 569 c 1,32,33
 106 567 106 567 106 559 c 0,34,35
 106 536 106 536 97 475 c 0,36,37
 92 433 92 433 89 407 c 128,-1,38
 86 381 86 381 86 368 c 0,39,40
 86 343 86 343 92 319 c 0,41,42
 95 307 95 307 98.5 297 c 128,-1,43
 102 287 102 287 106 279 c 0,44,45
 112 266 112 266 150 224 c 0,46,47
 186 184 186 184 317 184 c 2,48,-1
 976 184 l 1,49,50
 983 187 983 187 992.5 194 c 128,-1,51
 1002 201 1002 201 1002 215 c 256,52,53
 1002 229 1002 229 996 270 c 0,54,55
 992 308 992 308 943 380 c 2,56,-1
 918 417 l 1,57,-1
 1011 579 l 1,58,-1
 1061 501 l 2,59,60
 1083 458 1083 458 1092 427 c 0,61,62
 1101 400 1101 400 1101 355 c 2,63,-1
 1101 342 l 2,64,65
 1100 316 1100 316 1097.5 291.5 c 128,-1,66
 1095 267 1095 267 1090 244 c 0,67,68
 1081 199 1081 199 1054 130 c 0,8,9
EndSplineSet
Substitution2: "'fina' Terminal Forms in Arabic lookup 5 subtable" tehfinal
Substitution2: "'medi' Medial Forms in Arabic lookup 4 subtable" tehmedial
Substitution2: "'init' Initial Forms in Arabic lookup 3 subtable" tehinitial
Substitution2: "'isol' Isolated Forms in Arabic lookup 2 subtable" tehisolated
AlternateSubs2: "'aalt' Access All Alternates in Latin lookup 1 subtable" tehisolated tehinitial tehmedial tehfinal
EndChar

StartChar: theh
Encoding: 1579 1579 14
Width: 1132
Flags: W
AnchorPoint: "ArabicBelow" 566 -251 basechar 0
AnchorPoint: "ArabicAbove" 566 1168 basechar 0
LayerCount: 2
Fore
SplineSet
1054 130 m 0,0,1
 1012 12 1012 12 1000 0 c 1,2,3
 808 -1 808 -1 663 -1 c 256,4,5
 518 -1 518 -1 416 -1 c 0,6,7
 313 -1 313 -1 256 -1 c 0,8,9
 200 -1 200 -1 187 0 c 0,10,11
 135 3 135 3 96 30 c 0,12,13
 76 44 76 44 60.5 58 c 128,-1,14
 45 72 45 72 32 86 c 0,15,16
 7 114 7 114 7 196 c 0,17,18
 7 219 7 219 9.5 246 c 128,-1,19
 12 273 12 273 17 302 c 0,20,21
 28 363 28 363 56 465 c 0,22,23
 85 569 85 569 105 569 c 1,24,25
 106 567 106 567 106 559 c 0,26,27
 106 536 106 536 97 475 c 0,28,29
 92 433 92 433 89 407 c 128,-1,30
 86 381 86 381 86 368 c 0,31,32
 86 343 86 343 92 319 c 0,33,34
 95 307 95 307 98.5 297 c 128,-1,35
 102 287 102 287 106 279 c 0,36,37
 112 266 112 266 150 224 c 0,38,39
 186 184 186 184 317 184 c 2,40,-1
 976 184 l 1,41,42
 983 187 983 187 992.5 194 c 128,-1,43
 1002 201 1002 201 1002 215 c 256,44,45
 1002 229 1002 229 996 270 c 0,46,47
 992 308 992 308 943 380 c 2,48,-1
 918 417 l 1,49,-1
 1011 579 l 1,50,-1
 1061 501 l 2,51,52
 1083 458 1083 458 1092 427 c 0,53,54
 1101 400 1101 400 1101 355 c 2,55,-1
 1101 342 l 2,56,57
 1100 316 1100 316 1097.5 291.5 c 128,-1,58
 1095 267 1095 267 1090 244 c 0,59,60
 1081 199 1081 199 1054 130 c 0,0,1
633 845 m 1,61,-1
 560 746 l 1,62,-1
 457 819 l 1,63,-1
 529 918 l 1,64,-1
 633 845 l 1,61,-1
572 636 m 1,65,-1
 485 518 l 1,66,-1
 363 605 l 1,67,-1
 448 723 l 1,68,-1
 572 636 l 1,65,-1
752 636 m 1,69,-1
 665 518 l 1,70,-1
 543 605 l 1,71,-1
 628 723 l 1,72,-1
 752 636 l 1,69,-1
EndSplineSet
Substitution2: "'fina' Terminal Forms in Arabic lookup 5 subtable" thehfinal
Substitution2: "'medi' Medial Forms in Arabic lookup 4 subtable" thehmedial
Substitution2: "'init' Initial Forms in Arabic lookup 3 subtable" thehinitial
Substitution2: "'isol' Isolated Forms in Arabic lookup 2 subtable" thehisolated
AlternateSubs2: "'aalt' Access All Alternates in Latin lookup 1 subtable" thehisolated thehinitial thehmedial thehfinal
EndChar

StartChar: jeem
Encoding: 1580 1580 15
Width: 901
Flags: W
AnchorPoint: "ArabicBelow" 450 -922 basechar 0
AnchorPoint: "ArabicAbove" 450 799 basechar 0
LayerCount: 2
Fore
SplineSet
651 -151 m 1,0,1
 652 -150 652 -150 652 -148 c 1,2,-1
 654 -154 l 1,3,-1
 651 -151 l 1,0,1
936 -535 m 1,4,5
 921 -552 921 -552 895 -570 c 128,-1,6
 869 -588 869 -588 830 -608 c 0,7,8
 703 -672 703 -672 521 -672 c 0,9,10
 313 -672 313 -672 189 -566 c 256,11,12
 65 -460 65 -460 65 -301 c 0,13,14
 65 -195 65 -195 83.5 -106.5 c 128,-1,15
 102 -18 102 -18 141 62 c 0,16,17
 207 198 207 198 348 325 c 1,18,-1
 348 346 l 1,19,20
 325 352 325 352 307.5 358 c 128,-1,21
 290 364 290 364 272 366 c 2,22,-1
 224 372 l 1,23,-1
 167 372 l 2,24,25
 121 372 121 372 78 340 c 0,26,27
 52 317 52 317 41 316 c 1,28,-1
 73 428 l 1,29,30
 130 549 130 549 210 549 c 2,31,-1
 253 549 l 2,32,33
 284 545 284 545 317 543 c 1,34,-1
 432 514 l 1,35,-1
 597 489 l 1,36,-1
 846 489 l 1,37,-1
 774 326 l 1,38,39
 747 325 747 325 715.5 321 c 128,-1,40
 684 317 684 317 631 306 c 0,41,42
 605 301 605 301 578 295 c 128,-1,43
 551 289 551 289 523 281 c 1,44,-1
 522 282 l 1,45,-1
 434 250 l 2,46,47
 373 226 373 226 321.5 184 c 128,-1,48
 270 142 270 142 224 73 c 0,49,50
 134 -61 134 -61 134 -171 c 0,51,52
 134 -303 134 -303 247 -395 c 0,53,54
 286 -429 286 -429 352 -456 c 0,55,56
 384 -470 384 -470 410.5 -479.5 c 128,-1,57
 437 -489 437 -489 457 -494 c 0,58,59
 478 -499 478 -499 511.5 -504.5 c 128,-1,60
 545 -510 545 -510 592 -516 c 0,61,62
 640 -522 640 -522 687.5 -526 c 128,-1,63
 735 -530 735 -530 785 -535 c 2,64,-1
 936 -535 l 1,65,-1
 936 -535 l 1,4,5
656 -149 m 1,66,-1
 561 -277 l 1,67,-1
 429 -182 l 1,68,-1
 521 -54 l 1,69,-1
 656 -149 l 1,66,-1
EndSplineSet
Substitution2: "'fina' Terminal Forms in Arabic lookup 5 subtable" jeemfinal
Substitution2: "'medi' Medial Forms in Arabic lookup 4 subtable" jeemmedial
Substitution2: "'init' Initial Forms in Arabic lookup 3 subtable" jeeminitial
Substitution2: "'isol' Isolated Forms in Arabic lookup 2 subtable" jeemisolated
AlternateSubs2: "'aalt' Access All Alternates in Latin lookup 1 subtable" jeemisolated jeeminitial jeemmedial jeemfinal
EndChar

StartChar: hah
Encoding: 1581 1581 16
Width: 901
Flags: W
AnchorPoint: "ArabicBelow" 450 -922 basechar 0
AnchorPoint: "ArabicAbove" 450 799 basechar 0
LayerCount: 2
Fore
SplineSet
936 -535 m 1,0,1
 921 -552 921 -552 895 -570 c 128,-1,2
 869 -588 869 -588 830 -608 c 0,3,4
 703 -672 703 -672 521 -672 c 0,5,6
 313 -672 313 -672 189 -566 c 256,7,8
 65 -460 65 -460 65 -301 c 0,9,10
 65 -195 65 -195 83.5 -106.5 c 128,-1,11
 102 -18 102 -18 141 62 c 0,12,13
 207 198 207 198 348 325 c 1,14,-1
 348 346 l 1,15,16
 325 352 325 352 307.5 358 c 128,-1,17
 290 364 290 364 272 366 c 2,18,-1
 224 372 l 1,19,-1
 167 372 l 2,20,21
 121 372 121 372 78 340 c 0,22,23
 52 317 52 317 41 316 c 1,24,-1
 73 428 l 1,25,26
 130 549 130 549 210 549 c 2,27,-1
 253 549 l 2,28,29
 284 545 284 545 317 543 c 1,30,-1
 432 514 l 1,31,-1
 597 489 l 1,32,-1
 846 489 l 1,33,-1
 774 326 l 1,34,35
 747 325 747 325 715.5 321 c 128,-1,36
 684 317 684 317 631 306 c 0,37,38
 605 301 605 301 578 295 c 128,-1,39
 551 289 551 289 523 281 c 1,40,-1
 522 282 l 1,41,-1
 434 250 l 2,42,43
 373 226 373 226 321.5 184 c 128,-1,44
 270 142 270 142 224 73 c 0,45,46
 134 -61 134 -61 134 -171 c 0,47,48
 134 -303 134 -303 247 -395 c 0,49,50
 286 -429 286 -429 352 -456 c 0,51,52
 384 -470 384 -470 410.5 -479.5 c 128,-1,53
 437 -489 437 -489 457 -494 c 0,54,55
 478 -499 478 -499 511.5 -504.5 c 128,-1,56
 545 -510 545 -510 592 -516 c 0,57,58
 640 -522 640 -522 687.5 -526 c 128,-1,59
 735 -530 735 -530 785 -535 c 2,60,-1
 936 -535 l 1,61,-1
 936 -535 l 1,0,1
EndSplineSet
Substitution2: "'fina' Terminal Forms in Arabic lookup 5 subtable" hahfinal
Substitution2: "'medi' Medial Forms in Arabic lookup 4 subtable" hahmedial
Substitution2: "'init' Initial Forms in Arabic lookup 3 subtable" hahinitial
Substitution2: "'isol' Isolated Forms in Arabic lookup 2 subtable" hahisolated
AlternateSubs2: "'aalt' Access All Alternates in Latin lookup 1 subtable" hahisolated hahinitial hahmedial hahfinal
EndChar

StartChar: khah
Encoding: 1582 1582 17
Width: 901
Flags: W
AnchorPoint: "ArabicBelow" 450 -922 basechar 0
AnchorPoint: "ArabicAbove" 450 1207 basechar 0
LayerCount: 2
Fore
SplineSet
936 -535 m 1,0,1
 921 -552 921 -552 895 -570 c 128,-1,2
 869 -588 869 -588 830 -608 c 0,3,4
 703 -672 703 -672 521 -672 c 0,5,6
 313 -672 313 -672 189 -566 c 256,7,8
 65 -460 65 -460 65 -301 c 0,9,10
 65 -195 65 -195 83.5 -106.5 c 128,-1,11
 102 -18 102 -18 141 62 c 0,12,13
 207 198 207 198 348 325 c 1,14,-1
 348 346 l 1,15,16
 325 352 325 352 307.5 358 c 128,-1,17
 290 364 290 364 272 366 c 2,18,-1
 224 372 l 1,19,-1
 167 372 l 2,20,21
 121 372 121 372 78 340 c 0,22,23
 52 317 52 317 41 316 c 1,24,-1
 73 428 l 1,25,26
 130 549 130 549 210 549 c 2,27,-1
 253 549 l 2,28,29
 284 545 284 545 317 543 c 1,30,-1
 432 514 l 1,31,-1
 597 489 l 1,32,-1
 846 489 l 1,33,-1
 774 326 l 1,34,35
 747 325 747 325 715.5 321 c 128,-1,36
 684 317 684 317 631 306 c 0,37,38
 605 301 605 301 578 295 c 128,-1,39
 551 289 551 289 523 281 c 1,40,-1
 522 282 l 1,41,-1
 434 250 l 2,42,43
 373 226 373 226 321.5 184 c 128,-1,44
 270 142 270 142 224 73 c 0,45,46
 134 -61 134 -61 134 -171 c 0,47,48
 134 -303 134 -303 247 -395 c 0,49,50
 286 -429 286 -429 352 -456 c 0,51,52
 384 -470 384 -470 410.5 -479.5 c 128,-1,53
 437 -489 437 -489 457 -494 c 0,54,55
 478 -499 478 -499 511.5 -504.5 c 128,-1,56
 545 -510 545 -510 592 -516 c 0,57,58
 640 -522 640 -522 687.5 -526 c 128,-1,59
 735 -530 735 -530 785 -535 c 2,60,-1
 936 -535 l 1,61,-1
 936 -535 l 1,0,1
474 862 m 1,62,-1
 379 734 l 1,63,-1
 247 829 l 1,64,-1
 339 957 l 1,65,-1
 474 862 l 1,62,-1
EndSplineSet
Substitution2: "'fina' Terminal Forms in Arabic lookup 5 subtable" khahfinal
Substitution2: "'medi' Medial Forms in Arabic lookup 4 subtable" khahmedial
Substitution2: "'init' Initial Forms in Arabic lookup 3 subtable" khahinitial
Substitution2: "'isol' Isolated Forms in Arabic lookup 2 subtable" khahisolated
AlternateSubs2: "'aalt' Access All Alternates in Latin lookup 1 subtable" khahisolated khahinitial khahmedial khahfinal
EndChar

StartChar: dal
Encoding: 1583 1583 18
Width: 672
Flags: W
AnchorPoint: "ArabicBelow" 336 -252 basechar 0
AnchorPoint: "ArabicAbove" 336 932 basechar 0
LayerCount: 2
Fore
SplineSet
128 184 m 1,0,-1
 551 184 l 1,1,-1
 551 210 l 2,2,3
 551 264 551 264 509 330 c 0,4,5
 487 363 487 363 464 388.5 c 128,-1,6
 441 414 441 414 413 431 c 2,7,-1
 358 464 l 1,8,-1
 314 485 l 1,9,-1
 359 682 l 1,10,11
 411 647 411 647 442.5 624 c 128,-1,12
 474 601 474 601 486 590 c 0,13,14
 510 567 510 567 545 516 c 256,15,16
 580 465 580 465 597.5 422 c 128,-1,17
 615 379 615 379 625 333 c 0,18,19
 636 286 636 286 637 263 c 0,20,21
 638 251 638 251 638 231 c 0,22,23
 638 212 638 212 638 185 c 0,24,25
 638 130 638 130 629 78 c 0,26,27
 614 -2 614 -2 581 -2 c 2,28,-1
 109 -2 l 1,29,-1
 128 184 l 1,0,-1
EndSplineSet
Substitution2: "'fina' Terminal Forms in Arabic lookup 5 subtable" dalfinal
Substitution2: "'isol' Isolated Forms in Arabic lookup 2 subtable" dalisolated
AlternateSubs2: "'aalt' Access All Alternates in Latin lookup 1 subtable" dalisolated dalfinal
EndChar

StartChar: thal
Encoding: 1584 1584 19
Width: 672
Flags: W
AnchorPoint: "ArabicBelow" 336 -252 basechar 0
AnchorPoint: "ArabicAbove" 336 1249 basechar 0
LayerCount: 2
Fore
SplineSet
128 184 m 1,0,-1
 551 184 l 1,1,-1
 551 210 l 2,2,3
 551 264 551 264 509 330 c 0,4,5
 487 363 487 363 464 388.5 c 128,-1,6
 441 414 441 414 413 431 c 2,7,-1
 358 464 l 1,8,-1
 314 485 l 1,9,-1
 359 682 l 1,10,11
 411 647 411 647 442.5 624 c 128,-1,12
 474 601 474 601 486 590 c 0,13,14
 510 567 510 567 545 516 c 256,15,16
 580 465 580 465 597.5 422 c 128,-1,17
 615 379 615 379 625 333 c 0,18,19
 636 286 636 286 637 263 c 0,20,21
 638 251 638 251 638 231 c 0,22,23
 638 212 638 212 638 185 c 0,24,25
 638 130 638 130 629 78 c 0,26,27
 614 -2 614 -2 581 -2 c 2,28,-1
 109 -2 l 1,29,-1
 128 184 l 1,0,-1
329 912 m 1,30,-1
 242 794 l 1,31,-1
 120 881 l 1,32,-1
 205 999 l 1,33,-1
 329 912 l 1,30,-1
EndSplineSet
Substitution2: "'fina' Terminal Forms in Arabic lookup 5 subtable" thalfinal
Substitution2: "'isol' Isolated Forms in Arabic lookup 2 subtable" thalisolated
AlternateSubs2: "'aalt' Access All Alternates in Latin lookup 1 subtable" thalisolated thalfinal
EndChar

StartChar: reh
Encoding: 1585 1585 20
Width: 831
Flags: W
AnchorPoint: "ArabicBelow" 415 -675 basechar 0
AnchorPoint: "ArabicAbove" 415 755 basechar 0
LayerCount: 2
Fore
SplineSet
779 3 m 0,0,1
 747 -131 747 -131 674 -252 c 0,2,3
 570 -425 570 -425 446 -425 c 0,4,5
 379 -425 379 -425 196 -353 c 0,6,7
 18 -284 18 -284 18 -258 c 1,8,-1
 152 -298 l 2,9,10
 227 -318 227 -318 264 -318 c 0,11,12
 367 -318 367 -318 545 -164 c 0,13,14
 722 -11 722 -11 722 91 c 0,15,16
 722 133 722 133 633 222 c 0,17,18
 604 252 604 252 576.5 276 c 128,-1,19
 549 300 549 300 524 319 c 1,20,-1
 588 505 l 1,21,22
 646 474 646 474 707 391 c 0,23,24
 793 269 793 269 793 124 c 0,25,26
 793 99 793 99 789.5 69 c 128,-1,27
 786 39 786 39 779 3 c 0,0,1
EndSplineSet
Substitution2: "'fina' Terminal Forms in Arabic lookup 5 subtable" rehfinal
Substitution2: "'isol' Isolated Forms in Arabic lookup 2 subtable" rehisolated
AlternateSubs2: "'aalt' Access All Alternates in Latin lookup 1 subtable" rehisolated rehfinal
EndChar

StartChar: zain
Encoding: 1586 1586 21
Width: 831
Flags: W
AnchorPoint: "ArabicBelow" 415 -675 basechar 0
AnchorPoint: "ArabicAbove" 415 1149 basechar 0
LayerCount: 2
Fore
SplineSet
674 -252 m 0,0,1
 570 -425 570 -425 446 -425 c 0,2,3
 379 -425 379 -425 196 -353 c 0,4,5
 18 -284 18 -284 18 -259 c 1,6,-1
 20 -258 l 1,7,-1
 152 -298 l 2,8,9
 227 -318 227 -318 264 -318 c 0,10,11
 367 -318 367 -318 545 -164 c 0,12,13
 722 -11 722 -11 722 91 c 0,14,15
 722 131 722 131 633 223 c 2,16,-1
 524 319 l 1,17,-1
 588 505 l 1,18,19
 646 474 646 474 707 391 c 0,20,21
 793 269 793 269 793 124 c 0,22,23
 793 73 793 73 777 2 c 0,24,25
 763 -65 763 -65 737 -128 c 128,-1,26
 711 -191 711 -191 674 -252 c 0,0,1
613 812 m 1,27,-1
 526 694 l 1,28,-1
 404 781 l 1,29,-1
 489 899 l 1,30,-1
 613 812 l 1,27,-1
EndSplineSet
Substitution2: "'fina' Terminal Forms in Arabic lookup 5 subtable" zainfinal
Substitution2: "'isol' Isolated Forms in Arabic lookup 2 subtable" zainisolated
AlternateSubs2: "'aalt' Access All Alternates in Latin lookup 1 subtable" zainisolated zainfinal
EndChar

StartChar: seen
Encoding: 1587 1587 22
Width: 1630
Flags: W
AnchorPoint: "ArabicBelow" 815 -665 basechar 0
AnchorPoint: "ArabicAbove" 815 718 basechar 0
LayerCount: 2
Fore
SplineSet
1258 -2 m 1,0,-1
 1217 39 l 1,1,-1
 1163 -2 l 1,2,-1
 850 -2 l 1,3,-1
 850 -27 l 2,4,5
 850 -46 850 -46 829 -101 c 0,6,7
 806 -161 806 -161 782.5 -202 c 128,-1,8
 759 -243 759 -243 733 -267 c 256,9,10
 707 -291 707 -291 660.5 -315 c 128,-1,11
 614 -339 614 -339 548 -365 c 0,12,13
 416 -415 416 -415 359 -415 c 0,14,15
 193 -415 193 -415 112 -373 c 1,16,-1
 111 -373 l 1,17,18
 7 -320 7 -320 7 -193 c 0,19,20
 7 -59 7 -59 79 127 c 0,21,22
 144 291 144 291 171 291 c 1,23,-1
 114 129 l 1,24,-1
 93 57 l 1,25,-1
 85 -1 l 2,26,27
 85 -108 85 -108 166 -171 c 0,28,29
 203 -200 203 -200 251 -218.5 c 128,-1,30
 299 -237 299 -237 359 -238 c 2,31,-1
 438 -234 l 1,32,-1
 482 -226 l 1,33,-1
 538 -212 l 1,34,-1
 606 -190 l 2,35,36
 752 -143 752 -143 780 -93 c 1,37,-1
 782 -86 l 1,38,39
 782 -68 782 -68 776 -37 c 128,-1,40
 770 -6 770 -6 754 45 c 0,41,42
 737 99 737 99 715 148 c 128,-1,43
 693 197 693 197 664 245 c 1,44,-1
 764 422 l 1,45,-1
 831 287 l 2,46,47
 851 249 851 249 873 224.5 c 128,-1,48
 895 200 895 200 917 182 c 1,49,-1
 1215 182 l 1,50,-1
 1228 194 l 1,51,-1
 1238 325 l 1,52,-1
 1334 427 l 1,53,-1
 1322 381 l 2,54,55
 1298 247 1298 247 1298 213 c 2,56,-1
 1301 191 l 1,57,-1
 1313 182 l 1,58,-1
 1514 182 l 1,59,-1
 1527 194 l 1,60,-1
 1527 211 l 1,61,-1
 1523 248 l 1,62,-1
 1501 333 l 1,63,-1
 1602 468 l 1,64,-1
 1602 274 l 2,65,66
 1603 265 1603 265 1603.5 256 c 128,-1,67
 1604 247 1604 247 1604 238 c 0,68,69
 1604 167 1604 167 1580.5 108.5 c 128,-1,70
 1557 50 1557 50 1530 -2 c 1,71,-1
 1258 -2 l 1,0,-1
EndSplineSet
Substitution2: "'fina' Terminal Forms in Arabic lookup 5 subtable" seenfinal
Substitution2: "'medi' Medial Forms in Arabic lookup 4 subtable" seenmedial
Substitution2: "'init' Initial Forms in Arabic lookup 3 subtable" seeninitial
Substitution2: "'isol' Isolated Forms in Arabic lookup 2 subtable" seenisolated
AlternateSubs2: "'aalt' Access All Alternates in Latin lookup 1 subtable" seenisolated seeninitial seenmedial seenfinal
EndChar

StartChar: sheen
Encoding: 1588 1588 23
Width: 1630
Flags: W
AnchorPoint: "ArabicBelow" 815 -665 basechar 0
AnchorPoint: "ArabicAbove" 815 1256 basechar 0
LayerCount: 2
Fore
SplineSet
1258 -2 m 1,0,-1
 1217 39 l 1,1,-1
 1163 -2 l 1,2,-1
 862 -2 l 1,3,-1
 850 -14 l 1,4,-1
 850 -27 l 2,5,6
 850 -46 850 -46 829 -101 c 0,7,8
 806 -161 806 -161 782.5 -202 c 128,-1,9
 759 -243 759 -243 733 -267 c 256,10,11
 707 -291 707 -291 660.5 -315 c 128,-1,12
 614 -339 614 -339 548 -365 c 0,13,14
 416 -415 416 -415 359 -415 c 0,15,16
 193 -415 193 -415 112 -373 c 1,17,-1
 111 -373 l 1,18,19
 7 -320 7 -320 7 -193 c 0,20,21
 7 -59 7 -59 79 127 c 0,22,23
 144 291 144 291 171 291 c 1,24,-1
 114 129 l 1,25,-1
 93 57 l 1,26,-1
 85 -1 l 2,27,28
 85 -108 85 -108 166 -171 c 0,29,30
 203 -200 203 -200 251 -218.5 c 128,-1,31
 299 -237 299 -237 359 -238 c 2,32,-1
 438 -234 l 1,33,-1
 482 -226 l 1,34,-1
 538 -212 l 1,35,-1
 606 -190 l 2,36,37
 752 -143 752 -143 780 -93 c 1,38,-1
 782 -86 l 1,39,40
 782 -68 782 -68 776 -37 c 128,-1,41
 770 -6 770 -6 754 45 c 0,42,43
 737 99 737 99 715 148 c 128,-1,44
 693 197 693 197 664 245 c 1,45,-1
 764 422 l 1,46,-1
 831 287 l 2,47,48
 851 249 851 249 873 224.5 c 128,-1,49
 895 200 895 200 917 182 c 1,50,-1
 1215 182 l 1,51,-1
 1228 194 l 1,52,-1
 1238 325 l 1,53,-1
 1334 427 l 1,54,-1
 1322 381 l 2,55,56
 1298 247 1298 247 1298 213 c 2,57,-1
 1301 191 l 1,58,-1
 1313 182 l 1,59,-1
 1514 182 l 1,60,-1
 1527 194 l 1,61,-1
 1527 211 l 1,62,-1
 1523 248 l 1,63,-1
 1501 333 l 1,64,-1
 1602 468 l 1,65,-1
 1602 274 l 2,66,67
 1603 265 1603 265 1603.5 256 c 128,-1,68
 1604 247 1604 247 1604 238 c 0,69,70
 1604 167 1604 167 1580.5 108.5 c 128,-1,71
 1557 50 1557 50 1530 -2 c 1,72,-1
 1258 -2 l 1,0,-1
1204 729 m 1,73,-1
 1117 611 l 1,74,-1
 995 698 l 1,75,-1
 1080 816 l 1,76,-1
 1204 729 l 1,73,-1
1296 931 m 1,77,-1
 1221 831 l 1,78,-1
 1117 906 l 1,79,-1
 1190 1006 l 1,80,-1
 1296 931 l 1,77,-1
1456 748 m 1,81,-1
 1369 630 l 1,82,-1
 1247 717 l 1,83,-1
 1332 835 l 1,84,-1
 1456 748 l 1,81,-1
EndSplineSet
Substitution2: "'fina' Terminal Forms in Arabic lookup 5 subtable" sheenfinal
Substitution2: "'medi' Medial Forms in Arabic lookup 4 subtable" sheenmedial
Substitution2: "'init' Initial Forms in Arabic lookup 3 subtable" sheeninitial
Substitution2: "'isol' Isolated Forms in Arabic lookup 2 subtable" sheenisolated
AlternateSubs2: "'aalt' Access All Alternates in Latin lookup 1 subtable" sheenisolated sheeninitial sheenmedial sheenfinal
EndChar

StartChar: sad
Encoding: 1589 1589 24
Width: 2022
Flags: W
AnchorPoint: "ArabicBelow" 1011 -663 basechar 0
AnchorPoint: "ArabicAbove" 1011 819 basechar 0
LayerCount: 2
Fore
SplineSet
1822 210 m 2,0,1
 1835 218 1835 218 1839 240 c 1,2,3
 1839 283 1839 283 1746 345 c 0,4,5
 1654 405 1654 405 1601 405 c 0,6,7
 1572 405 1572 405 1535 389 c 128,-1,8
 1498 373 1498 373 1450 343 c 2,9,-1
 1327 264 l 1,10,-1
 1221 206 l 1,11,-1
 1221 184 l 1,12,-1
 1734 184 l 1,13,-1
 1751 187 l 1,14,15
 1760 187 1760 187 1811 201 c 1,16,-1
 1822 210 l 2,0,1
1990 327 m 0,17,18
 1990 320 1990 320 1986 311 c 1,19,-1
 1985 307 l 1,20,-1
 1985 306 l 1,21,22
 1983 298 1983 298 1979.5 288.5 c 128,-1,23
 1976 279 1976 279 1968 267 c 1,24,-1
 1939 190 l 2,25,26
 1926 157 1926 157 1915.5 130 c 128,-1,27
 1905 103 1905 103 1894 81 c 1,28,-1
 1894 80 l 1,29,30
 1862 2 1862 2 1844 0 c 2,31,-1
 848 0 l 1,32,-1
 848 -25 l 2,33,34
 848 -33 848 -33 837.5 -59.5 c 128,-1,35
 827 -86 827 -86 806 -137 c 0,36,37
 786 -186 786 -186 767.5 -216 c 128,-1,38
 749 -246 749 -246 730 -267 c 0,39,40
 677 -326 677 -326 544 -374 c 0,41,42
 431 -413 431 -413 357 -413 c 0,43,44
 203 -413 203 -413 110 -356 c 0,45,46
 7 -293 7 -293 7 -173 c 0,47,48
 7 -98 7 -98 23 -25.5 c 128,-1,49
 39 47 39 47 75 133 c 0,50,51
 141 293 141 293 171 293 c 1,52,-1
 88 72 l 1,53,54
 86 58 86 58 84.5 44.5 c 128,-1,55
 83 31 83 31 83 17 c 0,56,57
 83 -118 83 -118 214 -190 c 0,58,59
 236 -202 236 -202 257 -209.5 c 128,-1,60
 278 -217 278 -217 300 -223 c 2,61,-1
 346 -236 l 1,62,-1
 394 -234 l 1,63,-1
 437 -232 l 1,64,-1
 480 -224 l 1,65,-1
 536 -210 l 2,66,67
 553 -205 553 -205 570 -200.5 c 128,-1,68
 587 -196 587 -196 604 -188 c 0,69,70
 750 -141 750 -141 778 -91 c 1,71,-1
 780 -84 l 1,72,73
 780 -28 780 -28 758 47 c 0,74,75
 723 166 723 166 663 245 c 1,76,-1
 684 284 l 1,77,-1
 762 407 l 1,78,-1
 845 259 l 2,79,80
 896 184 896 184 964 184 c 2,81,-1
 995 184 l 2,82,83
 1062 184 1062 184 1149 231 c 2,84,-1
 1350 368 l 2,85,86
 1544 492 1544 492 1577 510 c 2,87,-1
 1641 544 l 1,88,89
 1643 546 1643 546 1644 546 c 1,90,-1
 1683 561 l 1,91,-1
 1723 569 l 1,92,93
 1792 569 1792 569 1892 478 c 0,94,95
 1990 389 1990 389 1990 327 c 0,17,18
EndSplineSet
Substitution2: "'fina' Terminal Forms in Arabic lookup 5 subtable" sadfinal
Substitution2: "'medi' Medial Forms in Arabic lookup 4 subtable" sadmedial
Substitution2: "'init' Initial Forms in Arabic lookup 3 subtable" sadinitial
Substitution2: "'isol' Isolated Forms in Arabic lookup 2 subtable" sadisolated
AlternateSubs2: "'aalt' Access All Alternates in Latin lookup 1 subtable" sadisolated sadinitial sadmedial sadfinal
EndChar

StartChar: dad
Encoding: 1590 1590 25
Width: 2022
Flags: W
AnchorPoint: "ArabicBelow" 1011 -663 basechar 0
AnchorPoint: "ArabicAbove" 1011 1195 basechar 0
LayerCount: 2
Fore
SplineSet
1819 208 m 1,0,1
 1820 208 1820 208 1822 210 c 1,2,-1
 1819 208 l 1,3,-1
 1819 208 l 1,0,1
1769 190 m 0,4,5
 1785 193 1785 193 1798 197 c 128,-1,6
 1811 201 1811 201 1822 210 c 0,7,8
 1835 218 1835 218 1839 238 c 1,9,10
 1839 283 1839 283 1746 345 c 0,11,12
 1654 405 1654 405 1601 405 c 0,13,14
 1572 405 1572 405 1535 389 c 128,-1,15
 1498 373 1498 373 1450 343 c 2,16,-1
 1327 264 l 1,17,-1
 1221 206 l 1,18,-1
 1221 184 l 1,19,-1
 1734 184 l 1,20,-1
 1751 186 l 2,21,22
 1763 188 1763 188 1769 190 c 0,4,5
1990 327 m 0,23,24
 1990 320 1990 320 1985 309 c 1,25,-1
 1985 305 l 1,26,-1
 1985 304 l 1,27,28
 1983 296 1983 296 1979.5 287 c 128,-1,29
 1976 278 1976 278 1968 267 c 1,30,-1
 1936 190 l 2,31,32
 1924 157 1924 157 1914.5 130 c 128,-1,33
 1905 103 1905 103 1894 81 c 1,34,-1
 1894 80 l 1,35,36
 1862 2 1862 2 1844 0 c 2,37,-1
 848 0 l 1,38,-1
 848 -25 l 2,39,40
 848 -33 848 -33 837.5 -59.5 c 128,-1,41
 827 -86 827 -86 806 -137 c 0,42,43
 786 -186 786 -186 767.5 -216 c 128,-1,44
 749 -246 749 -246 730 -267 c 0,45,46
 677 -326 677 -326 544 -374 c 0,47,48
 431 -413 431 -413 357 -413 c 0,49,50
 203 -413 203 -413 110 -356 c 0,51,52
 7 -293 7 -293 7 -173 c 0,53,54
 7 -98 7 -98 23 -25.5 c 128,-1,55
 39 47 39 47 75 133 c 0,56,57
 141 293 141 293 171 293 c 1,58,-1
 87 72 l 1,59,60
 85 58 85 58 84 44.5 c 128,-1,61
 83 31 83 31 83 17 c 0,62,63
 83 -118 83 -118 214 -190 c 0,64,65
 236 -202 236 -202 257 -210 c 128,-1,66
 278 -218 278 -218 300 -223 c 2,67,-1
 346 -234 l 1,68,-1
 414 -234 l 1,69,-1
 437 -232 l 1,70,-1
 480 -224 l 1,71,-1
 536 -210 l 2,72,73
 553 -205 553 -205 570 -200.5 c 128,-1,74
 587 -196 587 -196 604 -188 c 0,75,76
 750 -141 750 -141 778 -91 c 1,77,-1
 780 -84 l 1,78,79
 780 -28 780 -28 758 47 c 0,80,81
 723 166 723 166 663 245 c 1,82,-1
 684 284 l 1,83,-1
 762 407 l 1,84,-1
 845 259 l 2,85,86
 896 184 896 184 964 184 c 2,87,-1
 995 184 l 2,88,89
 1062 184 1062 184 1149 231 c 2,90,-1
 1509 465 l 2,91,92
 1543 491 1543 491 1577.5 510.5 c 128,-1,93
 1612 530 1612 530 1644 546 c 2,94,-1
 1683 561 l 1,95,-1
 1723 569 l 1,96,97
 1792 569 1792 569 1892 478 c 0,98,99
 1990 389 1990 389 1990 327 c 0,23,24
1512 858 m 1,100,-1
 1425 740 l 1,101,-1
 1303 827 l 1,102,-1
 1388 945 l 1,103,-1
 1512 858 l 1,100,-1
EndSplineSet
Substitution2: "'fina' Terminal Forms in Arabic lookup 5 subtable" dadfinal
Substitution2: "'medi' Medial Forms in Arabic lookup 4 subtable" dadmedial
Substitution2: "'init' Initial Forms in Arabic lookup 3 subtable" dadinitial
Substitution2: "'isol' Isolated Forms in Arabic lookup 2 subtable" dadisolated
AlternateSubs2: "'aalt' Access All Alternates in Latin lookup 1 subtable" dadisolated dadinitial dadmedial dadfinal
EndChar

StartChar: tah
Encoding: 1591 1591 26
Width: 1560
Flags: W
AnchorPoint: "ArabicBelow" 780 -250 basechar 0
AnchorPoint: "ArabicAbove" 780 1291 basechar 0
LayerCount: 2
Fore
SplineSet
1454 213 m 1,0,-1
 1425 148 l 2,1,2
 1392 73 1392 73 1367.5 37 c 128,-1,3
 1343 1 1343 1 1332 0 c 2,4,-1
 245 0 l 2,5,6
 153 0 153 0 92 52 c 0,7,8
 29 104 29 104 29 186 c 0,9,10
 29 219 29 219 30.5 233 c 128,-1,11
 32 247 32 247 33 258 c 0,12,13
 35 269 35 269 38.5 287.5 c 128,-1,14
 42 306 42 306 48 325 c 2,15,-1
 64 369 l 2,16,17
 78 408 78 408 93 427.5 c 128,-1,18
 108 447 108 447 122 449 c 1,19,-1
 118 427 l 2,20,21
 99 359 99 359 96 325 c 0,22,23
 96 266 96 266 136 223 c 0,24,25
 182 184 182 184 252 184 c 2,26,-1
 488 184 l 2,27,28
 509 184 509 184 540 203 c 0,29,30
 572 226 572 226 581 264 c 1,31,-1
 581 267 l 2,32,33
 581 294 581 294 572 371 c 2,34,-1
 511 778 l 2,35,36
 506 807 506 807 497.5 836.5 c 128,-1,37
 489 866 489 866 477 896 c 1,38,39
 498 939 498 939 535 1041 c 1,40,41
 575 998 575 998 622.5 956.5 c 128,-1,42
 670 915 670 915 725 873 c 1,43,-1
 661 720 l 1,44,-1
 623 724 l 1,45,-1
 640 619 l 2,46,47
 656 520 656 520 658 500 c 0,48,49
 659 490 659 490 659.5 482.5 c 128,-1,50
 660 475 660 475 660 468 c 0,51,52
 660 442 660 442 649 390 c 0,53,54
 644 366 644 366 640 347 c 128,-1,55
 636 328 636 328 632 314 c 0,56,57
 625 287 625 287 617 265 c 1,58,-1
 630 249 l 1,59,60
 646 252 646 252 665 264 c 2,61,-1
 714 295 l 2,62,63
 789 344 789 344 837 373 c 0,64,65
 862 388 862 388 880 398.5 c 128,-1,66
 898 409 898 409 909 414 c 2,67,-1
 1050 482 l 2,68,69
 1114 513 1114 513 1158.5 527.5 c 128,-1,70
 1203 542 1203 542 1226 542 c 0,71,72
 1255 542 1255 542 1293 523 c 0,73,74
 1332 503 1332 503 1381 465 c 0,75,76
 1492 378 1492 378 1492 300 c 1,77,-1
 1454 213 l 1,0,-1
1321 220 m 1,78,79
 1321 256 1321 256 1267 312 c 0,80,81
 1200 382 1200 382 1112 382 c 0,82,83
 1063 382 1063 382 1008 367 c 0,84,85
 952 352 952 352 888 319 c 2,86,-1
 698 206 l 1,87,-1
 697 184 l 1,88,-1
 1260 184 l 2,89,90
 1288 184 1288 184 1302 190 c 0,91,92
 1317 198 1317 198 1321 220 c 1,78,79
EndSplineSet
Substitution2: "'fina' Terminal Forms in Arabic lookup 5 subtable" tahfinal
Substitution2: "'medi' Medial Forms in Arabic lookup 4 subtable" tahmedial
Substitution2: "'init' Initial Forms in Arabic lookup 3 subtable" tahinitial
Substitution2: "'isol' Isolated Forms in Arabic lookup 2 subtable" tahisolated
AlternateSubs2: "'aalt' Access All Alternates in Latin lookup 1 subtable" tahisolated tahinitial tahmedial tahfinal
EndChar

StartChar: zah
Encoding: 1592 1592 27
Width: 1560
Flags: W
AnchorPoint: "ArabicBelow" 780 -250 basechar 0
AnchorPoint: "ArabicAbove" 780 1291 basechar 0
LayerCount: 2
Fore
SplineSet
1454 213 m 1,0,-1
 1425 148 l 2,1,2
 1392 73 1392 73 1367.5 37 c 128,-1,3
 1343 1 1343 1 1332 0 c 2,4,-1
 245 0 l 2,5,6
 153 0 153 0 92 52 c 0,7,8
 29 104 29 104 29 186 c 0,9,10
 29 219 29 219 30.5 233 c 128,-1,11
 32 247 32 247 33 258 c 0,12,13
 35 269 35 269 38.5 287.5 c 128,-1,14
 42 306 42 306 48 325 c 2,15,-1
 64 369 l 2,16,17
 78 408 78 408 93 427.5 c 128,-1,18
 108 447 108 447 122 449 c 1,19,-1
 118 427 l 2,20,21
 99 359 99 359 96 325 c 0,22,23
 96 266 96 266 136 223 c 0,24,25
 182 184 182 184 252 184 c 2,26,-1
 488 184 l 2,27,28
 509 184 509 184 540 203 c 0,29,30
 572 226 572 226 581 264 c 1,31,-1
 581 267 l 2,32,33
 581 294 581 294 572 371 c 2,34,-1
 511 778 l 2,35,36
 506 807 506 807 497.5 836.5 c 128,-1,37
 489 866 489 866 477 896 c 1,38,39
 498 939 498 939 535 1041 c 1,40,41
 575 998 575 998 622.5 956.5 c 128,-1,42
 670 915 670 915 725 873 c 1,43,-1
 661 720 l 1,44,-1
 623 724 l 1,45,-1
 640 619 l 2,46,47
 656 520 656 520 658 500 c 0,48,49
 659 490 659 490 659.5 482.5 c 128,-1,50
 660 475 660 475 660 468 c 0,51,52
 660 442 660 442 649 390 c 0,53,54
 644 366 644 366 640 347 c 128,-1,55
 636 328 636 328 632 314 c 0,56,57
 625 287 625 287 617 265 c 1,58,-1
 630 249 l 1,59,60
 646 252 646 252 665 264 c 2,61,-1
 714 295 l 2,62,63
 789 344 789 344 837 373 c 0,64,65
 862 388 862 388 880 398.5 c 128,-1,66
 898 409 898 409 909 414 c 2,67,-1
 1050 482 l 2,68,69
 1114 513 1114 513 1158.5 527.5 c 128,-1,70
 1203 542 1203 542 1226 542 c 0,71,72
 1255 542 1255 542 1293 523 c 0,73,74
 1332 503 1332 503 1381 465 c 0,75,76
 1492 378 1492 378 1492 300 c 1,77,-1
 1454 213 l 1,0,-1
1321 220 m 1,78,79
 1321 256 1321 256 1267 312 c 0,80,81
 1200 382 1200 382 1112 382 c 0,82,83
 1063 382 1063 382 1008 367 c 0,84,85
 952 352 952 352 888 319 c 2,86,-1
 698 206 l 1,87,-1
 697 184 l 1,88,-1
 1260 184 l 2,89,90
 1288 184 1288 184 1302 190 c 0,91,92
 1317 198 1317 198 1321 220 c 1,78,79
1015 911 m 1,93,-1
 928 790 l 1,94,-1
 1052 701 l 1,95,-1
 1142 822 l 1,96,-1
 1015 911 l 1,93,-1
EndSplineSet
Substitution2: "'fina' Terminal Forms in Arabic lookup 5 subtable" zahfinal
Substitution2: "'medi' Medial Forms in Arabic lookup 4 subtable" zahmedial
Substitution2: "'init' Initial Forms in Arabic lookup 3 subtable" zahinitial
Substitution2: "'isol' Isolated Forms in Arabic lookup 2 subtable" zahisolated
AlternateSubs2: "'aalt' Access All Alternates in Latin lookup 1 subtable" zahisolated zahinitial zahmedial zahfinal
EndChar

StartChar: ain
Encoding: 1593 1593 28
Width: 753
Flags: W
AnchorPoint: "ArabicBelow" 376 -945 basechar 0
AnchorPoint: "ArabicAbove" 376 919 basechar 0
LayerCount: 2
Fore
SplineSet
933 -547 m 1,0,1
 913 -561 913 -561 898 -572 c 128,-1,2
 883 -583 883 -583 868.5 -592.5 c 128,-1,3
 854 -602 854 -602 839 -610.5 c 128,-1,4
 824 -619 824 -619 803 -628 c 0,5,6
 771 -642 771 -642 732 -653.5 c 128,-1,7
 693 -665 693 -665 647 -675 c 256,8,9
 601 -685 601 -685 555 -690 c 128,-1,10
 509 -695 509 -695 458 -695 c 0,11,12
 234 -695 234 -695 134 -621 c 0,13,14
 41 -551 41 -551 41 -402 c 0,15,16
 41 -323 41 -323 56 -251 c 128,-1,17
 71 -179 71 -179 106 -100 c 0,18,19
 156 9 156 9 215 65 c 1,20,-1
 215 83 l 1,21,22
 191 96 191 96 178.5 102 c 128,-1,23
 166 108 166 108 156.5 114 c 128,-1,24
 147 120 147 120 136 129.5 c 128,-1,25
 125 139 125 139 104 159 c 0,26,27
 33 225 33 225 33 295 c 0,28,29
 33 350 33 350 124 495 c 0,30,31
 232 669 232 669 331 669 c 0,32,33
 341 669 341 669 353.5 665.5 c 128,-1,34
 366 662 366 662 382.5 652.5 c 128,-1,35
 399 643 399 643 422 627 c 128,-1,36
 445 611 445 611 476 586 c 0,37,38
 540 536 540 536 541 521 c 1,39,-1
 487 530 l 1,40,-1
 436 534 l 1,41,-1
 400 534 l 2,42,43
 350 531 350 531 291 518 c 0,44,45
 230 504 230 504 193 485 c 0,46,47
 155 465 155 465 152 429 c 2,48,-1
 152 422 l 2,49,50
 152 390 152 390 164 362 c 0,51,52
 184 316 184 316 232.5 289 c 128,-1,53
 281 262 281 262 347 262 c 0,54,55
 376 262 376 262 407 268.5 c 128,-1,56
 438 275 438 275 483 291 c 2,57,-1
 635 347 l 1,58,-1
 693 364 l 1,59,-1
 636 217 l 1,60,61
 475 168 475 168 328 59 c 0,62,63
 127 -93 127 -93 127 -268 c 0,64,65
 127 -397 127 -397 251 -467 c 0,66,67
 392 -547 392 -547 753 -547 c 2,68,-1
 933 -547 l 1,69,-1
 933 -547 l 1,0,1
EndSplineSet
Substitution2: "'fina' Terminal Forms in Arabic lookup 5 subtable" ainfinal
Substitution2: "'medi' Medial Forms in Arabic lookup 4 subtable" ainmedial
Substitution2: "'init' Initial Forms in Arabic lookup 3 subtable" aininitial
Substitution2: "'isol' Isolated Forms in Arabic lookup 2 subtable" ainisolated
AlternateSubs2: "'aalt' Access All Alternates in Latin lookup 1 subtable" ainisolated aininitial ainmedial ainfinal
EndChar

StartChar: ghain
Encoding: 1594 1594 29
Width: 753
Flags: W
AnchorPoint: "ArabicBelow" 376 -871 basechar 0
AnchorPoint: "ArabicAbove" 376 1264 basechar 0
LayerCount: 2
Fore
SplineSet
324 813 m 1,0,-1
 210 899 l 1,1,-1
 293 1014 l 1,2,-1
 411 928 l 1,3,-1
 324 813 l 1,0,-1
933 -473 m 1,4,5
 916 -490 916 -490 885 -510.5 c 128,-1,6
 854 -531 854 -531 803 -554 c 0,7,8
 740 -583 740 -583 647 -602 c 0,9,10
 601 -611 601 -611 555 -616 c 128,-1,11
 509 -621 509 -621 458 -621 c 0,12,13
 340 -621 340 -621 259.5 -605 c 128,-1,14
 179 -589 179 -589 131 -555 c 0,15,16
 41 -492 41 -492 41 -347 c 0,17,18
 41 -225 41 -225 108 -82 c 2,19,-1
 134 -27 l 1,20,-1
 180 43 l 1,21,-1
 215 83 l 1,22,-1
 215 102 l 1,23,-1
 195 113 l 1,24,25
 175 120 175 120 152 134 c 2,26,-1
 106 168 l 2,27,28
 38 224 38 224 38 297 c 0,29,30
 38 351 38 351 131 494 c 2,31,-1
 132 496 l 2,32,33
 240 670 240 670 338 670 c 0,34,35
 377 670 377 670 462 603 c 256,36,37
 547 536 547 536 547 523 c 1,38,-1
 535 524 l 1,39,-1
 481 532 l 1,40,-1
 408 535 l 1,41,-1
 377 532 l 2,42,43
 347 530 347 530 300 519 c 0,44,45
 274 516 274 516 258 509 c 0,46,47
 234 501 234 501 210 487 c 0,48,49
 164 465 164 465 155 434 c 1,50,-1
 155 431 l 2,51,52
 155 389 155 389 184 345 c 0,53,54
 203 317 203 317 248 296 c 2,55,-1
 250 295 l 1,56,57
 292 281 292 281 347 281 c 0,58,59
 406 281 406 281 483 309 c 2,60,-1
 635 365 l 1,61,-1
 694 382 l 1,62,-1
 651 268 l 1,63,-1
 635 234 l 1,64,65
 418 166 418 166 269 41 c 0,66,67
 127 -77 127 -77 127 -214 c 0,68,69
 127 -363 127 -363 332 -426 c 0,70,71
 408 -450 408 -450 512.5 -461.5 c 128,-1,72
 617 -473 617 -473 753 -473 c 2,73,-1
 933 -473 l 1,74,-1
 933 -473 l 1,4,5
EndSplineSet
Substitution2: "'fina' Terminal Forms in Arabic lookup 5 subtable" ghainfinal
Substitution2: "'medi' Medial Forms in Arabic lookup 4 subtable" ghainmedial
Substitution2: "'init' Initial Forms in Arabic lookup 3 subtable" ghaininitial
Substitution2: "'isol' Isolated Forms in Arabic lookup 2 subtable" ghainisolated
AlternateSubs2: "'aalt' Access All Alternates in Latin lookup 1 subtable" ghainisolated ghaininitial ghainmedial ghainfinal
EndChar

StartChar: tatweel
Encoding: 1600 1600 30
Width: 193
Flags: W
LayerCount: 2
Fore
SplineSet
201 -2 m 1,0,-1
 -2 -2 l 1,1,-1
 -2 182 l 1,2,-1
 201 182 l 1,3,-1
 201 -2 l 1,0,-1
EndSplineSet
EndChar

StartChar: feh
Encoding: 1601 1601 31
Width: 1400
Flags: W
AnchorPoint: "ArabicBelow" 700 -250 basechar 0
AnchorPoint: "ArabicAbove" 700 1308 basechar 0
LayerCount: 2
Fore
SplineSet
92 524 m 1,0,1
 92 523 92 523 91 522 c 1,2,-1
 92 524 l 1,3,-1
 92 524 l 1,0,1
898 847 m 1,4,-1
 781 948 l 1,5,-1
 894 1058 l 1,6,-1
 1014 951 l 1,7,-1
 898 847 l 1,4,-1
1157 488 m 1,8,-1
 1143 507 l 2,9,10
 1124 538 1124 538 1104.5 559.5 c 128,-1,11
 1085 581 1085 581 1066 594 c 0,12,13
 1030 619 1030 619 999 623 c 0,14,15
 981 623 981 623 968.5 618 c 128,-1,16
 956 613 956 613 936 596 c 2,17,-1
 894 552 l 1,18,-1
 888 542 l 1,19,-1
 889 527 l 1,20,-1
 900 516 l 1,21,-1
 940 488 l 2,22,23
 950 481 950 481 961.5 474.5 c 128,-1,24
 973 468 973 468 987 463 c 2,25,-1
 1015 457 l 1,26,-1
 1062 457 l 1,27,-1
 1123 466 l 1,28,-1
 1147 469 l 1,29,-1
 1157 488 l 1,8,-1
1306 0 m 1,30,-1
 244 0 l 2,31,32
 129 0 129 0 64 62 c 0,33,34
 3 126 3 126 3 235 c 0,35,36
 3 303 3 303 34 415 c 0,37,38
 63 522 63 522 88 522 c 2,39,-1
 91 522 l 1,40,-1
 75 467 l 2,41,42
 59 419 59 419 59 380 c 0,43,44
 59 304 59 304 113 244 c 256,45,46
 167 184 167 184 249 184 c 2,47,-1
 1260 184 l 1,48,-1
 1257 242 l 1,49,-1
 1248 284 l 2,50,51
 1231 376 1231 376 1196 407 c 1,52,-1
 1182 415 l 1,53,-1
 1166 411 l 1,54,-1
 1161 404 l 1,55,-1
 1086 326 l 1,56,57
 1039 299 1039 299 964 299 c 0,58,59
 901 299 901 299 840 340 c 0,60,61
 782 379 782 379 782 426 c 0,62,63
 782 501 782 501 890 626 c 0,64,65
 1010 766 1010 766 1118 766 c 0,66,67
 1187 766 1187 766 1266 603 c 0,68,69
 1349 432 1349 432 1349 277 c 1,70,-1
 1331 151 l 1,71,-1
 1306 0 l 1,30,-1
EndSplineSet
Substitution2: "'fina' Terminal Forms in Arabic lookup 5 subtable" fehfinal
Substitution2: "'medi' Medial Forms in Arabic lookup 4 subtable" fehmedial
Substitution2: "'init' Initial Forms in Arabic lookup 3 subtable" fehinitial
Substitution2: "'isol' Isolated Forms in Arabic lookup 2 subtable" fehisolated
AlternateSubs2: "'aalt' Access All Alternates in Latin lookup 1 subtable" fehisolated fehinitial fehmedial fehfinal
EndChar

StartChar: qaf
Encoding: 1602 1602 32
Width: 1028
Flags: W
AnchorPoint: "ArabicBelow" 514 -641 basechar 0
AnchorPoint: "ArabicAbove" 514 1218 basechar 0
LayerCount: 2
Fore
SplineSet
799 299 m 1,0,1
 790 328 790 328 770 356 c 0,2,3
 752 386 752 386 733 403 c 0,4,5
 688 453 688 453 665 453 c 0,6,7
 637 453 637 453 603 419 c 0,8,9
 594 408 594 408 585 393 c 128,-1,10
 576 378 576 378 565 359 c 2,11,-1
 563 355 l 1,12,-1
 564 343 l 1,13,-1
 565 341 l 1,14,15
 577 326 577 326 584 321 c 2,16,-1
 610 300 l 1,17,-1
 631 287 l 1,18,-1
 655 276 l 2,19,20
 660 274 660 274 667.5 273.5 c 128,-1,21
 675 273 675 273 686 271 c 1,22,-1
 763 271 l 1,23,-1
 770 273 l 2,24,25
 775 275 775 275 779 276.5 c 128,-1,26
 783 278 783 278 794 285 c 1,27,-1
 799 299 l 1,28,-1
 799 299 l 1,0,1
936 -81 m 1,29,-1
 935 -81 l 1,30,31
 925 -117 925 -117 916 -143 c 128,-1,32
 907 -169 907 -169 898 -184 c 1,33,34
 859 -226 859 -226 702 -296 c 0,35,36
 651 -319 651 -319 603.5 -338 c 128,-1,37
 556 -357 556 -357 509 -367 c 2,38,-1
 456 -378 l 1,39,-1
 406 -385 l 2,40,41
 370 -391 370 -391 331 -391 c 0,42,43
 169 -391 169 -391 84 -313 c 0,44,45
 7 -245 7 -245 7 -121 c 0,46,47
 7 -61 7 -61 22 12 c 128,-1,48
 37 85 37 85 71 166 c 1,49,-1
 71 167 l 1,50,51
 129 321 129 321 158 323 c 1,52,53
 158 319 158 319 159 318 c 1,54,55
 159 310 159 310 150 285 c 2,56,-1
 90 110 l 1,57,-1
 91 108 l 1,58,59
 81 72 81 72 81 38 c 0,60,61
 81 -90 81 -90 191 -156 c 1,62,-1
 191 -157 l 1,63,64
 273 -202 273 -202 372 -202 c 0,65,66
 529 -202 529 -202 673 -160 c 1,67,-1
 673 -159 l 1,68,69
 825 -112 825 -112 897 -43 c 1,70,-1
 901 -33 l 1,71,-1
 890 50 l 1,72,-1
 881 85 l 2,73,74
 878 110 878 110 865 129 c 1,75,-1
 856 148 l 2,76,77
 851 164 851 164 843 174 c 1,78,-1
 823 173 l 1,79,80
 807 144 807 144 788 130 c 0,81,82
 732 85 732 85 642 85 c 0,83,84
 580 85 580 85 521 126 c 0,85,86
 466 166 466 166 466 219 c 0,87,88
 466 261 466 261 485.5 319 c 128,-1,89
 505 377 505 377 547 452 c 0,90,91
 634 610 634 610 724 610 c 0,92,93
 753 610 753 610 777 595 c 0,94,95
 787 590 787 590 801.5 576.5 c 128,-1,96
 816 563 816 563 833 541 c 0,97,98
 892 464 892 464 942 297 c 2,99,-1
 970 180 l 1,100,-1
 976 93 l 1,101,-1
 976 68 l 1,102,-1
 974 58 l 1,103,-1
 936 -81 l 1,29,-1
618 862 m 1,104,-1
 531 744 l 1,105,-1
 409 831 l 1,106,-1
 494 949 l 1,107,-1
 618 862 l 1,104,-1
870 881 m 1,108,-1
 783 763 l 1,109,-1
 661 850 l 1,110,-1
 746 968 l 1,111,-1
 870 881 l 1,108,-1
EndSplineSet
Substitution2: "'fina' Terminal Forms in Arabic lookup 5 subtable" qaffinal
Substitution2: "'medi' Medial Forms in Arabic lookup 4 subtable" qafmedial
Substitution2: "'init' Initial Forms in Arabic lookup 3 subtable" qafinitial
Substitution2: "'isol' Isolated Forms in Arabic lookup 2 subtable" qafisolated
AlternateSubs2: "'aalt' Access All Alternates in Latin lookup 1 subtable" qafisolated qafinitial qafmedial qaffinal
EndChar

StartChar: arabickaf
Encoding: 1603 1603 33
Width: 1353
Flags: W
AnchorPoint: "ArabicBelow" 676 -250 basechar 0
AnchorPoint: "ArabicAbove" 676 1247 basechar 0
LayerCount: 2
Fore
SplineSet
1146 531 m 2,0,-1
 1166 373 l 2,1,2
 1177 292 1177 292 1180.5 238 c 128,-1,3
 1184 184 1184 184 1184 156 c 2,4,-1
 1184 49 l 2,5,6
 1184 0 1184 0 1146 0 c 2,7,-1
 288 0 l 2,8,9
 194 0 194 0 131.5 36.5 c 128,-1,10
 69 73 69 73 42 137 c 0,11,12
 24 180 24 180 24 235 c 0,13,14
 24 273 24 273 30 314 c 0,15,16
 34 334 34 334 40 358.5 c 128,-1,17
 46 383 46 383 55 412 c 0,18,19
 85 512 85 512 119 512 c 0,20,21
 122 512 122 512 123 511 c 1,22,-1
 97 446 l 1,23,-1
 89 414 l 1,24,-1
 86 380 l 2,25,26
 86 312 86 312 144 247 c 0,27,28
 201 184 201 184 297 184 c 2,29,-1
 1060 184 l 1,30,31
 1082 197 1082 197 1082 244 c 0,32,33
 1082 284 1082 284 1078.5 329 c 128,-1,34
 1075 374 1075 374 1068 425 c 0,35,36
 1060 477 1060 477 1052.5 520.5 c 128,-1,37
 1045 564 1045 564 1037 601 c 0,38,39
 1029 663 1029 663 1016 726.5 c 128,-1,40
 1003 790 1003 790 984 856 c 1,41,42
 996 878 996 878 1012.5 913 c 128,-1,43
 1029 948 1029 948 1049 997 c 1,44,45
 1125 910 1125 910 1232 823 c 1,46,-1
 1161 672 l 1,47,-1
 1123 678 l 1,48,49
 1131 640 1131 640 1136.5 603 c 128,-1,50
 1142 566 1142 566 1146 531 c 2,0,-1
745 549 m 0,51,52
 745 577 745 577 669 584 c 0,53,54
 594 597 594 597 594 608 c 1,55,-1
 599 621 l 1,56,57
 620 647 620 647 646 668 c 2,58,-1
 660 680 l 1,59,-1
 679 692 l 2,60,61
 692 702 692 702 707 706 c 1,62,-1
 714 720 l 1,63,-1
 745 799 l 1,64,65
 693 799 693 799 610 695 c 0,66,67
 529 591 529 591 529 541 c 0,68,69
 529 498 529 498 607 498 c 0,70,71
 687 498 687 498 687 480 c 1,72,73
 681 458 681 458 575 412 c 256,74,75
 469 366 469 366 469 358 c 1,76,-1
 511 361 l 1,77,-1
 553 367 l 1,78,-1
 630 387 l 2,79,80
 668 396 668 396 699 435 c 0,81,82
 745 488 745 488 745 549 c 0,51,52
EndSplineSet
Substitution2: "'fina' Terminal Forms in Arabic lookup 5 subtable" arabickaffinal
Substitution2: "'medi' Medial Forms in Arabic lookup 4 subtable" kafmedial
Substitution2: "'init' Initial Forms in Arabic lookup 3 subtable" kafinitial
Substitution2: "'isol' Isolated Forms in Arabic lookup 2 subtable" kafisolated
AlternateSubs2: "'aalt' Access All Alternates in Latin lookup 1 subtable" kafisolated kafinitial kafmedial arabickaffinal
EndChar

StartChar: lam
Encoding: 1604 1604 34
Width: 994
Flags: W
AnchorPoint: "ArabicBelow" 497 -569 basechar 0
AnchorPoint: "ArabicAbove" 497 1286 basechar 0
LayerCount: 2
Fore
SplineSet
773 709 m 1,0,1
 789 669 789 669 839 135 c 0,2,3
 839 121 839 121 809 33 c 2,4,-1
 776 -44 l 2,5,6
 768 -61 768 -61 761 -74 c 0,7,8
 754 -89 754 -89 724 -131 c 0,9,10
 708 -153 708 -153 673 -181 c 128,-1,11
 638 -209 638 -209 581 -243 c 0,12,13
 565 -251 565 -251 548.5 -259 c 128,-1,14
 532 -267 532 -267 515 -274 c 0,15,16
 484 -288 484 -288 445 -299 c 0,17,18
 411 -309 411 -309 377 -314 c 0,19,20
 363 -316 363 -316 345 -317.5 c 128,-1,21
 327 -319 327 -319 307 -319 c 0,22,23
 279 -319 279 -319 248 -315.5 c 128,-1,24
 217 -312 217 -312 186 -303 c 0,25,26
 133 -286 133 -286 96 -254 c 0,27,28
 22 -189 22 -189 22 -87 c 0,29,30
 22 -28 22 -28 40 41 c 0,31,32
 50 76 50 76 63.5 113 c 128,-1,33
 77 150 77 150 95 191 c 0,34,35
 164 348 164 348 183 348 c 1,36,-1
 177 303 l 1,37,38
 94 129 94 129 94 83 c 0,39,40
 94 -22 94 -22 179 -82 c 0,41,42
 256 -135 256 -135 358 -135 c 2,43,-1
 399 -135 l 1,44,-1
 408 -134 l 2,45,46
 431 -132 431 -132 449 -130.5 c 128,-1,47
 467 -129 467 -129 478 -127 c 0,48,49
 491 -125 491 -125 506.5 -121.5 c 128,-1,50
 522 -118 522 -118 540 -113 c 2,51,-1
 609 -91 l 2,52,53
 741 -49 741 -49 741 8 c 2,54,-1
 689 671 l 2,55,56
 689 680 689 680 680 712 c 0,57,58
 666 757 666 757 650.5 801 c 128,-1,59
 635 845 635 845 617 891 c 1,60,61
 638 934 638 934 675 1036 c 1,62,63
 715 993 715 993 762.5 951.5 c 128,-1,64
 810 910 810 910 865 868 c 1,65,66
 854 842 854 842 838 804 c 128,-1,67
 822 766 822 766 801 715 c 1,68,-1
 773 709 l 1,0,1
EndSplineSet
Substitution2: "'fina' Terminal Forms in Arabic lookup 5 subtable" lamfinal
Substitution2: "'medi' Medial Forms in Arabic lookup 4 subtable" lammedial
Substitution2: "'init' Initial Forms in Arabic lookup 3 subtable" laminitial
Substitution2: "'isol' Isolated Forms in Arabic lookup 2 subtable" lamisolated
AlternateSubs2: "'aalt' Access All Alternates in Latin lookup 1 subtable" lamisolated laminitial lammedial lamfinal
EndChar

StartChar: meem
Encoding: 1605 1605 35
Width: 694
Flags: W
AnchorPoint: "ArabicBelow" 347 -807 basechar 0
AnchorPoint: "ArabicAbove" 347 862 basechar 0
LayerCount: 2
Fore
SplineSet
594 112 m 1,0,1
 537 126 537 126 503 134 c 128,-1,2
 469 142 469 142 458 144 c 256,3,4
 447 146 447 146 434.5 147.5 c 128,-1,5
 422 149 422 149 408 151 c 0,6,7
 379 154 379 154 308 154 c 0,8,9
 289 154 289 154 264.5 150.5 c 128,-1,10
 240 147 240 147 209 142 c 0,11,12
 147 131 147 131 129 118 c 2,13,-1
 105 100 l 1,14,15
 99 94 99 94 98 90 c 1,16,-1
 98 89 l 2,17,18
 98 84 98 84 105 48.5 c 128,-1,19
 112 13 112 13 121 -54 c 2,20,-1
 139 -187 l 1,21,-1
 146 -292 l 2,22,23
 146 -318 146 -318 139 -356 c 0,24,25
 137 -367 137 -367 136.5 -373.5 c 128,-1,26
 136 -380 136 -380 135 -382 c 1,27,28
 135 -388 135 -388 132 -400 c 0,29,30
 130 -406 130 -406 126.5 -419.5 c 128,-1,31
 123 -433 123 -433 117 -455 c 0,32,33
 112 -477 112 -477 104.5 -502.5 c 128,-1,34
 97 -528 97 -528 89 -557 c 1,35,-1
 85 -505 l 1,36,-1
 5 68 l 2,37,38
 5 76 5 76 16.5 96.5 c 128,-1,39
 28 117 28 117 53 148 c 2,40,-1
 107 215 l 1,41,42
 113 226 113 226 205 264 c 0,43,44
 255 284 255 284 295 296.5 c 128,-1,45
 335 309 335 309 366 313 c 2,46,-1
 411 318 l 1,47,-1
 419 342 l 1,48,-1
 359 385 l 2,49,50
 285 432 285 432 227 432 c 0,51,52
 182 432 182 432 157 414 c 0,53,54
 144 406 144 406 127 391 c 128,-1,55
 110 376 110 376 89 356 c 1,56,-1
 99 387 l 2,57,58
 134 464 134 464 167 509 c 0,59,60
 175 520 175 520 188 533.5 c 128,-1,61
 201 547 201 547 220 563 c 2,62,-1
 240 580 l 2,63,64
 290 612 290 612 325 612 c 0,65,66
 337 612 337 612 351 602 c 0,67,68
 367 592 367 592 378 585 c 128,-1,69
 389 578 389 578 396 573 c 2,70,-1
 442 535 l 2,71,72
 465 516 465 516 479 503.5 c 128,-1,73
 493 491 493 491 498 486 c 256,74,75
 503 481 503 481 510.5 473.5 c 128,-1,76
 518 466 518 466 527 456 c 256,77,78
 536 446 536 446 547 434 c 128,-1,79
 558 422 558 422 571 408 c 2,80,-1
 659 294 l 1,81,-1
 594 112 l 1,0,1
EndSplineSet
Substitution2: "'fina' Terminal Forms in Arabic lookup 5 subtable" meemfinal
Substitution2: "'medi' Medial Forms in Arabic lookup 4 subtable" meemmedial
Substitution2: "'init' Initial Forms in Arabic lookup 3 subtable" meeminitial
Substitution2: "'isol' Isolated Forms in Arabic lookup 2 subtable" meemisolated
AlternateSubs2: "'aalt' Access All Alternates in Latin lookup 1 subtable" meemisolated meeminitial meemmedial meemfinal
EndChar

StartChar: noon
Encoding: 1606 1606 36
Width: 934
Flags: W
AnchorPoint: "ArabicBelow" 467 -513 basechar 0
AnchorPoint: "ArabicAbove" 467 1129 basechar 0
LayerCount: 2
Fore
SplineSet
858 57 m 2,0,1
 823 -65 823 -65 791 -97 c 0,2,3
 748 -149 748 -149 608 -203 c 0,4,5
 554 -224 554 -224 502 -237.5 c 128,-1,6
 450 -251 450 -251 398 -259 c 2,7,-1
 330 -263 l 2,8,9
 198 -263 198 -263 119 -216 c 0,10,11
 13 -152 13 -152 13 -10 c 0,12,13
 15 24 15 24 16.5 45 c 128,-1,14
 18 66 18 66 20 74 c 256,15,16
 22 82 22 82 23.5 90.5 c 128,-1,17
 25 99 25 99 27 107 c 0,18,19
 42 172 42 172 72 249 c 0,20,21
 130 396 130 396 161 396 c 2,22,-1
 166 396 l 1,23,-1
 115 277 l 2,24,25
 89 213 89 213 89 171 c 0,26,27
 89 42 89 42 183 -19 c 0,28,29
 264 -72 264 -72 352 -72 c 0,30,31
 395 -72 395 -72 423 -72 c 256,32,33
 451 -72 451 -72 465 -71 c 0,34,35
 478 -71 478 -71 502 -66.5 c 128,-1,36
 526 -62 526 -62 556.5 -54.5 c 128,-1,37
 587 -47 587 -47 624 -36 c 128,-1,38
 661 -25 661 -25 701 -10 c 0,39,40
 783 19 783 19 796 44 c 256,41,42
 809 69 809 69 811 88 c 2,43,-1
 812 110 l 1,44,-1
 811 136 l 1,45,-1
 790 196 l 2,46,47
 779 225 779 225 772 244.5 c 128,-1,48
 765 264 765 264 760 275 c 0,49,50
 756 286 756 286 751.5 296.5 c 128,-1,51
 747 307 747 307 744 320 c 1,52,-1
 678 450 l 1,53,-1
 770 608 l 1,54,55
 805 536 805 536 825.5 491 c 128,-1,56
 846 446 846 446 853 428 c 0,57,58
 867 391 867 391 877 355 c 2,59,-1
 891 285 l 1,60,-1
 894 223 l 1,61,-1
 891 175 l 1,62,-1
 858 57 l 2,0,1
496 792 m 1,63,-1
 409 674 l 1,64,-1
 287 761 l 1,65,-1
 372 879 l 1,66,-1
 496 792 l 1,63,-1
EndSplineSet
Substitution2: "'fina' Terminal Forms in Arabic lookup 5 subtable" noonfinal
Substitution2: "'medi' Medial Forms in Arabic lookup 4 subtable" noonmedial
Substitution2: "'init' Initial Forms in Arabic lookup 3 subtable" nooninitial
Substitution2: "'isol' Isolated Forms in Arabic lookup 2 subtable" noonisolated
AlternateSubs2: "'aalt' Access All Alternates in Latin lookup 1 subtable" noonisolated nooninitial noonmedial noonfinal
EndChar

StartChar: heh
Encoding: 1607 1607 37
Width: 582
Flags: W
AnchorPoint: "ArabicBelow" 291 -268 basechar 0
AnchorPoint: "ArabicAbove" 291 876 basechar 0
LayerCount: 2
Fore
SplineSet
470 192 m 1,0,1
 470 240 470 240 375 344 c 0,2,3
 279 449 279 449 254 449 c 1,4,-1
 178 355 l 2,5,6
 132 286 132 286 126 256 c 1,7,8
 126 202 126 202 164 176 c 0,9,10
 189 159 189 159 247 159 c 0,11,12
 289 159 289 159 323.5 161.5 c 128,-1,13
 358 164 358 164 387 169 c 2,14,-1
 460 180 l 1,15,-1
 470 192 l 1,0,1
494 142 m 2,16,17
 475 87 475 87 440 60 c 1,18,-1
 440 59 l 1,19,20
 435 54 435 54 333 11 c 2,21,-1
 266 -10 l 1,22,-1
 218 -18 l 1,23,24
 164 -18 164 -18 132 -15.5 c 128,-1,25
 100 -13 100 -13 83 -8 c 1,26,-1
 83 -7 l 1,27,28
 5 12 5 12 5 78 c 0,29,30
 5 121 5 121 21.5 175.5 c 128,-1,31
 38 230 38 230 78 294 c 2,32,-1
 166 434 l 2,33,34
 203 497 203 497 237 544 c 128,-1,35
 271 591 271 591 303 626 c 1,36,-1
 490 471 l 1,37,-1
 512 440 l 1,38,-1
 533 401 l 2,39,40
 547 365 547 365 547 319 c 2,41,-1
 544 289 l 1,42,-1
 535 259 l 1,43,-1
 494 142 l 2,16,17
EndSplineSet
Substitution2: "'fina' Terminal Forms in Arabic lookup 5 subtable" hehfinal
Substitution2: "'medi' Medial Forms in Arabic lookup 4 subtable" hehmedial
Substitution2: "'init' Initial Forms in Arabic lookup 3 subtable" hehinitial
Substitution2: "'isol' Isolated Forms in Arabic lookup 2 subtable" hehisolated
AlternateSubs2: "'aalt' Access All Alternates in Latin lookup 1 subtable" hehisolated hehinitial hehmedial hehfinal
EndChar

StartChar: waw
Encoding: 1608 1608 38
Width: 853
Flags: W
AnchorPoint: "ArabicBelow" 426 -678 basechar 0
AnchorPoint: "ArabicAbove" 426 835 basechar 0
LayerCount: 2
Fore
SplineSet
648 351 m 0,0,1
 607 390 607 390 566 390 c 0,2,3
 548 390 548 390 524 381 c 128,-1,4
 500 372 500 372 477 352 c 0,5,6
 432 314 432 314 432 282 c 0,7,8
 432 255 432 255 459 240 c 0,9,10
 486 226 486 226 511 218 c 0,11,12
 530 213 530 213 547.5 210.5 c 128,-1,13
 565 208 565 208 580 208 c 0,14,15
 591 208 591 208 596 209 c 0,16,17
 614 211 614 211 645 224 c 0,18,19
 662 231 662 231 671 236 c 128,-1,20
 680 241 680 241 682 243 c 0,21,22
 686 248 686 248 686 280 c 0,23,24
 686 310 686 310 648 351 c 0,0,1
828 217 m 0,25,26
 828 6 828 6 725 -196 c 0,27,28
 605 -428 605 -428 437 -428 c 0,29,30
 408 -428 408 -428 324 -413 c 0,31,32
 240 -400 240 -400 207 -389 c 0,33,34
 190 -384 190 -384 162 -376 c 128,-1,35
 134 -368 134 -368 93 -357 c 0,36,37
 13 -334 13 -334 7 -316 c 1,38,39
 7 -314 7 -314 23 -310 c 1,40,-1
 52 -315 l 1,41,-1
 133 -334 l 1,42,-1
 180 -342 l 1,43,-1
 229 -346 l 2,44,45
 258 -346 258 -346 278 -341 c 2,46,-1
 305 -334 l 1,47,-1
 326 -325 l 2,48,49
 407 -291 407 -291 478.5 -243.5 c 128,-1,50
 550 -196 550 -196 618 -130 c 0,51,52
 764 8 764 8 764 119 c 0,53,54
 764 141 764 141 755 177 c 0,55,56
 750 201 750 201 743 216 c 1,57,-1
 721 216 l 1,58,-1
 705 170 l 2,59,60
 667 92 667 92 652 74 c 0,61,62
 605 27 605 27 513 27 c 0,63,64
 429 27 429 27 396 100 c 1,65,66
 392 106 392 106 386 151 c 2,67,-1
 382 237 l 2,68,69
 382 310 382 310 469 442 c 0,70,71
 564 585 564 585 641 585 c 0,72,73
 693 585 693 585 759 468 c 0,74,75
 828 349 828 349 828 217 c 0,25,26
EndSplineSet
Substitution2: "'fina' Terminal Forms in Arabic lookup 5 subtable" wawfinal
Substitution2: "'isol' Isolated Forms in Arabic lookup 2 subtable" wawisolated
AlternateSubs2: "'aalt' Access All Alternates in Latin lookup 1 subtable" wawisolated wawfinal
EndChar

StartChar: alefmaksura
Encoding: 1609 1609 39
Width: 1144
Flags: W
AnchorPoint: "ArabicBelow" 572 -577 basechar 0
AnchorPoint: "ArabicAbove" 572 982 basechar 0
LayerCount: 2
Fore
SplineSet
1061 452 m 1,0,-1
 1055 481 l 2,1,2
 1037 553 1037 553 954 553 c 0,3,4
 864 553 864 553 752 469 c 0,5,6
 637 385 637 385 637 325 c 0,7,8
 637 261 637 261 842 234 c 0,9,10
 1027 210 1027 210 1027 138 c 1,11,12
 1021 106 1021 106 1014 78 c 128,-1,13
 1007 50 1007 50 998 27 c 2,14,-1
 952 -88 l 1,15,16
 931 -106 931 -106 905 -125.5 c 128,-1,17
 879 -145 879 -145 844 -171 c 0,18,19
 813 -190 813 -190 782.5 -207.5 c 128,-1,20
 752 -225 752 -225 719 -242 c 0,21,22
 550 -327 550 -327 396 -327 c 0,23,24
 22 -327 22 -327 22 -57 c 0,25,26
 22 24 22 24 36 105.5 c 128,-1,27
 50 187 50 187 79 268 c 0,28,29
 142 409 142 409 156 409 c 1,30,31
 155 409 155 409 155 387 c 0,32,33
 155 373 155 373 145.5 338.5 c 128,-1,34
 136 304 136 304 119 247 c 0,35,36
 100 187 100 187 90.5 145.5 c 128,-1,37
 81 104 81 104 81 76 c 0,38,39
 81 -31 81 -31 203 -96 c 0,40,41
 306 -140 306 -140 435 -140 c 1,42,-1
 721 -88 l 2,43,44
 790 -68 790 -68 839.5 -49.5 c 128,-1,45
 889 -31 889 -31 918 -9 c 1,46,-1
 923 1 l 1,47,48
 923 33 923 33 719 56 c 0,49,50
 538 77 538 77 538 164 c 0,51,52
 538 304 538 304 677 503 c 0,53,54
 837 732 837 732 1009 732 c 0,55,56
 1027 732 1027 732 1039 731 c 128,-1,57
 1051 730 1051 730 1059.5 728 c 128,-1,58
 1068 726 1068 726 1074.5 722.5 c 128,-1,59
 1081 719 1081 719 1089 714 c 0,60,61
 1113 700 1113 700 1113 663 c 1,62,-1
 1068 480 l 1,63,-1
 1061 452 l 1,0,-1
EndSplineSet
Substitution2: "'fina' Terminal Forms in Arabic lookup 5 subtable" alefmaksurafinal
Substitution2: "'isol' Isolated Forms in Arabic lookup 2 subtable" alefmaksuraisolated
AlternateSubs2: "'aalt' Access All Alternates in Latin lookup 1 subtable" alefmaksuraisolated alefmaksurafinal
EndChar

StartChar: yeh
Encoding: 1610 1610 40
Width: 1212
Flags: W
AnchorPoint: "ArabicBelow" 606 -850 basechar 0
AnchorPoint: "ArabicAbove" 606 992 basechar 0
LayerCount: 2
Fore
SplineSet
1152 660 m 2,0,1
 1150 636 1150 636 1143 615 c 0,2,3
 1141 607 1141 607 1137.5 594.5 c 128,-1,4
 1134 582 1134 582 1129 566 c 2,5,-1
 1100 496 l 2,6,7
 1094 476 1094 476 1094 473 c 1,8,-1
 1089 494 l 2,9,10
 1072 563 1072 563 989 563 c 0,11,12
 941 563 941 563 890 542 c 128,-1,13
 839 521 839 521 781 478 c 0,14,15
 723 436 723 436 694 399 c 128,-1,16
 665 362 665 362 665 335 c 0,17,18
 665 271 665 271 864 238 c 0,19,20
 1044 208 1044 208 1044 135 c 1,21,-1
 1019 12 l 2,22,23
 1012 -13 1012 -13 1004.5 -43 c 128,-1,24
 997 -73 997 -73 969 -108 c 1,25,26
 923 -150 923 -150 868.5 -183.5 c 128,-1,27
 814 -217 814 -217 748 -247 c 0,28,29
 673 -282 673 -282 585 -301 c 0,30,31
 543 -311 543 -311 507 -316 c 128,-1,32
 471 -321 471 -321 433 -321 c 0,33,34
 396 -321 396 -321 365.5 -318.5 c 128,-1,35
 335 -316 335 -316 308 -311 c 0,36,37
 282 -306 282 -306 255 -297.5 c 128,-1,38
 228 -289 228 -289 199 -275 c 0,39,40
 40 -202 40 -202 40 -25 c 0,41,42
 40 86 40 86 53 131 c 2,43,-1
 60 175 l 1,44,-1
 70 212 l 2,45,46
 75 230 75 230 81 251.5 c 128,-1,47
 87 273 87 273 97 298 c 0,48,49
 143 440 143 440 163 443 c 1,50,51
 170 443 170 443 170 428 c 0,52,53
 170 387 170 387 136 285 c 2,54,-1
 111 181 l 2,55,56
 102 136 102 136 102 106 c 2,57,-1
 102 88 l 2,58,59
 102 31 102 31 134.5 -11.5 c 128,-1,60
 167 -54 167 -54 239 -89 c 0,61,62
 293 -115 293 -115 350 -125 c 0,63,64
 379 -130 379 -130 401 -133 c 128,-1,65
 423 -136 423 -136 440 -136 c 2,66,-1
 452 -136 l 2,67,68
 482 -136 482 -136 529 -130 c 0,69,70
 558 -126 558 -126 575 -124 c 128,-1,71
 592 -122 592 -122 597 -120 c 1,72,73
 610 -118 610 -118 650 -111 c 0,74,75
 687 -103 687 -103 735 -87 c 0,76,77
 808 -68 808 -68 858 -49 c 128,-1,78
 908 -30 908 -30 936 -10 c 1,79,-1
 941 0 l 1,80,81
 941 33 941 33 738 63 c 0,82,83
 556 90 556 90 556 176 c 0,84,85
 556 303 556 303 719 514 c 0,86,87
 897 742 897 742 1050 742 c 0,88,89
 1087 742 1087 742 1095 737 c 1,90,91
 1112 734 1112 734 1126 725 c 0,92,93
 1136 720 1136 720 1147 701 c 1,94,-1
 1150 693 l 1,95,-1
 1152 669 l 1,96,-1
 1152 660 l 2,0,1
559 -496 m 1,97,-1
 482 -600 l 1,98,-1
 375 -524 l 1,99,-1
 450 -420 l 1,100,-1
 559 -496 l 1,97,-1
717 -496 m 1,101,-1
 641 -600 l 1,102,-1
 533 -524 l 1,103,-1
 608 -420 l 1,104,-1
 717 -496 l 1,101,-1
EndSplineSet
Substitution2: "'fina' Terminal Forms in Arabic lookup 5 subtable" yehfinal
Substitution2: "'medi' Medial Forms in Arabic lookup 4 subtable" yehmedial
Substitution2: "'init' Initial Forms in Arabic lookup 3 subtable" yehinitial
Substitution2: "'isol' Isolated Forms in Arabic lookup 2 subtable" yehisolated
AlternateSubs2: "'aalt' Access All Alternates in Latin lookup 1 subtable" yehisolated yehinitial yehmedial yehfinal
EndChar

StartChar: fathatan
Encoding: 1611 1611 41
Width: 0
Flags: W
AnchorPoint: "ArabicAboveLigature" 230 1275 mark 0
AnchorPoint: "ArabicAbove" 230 1275 mark 0
LayerCount: 2
Fore
SplineSet
398 2164 m 1,0,1
 398 2098 398 2098 363 2078 c 2,2,-1
 60 1906 l 1,3,4
 63 1944 63 1944 74 1965 c 0,5,6
 86 1985 86 1985 126 2007 c 2,7,-1
 398 2164 l 1,0,1
398 2018 m 1,8,9
 398 1952 398 1952 363 1932 c 2,10,-1
 60 1760 l 1,11,12
 63 1798 63 1798 74 1819 c 0,13,14
 86 1839 86 1839 126 1861 c 2,15,-1
 398 2018 l 1,8,9
EndSplineSet
AlternateSubs2: "'aalt' Access All Alternates in Latin lookup 1 subtable" fathatanisolated fathatanlow
EndChar

StartChar: dammatan
Encoding: 1612 1612 42
Width: 0
Flags: W
AnchorPoint: "ArabicAboveLigature" 230 1275 mark 0
AnchorPoint: "ArabicAbove" 230 1275 mark 0
LayerCount: 2
Fore
SplineSet
396 1582 m 0,0,1
 396 1565 396 1565 395.5 1550 c 128,-1,2
 395 1535 395 1535 394 1523 c 1,3,4
 374 1534 374 1534 351 1548.5 c 128,-1,5
 328 1563 328 1563 302 1582 c 1,6,7
 176 1453 176 1453 62 1437 c 1,8,9
 105 1526 105 1526 105 1566 c 0,10,11
 105 1621 105 1621 56 1621 c 0,12,13
 14 1621 14 1621 7 1545 c 1,14,15
 -3 1574 -3 1574 -3 1597 c 256,16,17
 -3 1620 -3 1620 3.5 1640 c 128,-1,18
 10 1660 10 1660 21.5 1675 c 128,-1,19
 33 1690 33 1690 48 1698.5 c 128,-1,20
 63 1707 63 1707 81 1707 c 0,21,22
 148 1707 148 1707 148 1607 c 2,23,-1
 142 1515 l 1,24,25
 207 1540 207 1540 266 1605 c 1,26,27
 200 1648 200 1648 200 1699 c 0,28,29
 200 1752 200 1752 240 1798 c 0,30,31
 280 1846 280 1846 322 1846 c 0,32,33
 344 1846 344 1846 367 1819 c 0,34,35
 390 1793 390 1793 390 1766 c 0,36,37
 390 1736 390 1736 379 1708 c 0,38,-1
 357 1652 l 1,39,40
 396 1622 396 1622 396 1582 c 0,0,1
320 1726 m 0,41,42
 320 1779 320 1779 279 1779 c 0,43,44
 253 1779 253 1779 253 1756 c 0,45,46
 253 1730 253 1730 316 1687 c 1,47,48
 320 1696 320 1696 320 1726 c 0,41,42
EndSplineSet
AlternateSubs2: "'aalt' Access All Alternates in Latin lookup 1 subtable" dammatanisolated dammatanlow
EndChar

StartChar: kasratan
Encoding: 1613 1613 43
Width: 0
Flags: W
AnchorPoint: "ArabicBelowLigature" 165 -500 mark 0
AnchorPoint: "ArabicBelow" 165 -500 mark 0
LayerCount: 2
Fore
SplineSet
339 -620 m 1,0,1
 339 -686 339 -686 304 -706 c 2,2,-1
 1 -878 l 1,3,4
 4 -840 4 -840 15 -818 c 1,5,6
 28 -800 28 -800 67 -777 c 2,7,-1
 339 -620 l 1,0,1
339 -767 m 1,8,9
 339 -833 339 -833 304 -853 c 2,10,-1
 1 -1025 l 1,11,12
 4 -987 4 -987 15 -965 c 1,13,14
 28 -947 28 -947 67 -924 c 2,15,-1
 339 -767 l 1,8,9
EndSplineSet
AlternateSubs2: "'aalt' Access All Alternates in Latin lookup 1 subtable" kasratanisolated kasratanlow
EndChar

StartChar: fatha
Encoding: 1614 1614 44
Width: 0
Flags: W
AnchorPoint: "ArabicAboveLigature" 230 1275 mark 0
AnchorPoint: "ArabicAbove" 230 1275 mark 0
LayerCount: 2
Fore
SplineSet
283 1910 m 1,0,1
 283 1856 283 1856 254 1839 c 2,2,-1
 5 1698 l 1,3,4
 7 1732 7 1732 16 1747 c 0,5,6
 26 1762 26 1762 59 1781 c 2,7,-1
 283 1910 l 1,0,1
EndSplineSet
AlternateSubs2: "'aalt' Access All Alternates in Latin lookup 1 subtable" fathaisolated fathalow
EndChar

StartChar: damma
Encoding: 1615 1615 45
Width: 0
Flags: W
AnchorPoint: "ArabicAboveLigature" 230 1275 mark 0
AnchorPoint: "ArabicAbove" 230 1275 mark 0
LayerCount: 2
Fore
SplineSet
280 1883 m 1,0,-1
 273 1802 l 1,1,-1
 208 1845 l 1,2,3
 109 1727 109 1727 46 1727 c 0,4,5
 28 1727 28 1727 -2 1737 c 1,6,7
 40 1760 40 1760 83.5 1791.5 c 128,-1,8
 127 1823 127 1823 173 1865 c 1,9,10
 123 1903 123 1903 123 1938 c 0,11,12
 123 1988 123 1988 159 2041 c 0,13,14
 185 2076 185 2076 218 2076 c 0,15,16
 273 2076 273 2076 273 2004 c 0,17,18
 273 1962 273 1962 248 1908 c 1,19,20
 254 1904 254 1904 262 1897.5 c 128,-1,21
 270 1891 270 1891 280 1883 c 1,0,-1
223 1956 m 0,22,23
 223 1974 223 1974 209.5 1990 c 128,-1,24
 196 2006 196 2006 179 2006 c 0,25,26
 164 2006 164 2006 164 1989 c 0,27,28
 164 1964 164 1964 218 1928 c 1,29,30
 223 1948 223 1948 223 1956 c 0,22,23
EndSplineSet
AlternateSubs2: "'aalt' Access All Alternates in Latin lookup 1 subtable" dammaisolated dammalow
EndChar

StartChar: kasra
Encoding: 1616 1616 46
Width: 0
Flags: W
AnchorPoint: "ArabicBelowLigature" 165 -500 mark 0
AnchorPoint: "ArabicBelow" 165 -500 mark 0
LayerCount: 2
Fore
SplineSet
351 -620 m 1,0,1
 351 -686 351 -686 316 -706 c 2,2,-1
 13 -878 l 1,3,4
 16 -840 16 -840 27 -818 c 1,5,6
 40 -800 40 -800 79 -777 c 2,7,-1
 351 -620 l 1,0,1
EndSplineSet
AlternateSubs2: "'aalt' Access All Alternates in Latin lookup 1 subtable" kasraisolated kasralow
EndChar

StartChar: shadda
Encoding: 1617 1617 47
Width: 0
Flags: W
AnchorPoint: "ArabicAboveLigature" 300 1650 mark 0
AnchorPoint: "ArabicAbove" 300 1650 mark 0
LayerCount: 2
Fore
SplineSet
355 1683 m 0,0,1
 355 1515 355 1515 251 1515 c 0,2,3
 215 1515 215 1515 187 1536 c 1,4,5
 179 1501 179 1501 148 1476 c 0,6,7
 116 1450 116 1450 83 1450 c 0,8,9
 1 1450 1 1450 1 1558 c 0,10,11
 1 1583 1 1583 23 1659 c 1,12,-1
 46 1663 l 1,13,14
 46 1552 46 1552 85 1552 c 0,15,16
 149 1552 149 1552 175 1714 c 1,17,-1
 193 1720 l 1,18,19
 216 1622 216 1622 251 1622 c 0,20,21
 309 1622 309 1622 318 1769 c 1,22,-1
 341 1779 l 1,23,24
 355 1718 355 1718 355 1683 c 0,0,1
EndSplineSet
AlternateSubs2: "'aalt' Access All Alternates in Latin lookup 1 subtable" shaddaisolated shaddalow
EndChar

StartChar: sukun
Encoding: 1618 1618 48
Width: 0
Flags: W
AnchorPoint: "ArabicAboveLigature" 230 1275 mark 0
AnchorPoint: "ArabicAbove" 230 1275 mark 0
LayerCount: 2
Fore
SplineSet
260 1614 m 0,0,1
 260 1549 260 1549 214 1500 c 0,2,3
 167 1450 167 1450 109 1450 c 0,4,5
 2 1450 2 1450 2 1571 c 0,6,7
 2 1655 2 1655 40 1708 c 0,8,9
 77 1762 77 1762 139 1762 c 0,10,11
 186 1762 186 1762 223 1716 c 0,12,13
 260 1673 260 1673 260 1614 c 0,0,1
205 1590 m 0,14,15
 205 1616 205 1616 162 1647 c 0,16,17
 121 1676 121 1676 94 1676 c 0,18,19
 35 1676 35 1676 35 1608 c 0,20,21
 35 1549 35 1549 127 1549 c 0,22,23
 205 1549 205 1549 205 1590 c 0,14,15
EndSplineSet
AlternateSubs2: "'aalt' Access All Alternates in Latin lookup 1 subtable" sukunisolated sukunlow
EndChar

StartChar: arabicindicdigitzero
Encoding: 1632 1632 49
Width: 466
Flags: W
LayerCount: 2
Fore
SplineSet
362 449 m 1,0,-1
 292 205 l 1,1,-1
 98 325 l 1,2,-1
 168 569 l 1,3,-1
 362 449 l 1,0,-1
EndSplineSet
EndChar

StartChar: arabicindicdigitone
Encoding: 1633 1633 50
Width: 502
Flags: W
LayerCount: 2
Fore
SplineSet
404 134 m 2,0,1
 404 83 404 83 401 46.5 c 128,-1,2
 398 10 398 10 393 -15 c 1,3,-1
 393 -16 l 1,4,5
 385 -66 385 -66 367 -66 c 0,6,7
 355 -66 355 -66 342 0 c 0,8,9
 319 147 319 147 302.5 235 c 128,-1,10
 286 323 286 323 272 359 c 0,11,12
 258 394 258 394 246 425 c 128,-1,13
 234 456 234 456 222 484 c 0,14,15
 211 510 211 510 199 533.5 c 128,-1,16
 187 557 187 557 174 581 c 2,17,-1
 104 701 l 1,18,19
 105 714 105 714 106 723 c 128,-1,20
 107 732 107 732 109 738 c 0,21,22
 113 750 113 750 119.5 770.5 c 128,-1,23
 126 791 126 791 138 827 c 0,24,25
 171 917 171 917 177 919 c 1,26,27
 191 914 191 914 236 847 c 0,28,29
 265 805 265 805 291.5 749 c 128,-1,30
 318 693 318 693 344 618 c 0,31,32
 357 573 357 573 367.5 526 c 128,-1,33
 378 479 378 479 387 428 c 0,34,35
 395 377 395 377 399 329 c 128,-1,36
 403 281 403 281 403 235 c 2,37,-1
 403 199 l 1,38,-1
 404 134 l 2,0,1
EndSplineSet
EndChar

StartChar: arabicindicdigittwo
Encoding: 1634 1634 51
Width: 724
Flags: W
LayerCount: 2
Fore
SplineSet
183 720 m 1,0,-1
 183 792 l 2,1,2
 185 812 185 812 189 834.5 c 128,-1,3
 193 857 193 857 204 875 c 0,4,5
 228 915 228 915 281.5 931 c 128,-1,6
 335 947 335 947 400 950 c 128,-1,7
 465 953 465 953 531 948 c 128,-1,8
 597 943 597 943 673 930 c 1,9,10
 654 809 654 809 648 782 c 1,11,12
 632 788 632 788 569 795.5 c 128,-1,13
 506 803 506 803 484 802 c 128,-1,14
 462 801 462 801 454 800 c 0,15,16
 401 795 401 795 373 777.5 c 128,-1,17
 345 760 345 760 335.5 734.5 c 128,-1,18
 326 709 326 709 330.5 676.5 c 128,-1,19
 335 644 335 644 347.5 609 c 128,-1,20
 360 574 360 574 375.5 538 c 128,-1,21
 391 502 391 502 404 470 c 0,22,23
 405 467 405 467 407 462.5 c 128,-1,24
 409 458 409 458 413 444.5 c 128,-1,25
 417 431 417 431 424.5 404.5 c 128,-1,26
 432 378 432 378 444 331 c 2,27,-1
 460 233 l 1,28,-1
 467 155 l 1,29,-1
 470 73 l 2,30,31
 470 -78 470 -78 440 -78 c 0,32,33
 420 -78 420 -78 402 19 c 0,34,35
 388 95 388 95 369 178 c 0,36,37
 362 211 362 211 348 248 c 2,38,-1
 329 311 l 2,39,40
 297 402 297 402 265.5 475 c 128,-1,41
 234 548 234 548 209 631 c 2,42,-1
 183 720 l 1,0,-1
EndSplineSet
EndChar

StartChar: arabicindicdigitthree
Encoding: 1635 1635 52
Width: 939
Flags: W
LayerCount: 2
Fore
SplineSet
765 964 m 1,0,1
 766 964 766 964 766.5 964.5 c 128,-1,2
 767 965 767 965 768 965 c 1,3,-1
 765 964 l 1,0,1
768 944 m 1,4,5
 771 944 771 944 776 940 c 1,6,-1
 779 927 l 1,7,-1
 781 898 l 2,8,9
 781 856 781 856 773 813 c 128,-1,10
 765 770 765 770 748 720 c 0,11,12
 714 618 714 618 669 602 c 1,13,-1
 668 601 l 1,14,15
 659 599 659 599 650 597.5 c 128,-1,16
 641 596 641 596 637 596 c 0,17,18
 601 596 601 596 568 613 c 1,19,-1
 567 613 l 1,20,-1
 530 630 l 1,21,-1
 510 640 l 1,22,-1
 496 651 l 1,23,-1
 483 649 l 1,24,25
 459 619 459 619 436 599.5 c 128,-1,26
 413 580 413 580 392 569 c 2,27,-1
 353 555 l 1,28,-1
 346 538 l 1,29,-1
 361 472 l 1,30,-1
 376 395 l 1,31,-1
 383 330 l 1,32,-1
 390 273 l 1,33,-1
 390 117 l 2,34,35
 390 61 390 61 389 22.5 c 128,-1,36
 388 -16 388 -16 384 -40.5 c 128,-1,37
 380 -65 380 -65 374 -75.5 c 128,-1,38
 368 -86 368 -86 358 -86 c 0,39,40
 340 -86 340 -86 325 66 c 0,41,42
 309 230 309 230 272 348 c 0,43,44
 259 394 259 394 246.5 434 c 128,-1,45
 234 474 234 474 221 508 c 0,46,47
 208 545 208 545 197.5 573.5 c 128,-1,48
 187 602 187 602 178 623 c 1,49,-1
 177 624 l 1,50,-1
 123 732 l 1,51,-1
 100 778 l 1,52,-1
 122 831 l 2,53,54
 137 862 137 862 152.5 887 c 128,-1,55
 168 912 168 912 184 933 c 1,56,-1
 242 858 l 2,57,58
 319 762 319 762 369 762 c 0,59,60
 384 762 384 762 401 772 c 0,61,62
 455 815 455 815 487 872 c 2,63,-1
 553 981 l 1,64,65
 563 981 563 981 563 950 c 2,66,-1
 563 923 l 1,67,-1
 565 896 l 1,68,-1
 565 894 l 1,69,70
 570 875 570 875 600 846 c 1,71,-1
 600 845 l 1,72,73
 616 833 616 833 633 826 c 128,-1,74
 650 819 650 819 669 819 c 0,75,76
 695 819 695 819 718 848 c 2,77,-1
 721 852 l 1,78,-1
 746 918 l 2,79,80
 754 936 754 936 768 944 c 1,4,5
EndSplineSet
EndChar

StartChar: arabicindicdigitfour
Encoding: 1636 1636 53
Width: 630
Flags: W
LayerCount: 2
Fore
SplineSet
462 -64 m 1,0,-1
 457 -64 l 2,1,2
 402 -64 402 -64 289 -24 c 0,3,4
 116 28 116 28 116 107 c 0,5,6
 116 125 116 125 128.5 154 c 128,-1,7
 141 183 141 183 164 218 c 2,8,-1
 286 386 l 1,9,-1
 288 396 l 1,10,11
 288 416 288 416 188 484 c 0,12,13
 165 498 165 498 145.5 515 c 128,-1,14
 126 532 126 532 112 547 c 1,15,16
 111 555 111 555 110.5 561 c 128,-1,17
 110 567 110 567 109 575 c 0,18,19
 109 598 109 598 115.5 622.5 c 128,-1,20
 122 647 122 647 134 675 c 1,21,-1
 134 674 l 1,22,23
 158 720 158 720 193.5 764.5 c 128,-1,24
 229 809 229 809 274 850 c 0,25,26
 312 882 312 882 344 904 c 128,-1,27
 376 926 376 926 396 933 c 1,28,29
 390 896 390 896 385.5 864 c 128,-1,30
 381 832 381 832 376 795 c 1,31,-1
 311 775 l 1,32,33
 237 740 237 740 226 703 c 1,34,35
 226 670 226 670 309 621 c 0,36,37
 343 605 343 605 374.5 589.5 c 128,-1,38
 406 574 406 574 439 559 c 1,39,-1
 440 551 l 2,40,41
 440 533 440 533 423 501.5 c 128,-1,42
 406 470 406 470 377 433 c 2,43,-1
 295 346 l 2,44,45
 273 324 273 324 251 286 c 0,46,47
 239 266 239 266 237 247.5 c 128,-1,48
 235 229 235 229 240 215 c 1,49,-1
 244 209 l 1,50,51
 251 204 251 204 267 195.5 c 128,-1,52
 283 187 283 187 311 176 c 2,53,-1
 426 134 l 2,54,55
 444 129 444 129 462 124.5 c 128,-1,56
 480 120 480 120 499 115 c 0,57,58
 505 113 505 113 510 111 c 128,-1,59
 515 109 515 109 521 107 c 1,60,-1
 462 -64 l 1,0,-1
EndSplineSet
EndChar

StartChar: arabicindicdigitfive
Encoding: 1637 1637 54
Width: 740
Flags: W
LayerCount: 2
Fore
SplineSet
555 359 m 1,0,1
 560 364 560 364 560.5 367 c 128,-1,2
 561 370 561 370 561 374 c 0,3,4
 561 390 561 390 542.5 420.5 c 128,-1,5
 524 451 524 451 487 502 c 1,6,-1
 486 502 l 1,7,8
 388 624 388 624 313 624 c 0,9,10
 288 624 288 624 244 547 c 0,11,12
 202 472 202 472 202 411 c 2,13,-1
 202 410 l 1,14,-1
 206 368 l 1,15,16
 213 346 213 346 261 319 c 1,17,-1
 263 319 l 1,18,-1
 282 312 l 1,19,-1
 283 311 l 1,20,-1
 314 304 l 1,21,-1
 316 304 l 1,22,-1
 374 300 l 1,23,-1
 396 300 l 1,24,-1
 421 301 l 1,25,-1
 422 301 l 2,26,27
 442 303 442 303 448 306 c 1,28,-1
 473 313 l 2,29,30
 500 320 500 320 520.5 332 c 128,-1,31
 541 344 541 344 556 359 c 1,32,-1
 555 359 l 1,0,1
640 494 m 2,33,34
 640 423 640 423 616 321 c 0,35,36
 593 225 593 225 563 198 c 0,37,38
 513 159 513 159 442 130 c 0,39,40
 425 124 425 124 408 119.5 c 128,-1,41
 391 115 391 115 372 110 c 2,42,-1
 338 105 l 1,43,-1
 305 103 l 2,44,45
 262 103 262 103 221 116.5 c 128,-1,46
 180 130 180 130 143 172 c 0,47,48
 103 215 103 215 103 305 c 0,49,50
 103 454 103 454 206 641 c 0,51,52
 307 823 307 823 390 823 c 0,53,54
 447 823 447 823 522 737 c 0,55,56
 596 651 596 651 635 542 c 1,57,-1
 639 516 l 1,58,-1
 640 494 l 2,33,34
EndSplineSet
EndChar

StartChar: arabicindicdigitsix
Encoding: 1638 1638 55
Width: 770
Flags: W
LayerCount: 2
Fore
SplineSet
634 -57 m 2,0,1
 632 -57 632 -57 632 -55 c 1,2,3
 635 -57 635 -57 636 -57 c 1,4,-1
 634 -57 l 2,0,1
675 150 m 2,5,6
 674 138 674 138 668 107 c 128,-1,7
 662 76 662 76 652 31 c 0,8,9
 630 -43 630 -43 632 -55 c 1,10,11
 621 -48 621 -48 602 -19.5 c 128,-1,12
 583 9 583 9 560 54 c 0,13,14
 522 129 522 129 502 210 c 128,-1,15
 482 291 482 291 482 375 c 2,16,-1
 482 474 l 2,17,18
 485 519 485 519 485.5 549 c 128,-1,19
 486 579 486 579 486 591 c 0,20,21
 487 603 487 603 489.5 625 c 128,-1,22
 492 647 492 647 495 673 c 1,23,-1
 471 698 l 1,24,25
 460 696 460 696 445.5 693 c 128,-1,26
 431 690 431 690 419 688 c 0,27,28
 415 687 415 687 410 687 c 0,29,30
 406 687 406 687 403 686 c 0,31,32
 371 681 371 681 351 678 c 128,-1,33
 331 675 331 675 312 675 c 0,34,35
 230 675 230 675 201 691 c 0,36,37
 145 714 145 714 115 766 c 1,38,-1
 117 763 l 1,39,40
 115 768 115 768 113 775.5 c 128,-1,41
 111 783 111 783 109 789 c 1,42,-1
 107 819 l 2,43,44
 107 859 107 859 133 965 c 1,45,-1
 191 928 l 2,46,47
 236 907 236 907 280.5 896 c 128,-1,48
 325 885 325 885 375 885 c 0,49,50
 406 885 406 885 450 893 c 128,-1,51
 494 901 494 901 546 915 c 1,52,-1
 548 915 l 1,53,-1
 542 885 l 1,54,-1
 542 886 l 1,55,-1
 528 808 l 2,56,57
 527 794 527 794 526 779 c 128,-1,58
 525 764 525 764 524 750 c 2,59,-1
 513 643 l 1,60,-1
 518 643 l 1,61,-1
 518 599 l 1,62,-1
 523 552 l 1,63,-1
 527 516 l 1,64,-1
 545 435 l 2,65,66
 557 388 557 388 574.5 341.5 c 128,-1,67
 592 295 592 295 615 251 c 0,68,69
 630 223 630 223 643 201.5 c 128,-1,70
 656 180 656 180 675 155 c 1,71,-1
 675 150 l 2,5,6
EndSplineSet
EndChar

StartChar: arabicindicdigitseven
Encoding: 1639 1639 56
Width: 919
Flags: W
LayerCount: 2
Fore
SplineSet
814 763 m 1,0,1
 800 749 800 749 776 715.5 c 128,-1,2
 752 682 752 682 720 628 c 0,3,4
 691 579 691 579 661.5 514.5 c 128,-1,5
 632 450 632 450 601 369 c 2,6,-1
 568 271 l 1,7,-1
 510 87 l 2,8,9
 478 -11 478 -11 466 -15 c 1,10,11
 453 -15 453 -15 428 73 c 0,12,13
 416 119 416 119 404 158.5 c 128,-1,14
 392 198 392 198 379 234 c 0,15,16
 368 267 368 267 355.5 297 c 128,-1,17
 343 327 343 327 329 355 c 2,18,-1
 289 442 l 2,19,20
 278 463 278 463 269 480.5 c 128,-1,21
 260 498 260 498 250 514 c 0,22,23
 232 546 232 546 212 576 c 128,-1,24
 192 606 192 606 170 634 c 1,25,-1
 170 635 l 1,26,-1
 119 692 l 1,27,-1
 100 710 l 1,28,-1
 126 784 l 2,29,30
 140 823 140 823 152 849.5 c 128,-1,31
 164 876 164 876 174 889 c 1,32,-1
 217 844 l 1,33,-1
 243 809 l 1,34,-1
 275 759 l 2,35,36
 286 742 286 742 296.5 721 c 128,-1,37
 307 700 307 700 320 674 c 2,38,-1
 418 438 l 1,39,-1
 479 279 l 1,40,-1
 501 279 l 1,41,-1
 544 409 l 1,42,-1
 569 484 l 1,43,-1
 598 562 l 1,44,-1
 626 633 l 1,45,-1
 655 698 l 2,46,47
 670 736 670 736 694.5 776 c 128,-1,48
 719 816 719 816 751 861 c 0,49,50
 770 887 770 887 780.5 901.5 c 128,-1,51
 791 916 791 916 796 921 c 1,52,53
 796 916 796 916 799 895 c 0,54,55
 802 875 802 875 814 763 c 1,0,1
EndSplineSet
EndChar

StartChar: arabicindicdigiteight
Encoding: 1640 1640 57
Width: 903
Flags: W
LayerCount: 2
Fore
SplineSet
793 104 m 2,0,1
 777 47 777 47 764 13.5 c 128,-1,2
 751 -20 751 -20 740 -34 c 1,3,-1
 697 13 l 2,4,5
 681 33 681 33 668 53.5 c 128,-1,6
 655 74 655 74 644 94 c 0,7,8
 637 105 637 105 625.5 127.5 c 128,-1,9
 614 150 614 150 597 186 c 2,10,-1
 558 273 l 1,11,-1
 501 417 l 1,12,-1
 441 573 l 1,13,-1
 419 573 l 1,14,-1
 394 500 l 1,15,-1
 350 382 l 1,16,-1
 315 293 l 1,17,-1
 263 171 l 2,18,19
 246 128 246 128 221.5 84 c 128,-1,20
 197 40 197 40 166 -5 c 0,21,22
 121 -70 121 -70 117 -71 c 1,23,24
 105 -62 105 -62 105 58 c 2,25,-1
 103 115 l 1,26,-1
 195 232 l 1,27,-1
 196 233 l 1,28,29
 223 281 223 281 252 343 c 128,-1,30
 281 405 281 405 313 486 c 2,31,-1
 386 703 l 2,32,33
 439 867 439 867 452 867 c 0,34,35
 469 867 469 867 495 780 c 0,36,37
 514 697 514 697 536 634 c 128,-1,38
 558 571 558 571 590 509 c 0,39,40
 625 431 625 431 655.5 372.5 c 128,-1,41
 686 314 686 314 712 276 c 2,42,-1
 806 152 l 1,43,-1
 793 104 l 2,0,1
EndSplineSet
EndChar

StartChar: arabicindicdigitnine
Encoding: 1641 1641 58
Width: 757
Flags: W
LayerCount: 2
Fore
SplineSet
420 579 m 1,0,1
 412 641 412 641 400 663 c 1,2,3
 374 739 374 739 321 752 c 1,4,-1
 317 752 l 2,5,6
 294 752 294 752 257 709 c 2,7,-1
 256 708 l 1,8,9
 225 665 225 665 225 642 c 1,10,11
 231 628 231 628 251.5 616.5 c 128,-1,12
 272 605 272 605 309 586 c 1,13,-1
 311 586 l 1,14,15
 380 562 380 562 398 562 c 2,16,-1
 400 562 l 1,17,-1
 410 564 l 1,18,-1
 420 579 l 1,0,1
660 111 m 2,19,20
 660 82 660 82 636 -5 c 0,21,22
 610 -95 610 -95 608 -97 c 1,23,24
 584 -92 584 -92 522 52 c 2,25,-1
 499 115 l 1,26,-1
 477 185 l 2,27,28
 469 217 469 217 461 258 c 128,-1,29
 453 299 453 299 445 350 c 1,30,-1
 434 360 l 1,31,-1
 419 363 l 1,32,-1
 370 369 l 2,33,34
 315 369 315 369 258 378 c 0,35,36
 201 388 201 388 154 434 c 1,37,-1
 153 434 l 1,38,39
 107 478 107 478 103 539 c 0,40,41
 103 593 103 593 126.5 657 c 128,-1,42
 150 721 150 721 198 794 c 0,43,44
 294 939 294 939 360 939 c 0,45,46
 427 939 427 939 476 842 c 0,47,48
 529 738 529 738 529 544 c 0,49,50
 529 450 529 450 544.5 368.5 c 128,-1,51
 560 287 560 287 595 217 c 0,52,53
 603 200 603 200 615 180.5 c 128,-1,54
 627 161 627 161 642 138 c 1,55,-1
 643 137 l 1,56,-1
 659 119 l 1,57,-1
 660 111 l 2,19,20
EndSplineSet
EndChar

StartChar: arabicpercentsign
Encoding: 1642 1642 59
Width: 567
Flags: W
LayerCount: 2
Fore
SplineSet
197 869 m 1,0,-1
 31 869 l 1,1,-1
 31 1049 l 1,2,-1
 197 1049 l 1,3,-1
 197 869 l 1,0,-1
520 1049 m 1,4,-1
 109 8 l 1,5,-1
 16 8 l 1,6,-1
 427 1049 l 1,7,-1
 520 1049 l 1,4,-1
508 -7 m 1,8,-1
 341 -7 l 1,9,-1
 341 172 l 1,10,-1
 508 172 l 1,11,-1
 508 -7 l 1,8,-1
EndSplineSet
EndChar

StartChar: arabicfivepointedstar
Encoding: 1645 1645 60
Width: 815
Flags: W
LayerCount: 2
Fore
SplineSet
765 1190 m 1,0,-1
 547 1029 l 1,1,-1
 629 770 l 1,2,-1
 408 928 l 1,3,-1
 187 770 l 1,4,-1
 269 1029 l 1,5,-1
 51 1190 l 1,6,-1
 322 1190 l 1,7,-1
 408 1450 l 1,8,-1
 494 1190 l 1,9,-1
 765 1190 l 1,0,-1
EndSplineSet
EndChar

StartChar: shaddawithdammatanisolated
Encoding: 64606 64606 62
Width: 482
Flags: W
LayerCount: 2
Fore
SplineSet
482 1788 m 0,0,1
 482 1779 482 1779 475 1769 c 1,2,3
 451 1775 451 1775 381 1800 c 1,4,5
 248 1730 248 1730 174 1730 c 0,6,7
 132 1730 132 1730 92 1743 c 1,8,9
 156 1777 156 1777 156 1818 c 0,10,11
 156 1872 156 1872 106 1872 c 1,12,13
 113 1872 113 1872 104 1870.5 c 128,-1,14
 95 1869 95 1869 70 1865 c 1,15,16
 94 1941 94 1941 141 1941 c 0,17,18
 166 1941 166 1941 184.5 1919 c 128,-1,19
 203 1897 203 1897 203 1865 c 0,20,21
 203 1841 203 1841 186 1792 c 1,22,23
 258 1800 258 1800 319 1837 c 1,24,25
 266 1873 266 1873 266 1915 c 0,26,27
 266 1951 266 1951 309 1988 c 0,28,29
 352 2027 352 2027 393 2027 c 0,30,31
 415 2027 415 2027 438 2003 c 0,32,33
 461 1977 461 1977 461 1953 c 0,34,35
 461 1925 461 1925 436 1874 c 1,36,37
 482 1846 482 1846 482 1788 c 0,0,1
455 1677 m 0,38,39
 455 1640 455 1640 447 1609 c 128,-1,40
 439 1578 439 1578 425 1556 c 128,-1,41
 411 1534 411 1534 391.5 1521.5 c 128,-1,42
 372 1509 372 1509 350 1509 c 0,43,44
 330 1509 330 1509 282 1532 c 2,45,-1
 278 1534 l 1,46,47
 233 1450 233 1450 174 1450 c 0,48,49
 94 1450 94 1450 94 1554 c 0,50,51
 94 1583 94 1583 117 1650 c 1,52,-1
 137 1652 l 1,53,54
 141 1552 141 1552 186 1552 c 0,55,56
 233 1552 233 1552 272 1687 c 1,57,-1
 291 1689 l 1,58,59
 307 1616 307 1616 356 1616 c 0,60,61
 407 1616 407 1616 430 1726 c 1,62,-1
 450 1726 l 1,63,64
 452 1715 452 1715 453.5 1703 c 128,-1,65
 455 1691 455 1691 455 1677 c 0,38,39
395 1941 m 0,66,67
 395 1982 395 1982 364 1982 c 0,68,69
 334 1982 334 1982 334 1958 c 256,70,71
 334 1934 334 1934 381 1902 c 1,72,73
 395 1928 395 1928 395 1941 c 0,66,67
EndSplineSet
Ligature2: "'liga' Standard Ligatures in Arabic lookup 7 subtable" shadda dammatan
AlternateSubs2: "'aalt' Access All Alternates in Latin lookup 1 subtable" shaddawithdammatanisolated shaddawithdammatanisolatedlow
EndChar

StartChar: shaddawithkasratanisolated
Encoding: 64607 64607 63
Width: 420
Flags: W
LayerCount: 2
Fore
SplineSet
420 1940 m 0,0,1
 420 1772 420 1772 316 1772 c 0,2,3
 280 1772 280 1772 252 1793 c 1,4,5
 244 1758 244 1758 213 1733 c 0,6,7
 181 1707 181 1707 148 1707 c 0,8,9
 66 1707 66 1707 66 1815 c 0,10,11
 66 1840 66 1840 88 1916 c 1,12,-1
 111 1920 l 1,13,14
 111 1809 111 1809 150 1809 c 0,15,16
 214 1809 214 1809 240 1971 c 1,17,-1
 258 1977 l 1,18,19
 281 1879 281 1879 316 1879 c 0,20,21
 374 1879 374 1879 383 2026 c 1,22,-1
 406 2036 l 1,23,24
 420 1975 420 1975 420 1940 c 0,0,1
412 1773 m 1,25,26
 397 1707 397 1707 353 1687 c 2,27,-1
 70 1560 l 1,28,29
 98 1633 98 1633 156 1659 c 2,30,-1
 412 1773 l 1,25,26
412 1656 m 1,31,32
 397 1594 397 1594 346 1572 c 2,33,-1
 70 1450 l 1,34,35
 90 1520 90 1520 142 1542 c 2,36,-1
 412 1656 l 1,31,32
EndSplineSet
Ligature2: "'liga' Standard Ligatures in Arabic lookup 7 subtable" shadda kasratan
AlternateSubs2: "'aalt' Access All Alternates in Latin lookup 1 subtable" shaddawithkasratanisolated shaddawithkasratanisolatedlow
EndChar

StartChar: shaddawithfathaisolated
Encoding: 64608 64608 64
Width: 414
Flags: W
LayerCount: 2
Fore
SplineSet
408 1845 m 1,0,1
 398 1784 398 1784 359 1769 c 2,2,-1
 64 1653 l 1,3,4
 91 1722 91 1722 150 1745 c 2,5,-1
 408 1845 l 1,0,1
414 1673 m 0,6,7
 414 1638 414 1638 406 1608.5 c 128,-1,8
 398 1579 398 1579 384 1557 c 128,-1,9
 370 1535 370 1535 350.5 1523 c 128,-1,10
 331 1511 331 1511 308 1511 c 0,11,12
 290 1511 290 1511 246 1534 c 2,13,-1
 242 1536 l 1,14,15
 204 1450 204 1450 138 1450 c 0,16,17
 60 1450 60 1450 60 1548 c 1,18,19
 60 1543 60 1543 66 1609 c 1,20,-1
 95 1628 l 1,21,22
 105 1550 105 1550 148 1550 c 0,23,24
 203 1550 203 1550 236 1683 c 1,25,-1
 258 1689 l 1,26,27
 283 1616 283 1616 316 1616 c 0,28,29
 373 1616 373 1616 381 1738 c 1,30,-1
 408 1747 l 1,31,32
 414 1714 414 1714 414 1673 c 0,6,7
EndSplineSet
Ligature2: "'liga' Standard Ligatures in Arabic lookup 7 subtable" shadda fatha
AlternateSubs2: "'aalt' Access All Alternates in Latin lookup 1 subtable" shaddawithfathaisolated shaddawithfathaisolatedlow
EndChar

StartChar: shaddawithdammaisolated
Encoding: 64609 64609 65
Width: 424
Flags: W
LayerCount: 2
Fore
SplineSet
424 1763 m 1,0,1
 381 1769 381 1769 314 1792 c 1,2,3
 192 1694 192 1694 129 1694 c 0,4,5
 107 1694 107 1694 64 1714 c 1,6,7
 130 1736 130 1736 182.5 1760 c 128,-1,8
 235 1784 235 1784 273 1812 c 1,9,10
 224 1849 224 1849 224 1896 c 0,11,12
 224 1938 224 1938 262 1979 c 0,13,14
 301 2019 301 2019 344 2019 c 0,15,16
 366 2019 366 2019 392 1995 c 0,17,18
 418 1972 418 1972 418 1952 c 0,19,20
 418 1907 418 1907 382 1864 c 1,21,22
 390 1860 390 1860 399 1854.5 c 128,-1,23
 408 1849 408 1849 417 1842 c 0,24,25
 424 1835 424 1835 424 1800 c 2,26,-1
 424 1763 l 1,0,1
418 1720 m 1,27,28
 418 1505 418 1505 310 1505 c 0,29,30
 268 1505 268 1505 240 1530 c 1,31,32
 208 1450 208 1450 136 1450 c 0,33,34
 58 1450 58 1450 58 1548 c 0,35,36
 58 1592 58 1592 80 1632 c 1,37,-1
 101 1634 l 1,38,39
 107 1552 107 1552 148 1552 c 0,40,41
 194 1552 194 1552 236 1671 c 1,42,-1
 260 1677 l 1,43,44
 272 1610 272 1610 314 1610 c 0,45,46
 370 1610 370 1610 394 1714 c 1,47,-1
 418 1720 l 1,27,28
353 1927 m 0,48,49
 353 1976 353 1976 310 1976 c 0,50,51
 285 1976 285 1976 285 1946 c 0,52,53
 285 1922 285 1922 344 1884 c 1,54,55
 353 1908 353 1908 353 1927 c 0,48,49
EndSplineSet
Ligature2: "'liga' Standard Ligatures in Arabic lookup 7 subtable" shadda damma
AlternateSubs2: "'aalt' Access All Alternates in Latin lookup 1 subtable" shaddawithdammaisolated shaddawithdammaisolatedlow
EndChar

StartChar: shaddawithkasraisolated
Encoding: 64610 64610 66
Width: 420
Flags: W
LayerCount: 2
Fore
SplineSet
420 1830 m 0,0,1
 420 1662 420 1662 316 1662 c 0,2,3
 280 1662 280 1662 252 1683 c 1,4,5
 244 1648 244 1648 213 1623 c 0,6,7
 181 1597 181 1597 148 1597 c 0,8,9
 66 1597 66 1597 66 1705 c 0,10,11
 66 1730 66 1730 88 1806 c 1,12,-1
 111 1810 l 1,13,14
 111 1699 111 1699 150 1699 c 0,15,16
 214 1699 214 1699 240 1861 c 1,17,-1
 258 1867 l 1,18,19
 281 1769 281 1769 316 1769 c 0,20,21
 374 1769 374 1769 383 1916 c 1,22,-1
 406 1926 l 1,23,24
 420 1865 420 1865 420 1830 c 0,0,1
412 1663 m 1,25,26
 397 1597 397 1597 353 1577 c 2,27,-1
 70 1450 l 1,28,29
 98 1523 98 1523 156 1549 c 2,30,-1
 412 1663 l 1,25,26
EndSplineSet
Ligature2: "'liga' Standard Ligatures in Arabic lookup 7 subtable" shadda kasra
AlternateSubs2: "'aalt' Access All Alternates in Latin lookup 1 subtable" shaddawithkasraisolated shaddawithkasraisolatedlow
EndChar

StartChar: shaddawithfathamedial
Encoding: 64754 64754 67
Width: 1284
Flags: W
LayerCount: 2
Fore
SplineSet
807 1552 m 1,0,1
 807 1486 807 1486 772 1466 c 2,2,-1
 469 1294 l 1,3,4
 472 1332 472 1332 483 1353 c 0,5,6
 495 1373 495 1373 535 1395 c 2,7,-1
 807 1552 l 1,0,1
819 1263 m 0,8,9
 819 1095 819 1095 715 1095 c 0,10,11
 679 1095 679 1095 651 1116 c 1,12,13
 643 1081 643 1081 612 1056 c 0,14,15
 580 1030 580 1030 547 1030 c 0,16,17
 465 1030 465 1030 465 1138 c 0,18,19
 465 1163 465 1163 487 1239 c 1,20,-1
 510 1243 l 1,21,22
 510 1132 510 1132 549 1132 c 0,23,24
 613 1132 613 1132 639 1294 c 1,25,-1
 657 1300 l 1,26,27
 680 1202 680 1202 715 1202 c 0,28,29
 773 1202 773 1202 782 1349 c 1,30,-1
 805 1359 l 1,31,32
 819 1298 819 1298 819 1263 c 0,8,9
1354 129 m 1,33,-1
 0 129 l 1,34,-1
 0 250 l 1,35,-1
 1354 250 l 1,36,-1
 1354 129 l 1,33,-1
EndSplineSet
Ligature2: "'liga' Standard Ligatures in Arabic lookup 6 subtable" tatweel shadda fatha
EndChar

StartChar: shaddawithdammamedial
Encoding: 64755 64755 68
Width: 1284
Flags: W
LayerCount: 2
Fore
SplineSet
813 1503 m 1,0,-1
 805 1404 l 1,1,-1
 725 1456 l 1,2,3
 605 1312 605 1312 528 1312 c 0,4,5
 509 1312 509 1312 469 1324 c 1,6,7
 571 1381 571 1381 682 1480 c 1,8,9
 621 1525 621 1525 621 1570 c 0,10,11
 621 1630 621 1630 666 1695 c 0,12,13
 696 1738 696 1738 737 1738 c 0,14,15
 805 1738 805 1738 805 1650 c 0,16,17
 805 1599 805 1599 774 1533 c 1,18,19
 787 1522 787 1522 813 1503 c 1,0,-1
819 1263 m 0,20,21
 819 1095 819 1095 715 1095 c 0,22,23
 679 1095 679 1095 651 1116 c 1,24,25
 643 1081 643 1081 612 1056 c 0,26,27
 580 1030 580 1030 547 1030 c 0,28,29
 465 1030 465 1030 465 1138 c 0,30,31
 465 1163 465 1163 487 1239 c 1,32,-1
 510 1243 l 1,33,34
 510 1132 510 1132 549 1132 c 0,35,36
 613 1132 613 1132 639 1294 c 1,37,-1
 657 1300 l 1,38,39
 680 1202 680 1202 715 1202 c 0,40,41
 773 1202 773 1202 782 1349 c 1,42,-1
 805 1359 l 1,43,44
 819 1298 819 1298 819 1263 c 0,20,21
743 1591 m 0,45,46
 743 1614 743 1614 727 1633 c 128,-1,47
 711 1652 711 1652 690 1652 c 0,48,49
 672 1652 672 1652 672 1632 c 0,50,51
 672 1601 672 1601 737 1557 c 1,52,53
 743 1576 743 1576 743 1591 c 0,45,46
1354 129 m 1,54,-1
 0 129 l 1,55,-1
 0 250 l 1,56,-1
 1354 250 l 1,57,-1
 1354 129 l 1,54,-1
EndSplineSet
LCarets2: 2 0 0 
Ligature2: "'liga' Standard Ligatures in Arabic lookup 6 subtable" tatweel shadda damma
EndChar

StartChar: shaddawithkasramedial
Encoding: 64756 64756 69
Width: 1284
Flags: W
LayerCount: 2
Fore
SplineSet
819 1491 m 0,0,1
 819 1323 819 1323 715 1323 c 0,2,3
 679 1323 679 1323 651 1344 c 1,4,5
 643 1309 643 1309 612 1284 c 0,6,7
 580 1258 580 1258 547 1258 c 0,8,9
 465 1258 465 1258 465 1366 c 0,10,11
 465 1391 465 1391 487 1467 c 1,12,-1
 510 1471 l 1,13,14
 510 1360 510 1360 549 1360 c 0,15,16
 613 1360 613 1360 639 1522 c 1,17,-1
 657 1528 l 1,18,19
 680 1430 680 1430 715 1430 c 0,20,21
 773 1430 773 1430 782 1577 c 1,22,-1
 805 1587 l 1,23,24
 819 1526 819 1526 819 1491 c 0,0,1
807 1288 m 1,25,26
 807 1222 807 1222 772 1202 c 2,27,-1
 469 1030 l 1,28,29
 472 1068 472 1068 483 1089 c 0,30,31
 495 1109 495 1109 535 1131 c 2,32,-1
 807 1288 l 1,25,26
1354 129 m 1,33,-1
 0 129 l 1,34,-1
 0 250 l 1,35,-1
 1354 250 l 1,36,-1
 1354 129 l 1,33,-1
EndSplineSet
Ligature2: "'liga' Standard Ligatures in Arabic lookup 6 subtable" tatweel shadda kasra
EndChar

StartChar: ornateleftparenthesis
Encoding: 64830 64830 70
Width: 571
Flags: W
LayerCount: 2
Fore
SplineSet
459 -284 m 1,0,-1
 140 -284 l 1,1,-1
 140 1181 l 1,2,-1
 459 1181 l 1,3,-1
 459 1128 l 1,4,-1
 251 1128 l 1,5,-1
 251 -232 l 1,6,-1
 459 -232 l 1,7,-1
 459 -284 l 1,0,-1
EndSplineSet
EndChar

StartChar: ornaterightparenthesis
Encoding: 64831 64831 71
Width: 614
Flags: W
LayerCount: 2
Fore
SplineSet
141 1182 m 1,0,-1
 460 1182 l 1,1,-1
 460 -283 l 1,2,-1
 141 -283 l 1,3,-1
 141 -231 l 1,4,-1
 349 -231 l 1,5,-1
 349 1129 l 1,6,-1
 141 1129 l 1,7,-1
 141 1182 l 1,0,-1
EndSplineSet
EndChar

StartChar: allahisolated
Encoding: 65010 65010 72
Width: 1557
Flags: W
LayerCount: 2
Fore
SplineSet
440 673 m 1,0,-1
 441 673 l 1,1,-1
 440 672 l 1,2,-1
 440 673 l 1,0,-1
439 672 m 1,3,-1
 440 672 l 1,4,-1
 439 672 l 1,3,-1
1030 1437 m 1,5,-1
 1029 1414 l 1,6,-1
 1029 1413 l 2,7,8
 1029 1400 1029 1400 1026 1390 c 2,9,-1
 1025 1387 l 1,10,11
 1022 1363 1022 1363 1017 1351 c 1,12,13
 1017 1366 1017 1366 1020 1374 c 1,14,-1
 1021 1379 l 1,15,16
 1021 1410 1021 1410 1012 1442 c 2,17,-1
 997 1502 l 1,18,-1
 1019 1535 l 1,19,-1
 1020 1536 l 1,20,21
 1020 1523 1020 1523 1025 1515 c 1,22,-1
 1028 1502 l 1,23,-1
 1032 1477 l 1,24,-1
 1030 1437 l 1,5,-1
1026 1128 m 1,25,-1
 1011 1123 l 1,26,-1
 1001 1107 l 2,27,28
 997 1100 997 1100 987 1091 c 1,29,30
 964 1076 964 1076 936 1076 c 0,31,32
 914 1076 914 1076 901 1092 c 1,33,34
 891 1111 891 1111 891 1143 c 2,35,-1
 891 1151 l 1,36,-1
 891 1163 l 2,37,38
 891 1167 891 1167 891.5 1170 c 128,-1,39
 892 1173 892 1173 893 1177 c 2,40,-1
 901 1210 l 2,41,42
 905 1222 905 1222 908.5 1229.5 c 128,-1,43
 912 1237 912 1237 914 1241 c 1,44,-1
 913 1219 l 1,45,-1
 906 1170 l 1,46,-1
 906 1168 l 2,47,48
 906 1141 906 1141 914 1133 c 1,49,50
 925 1116 925 1116 959 1116 c 2,51,-1
 961 1116 l 1,52,53
 985 1120 985 1120 992.5 1125.5 c 128,-1,54
 1000 1131 1000 1131 1010 1145 c 1,55,-1
 1012 1154 l 1,56,-1
 1006 1192 l 1,57,-1
 1002 1227 l 1,58,-1
 1005 1240 l 1,59,-1
 1014 1252 l 1,60,-1
 1014 1251 l 2,61,62
 1014 1220 1014 1220 1017 1208 c 1,63,-1
 1018 1206 l 1,64,-1
 1028 1185 l 1,65,-1
 1029 1183 l 1,66,67
 1051 1155 1051 1155 1097 1155 c 1,68,-1
 1110 1169 l 1,69,-1
 1107 1199 l 1,70,-1
 1092 1242 l 1,71,-1
 1111 1266 l 1,72,73
 1111 1261 1111 1261 1112 1260 c 1,74,-1
 1112 1259 l 1,75,-1
 1117 1235 l 1,76,-1
 1118 1214 l 1,77,-1
 1118 1205 l 1,78,-1
 1116 1190 l 1,79,-1
 1116 1189 l 1,80,-1
 1115 1169 l 1,81,-1
 1115 1168 l 2,82,83
 1115 1152 1115 1152 1100 1134 c 0,84,85
 1089 1117 1089 1117 1076 1117 c 2,86,-1
 1047 1120 l 1,87,-1
 1026 1128 l 1,25,-1
490 268 m 1,88,-1
 488 291 l 1,89,-1
 458 540 l 1,90,-1
 439 549 l 1,91,-1
 429 543 l 2,92,93
 418 536 418 536 404.5 516 c 128,-1,94
 391 496 391 496 372 464 c 2,95,-1
 361 444 l 1,96,-1
 355 436 l 1,97,98
 294 418 294 418 252 389 c 128,-1,99
 210 360 210 360 172 315 c 1,100,-1
 178 296 l 1,101,-1
 219 284 l 1,102,-1
 220 283 l 1,103,-1
 312 264 l 1,104,-1
 351 259 l 1,105,-1
 352 259 l 1,106,-1
 392 257 l 1,107,-1
 427 257 l 2,108,109
 439 257 439 257 446 256.5 c 128,-1,110
 453 256 453 256 455 256 c 1,111,-1
 459 255 l 1,112,-1
 478 255 l 1,113,-1
 490 268 l 1,88,-1
1488 327 m 1,114,115
 1488 268 1488 268 1455 163 c 0,116,117
 1438 109 1438 109 1420 74 c 128,-1,118
 1402 39 1402 39 1380 20 c 1,119,120
 1320 -8 1320 -8 1229 -8 c 0,121,122
 1177 -8 1177 -8 1128 6 c 128,-1,123
 1079 20 1079 20 1047 56 c 2,124,-1
 1029 78 l 1,125,-1
 1007 114 l 1,126,-1
 984 111 l 1,127,128
 974 67 974 67 917 33 c 0,129,130
 887 16 887 16 863.5 8 c 128,-1,131
 840 0 840 0 825 0 c 2,132,-1
 624 0 l 2,133,134
 570 0 570 0 533 75 c 0,135,136
 518 112 518 112 500 203 c 2,137,-1
 498 217 l 1,138,-1
 481 226 l 1,139,-1
 469 221 l 1,140,-1
 468 220 l 1,141,142
 444 207 444 207 395 117 c 0,143,144
 366 64 366 64 348 64 c 1,145,-1
 338 66 l 1,146,-1
 280 80 l 1,147,-1
 279 80 l 1,148,149
 191 100 191 100 192 100 c 1,150,-1
 189 101 l 1,151,-1
 92 119 l 1,152,-1
 23 131 l 1,153,154
 30 156 30 156 42.5 189 c 128,-1,155
 55 222 55 222 72 264 c 1,156,-1
 72 265 l 1,157,158
 94 322 94 322 113 357 c 128,-1,159
 132 392 132 392 148 407 c 1,160,161
 153 410 153 410 189.5 431 c 128,-1,162
 226 452 226 452 298 494 c 0,163,164
 418 560 418 560 434 573 c 1,165,-1
 438 582 l 1,166,-1
 437 614 l 2,167,168
 437 625 437 625 435 633 c 2,169,170
 435 644 435 644 430 654 c 1,171,-1
 430 655 l 1,172,-1
 433 661 l 1,173,-1
 441 673 l 1,174,-1
 459 697 l 1,175,-1
 485 727 l 1,176,-1
 486 728 l 1,177,-1
 525 784 l 1,178,-1
 549 594 l 2,179,180
 586 239 586 239 593 227 c 1,181,-1
 594 226 l 1,182,183
 610 198 610 198 631 190 c 1,184,-1
 632 189 l 1,185,186
 652 184 652 184 677 184 c 2,187,-1
 707 183 l 1,188,-1
 752 180 l 1,189,-1
 753 180 l 1,190,-1
 811 179 l 2,191,192
 843 179 843 179 875 186 c 128,-1,193
 907 193 907 193 936 207 c 2,194,-1
 938 208 l 1,195,-1
 976 237 l 2,196,197
 987 245 987 245 987 270 c 0,198,199
 987 303 987 303 980.5 357 c 128,-1,200
 974 411 974 411 961 486 c 2,201,-1
 931 658 l 1,202,-1
 916 740 l 1,203,-1
 907 794 l 2,204,205
 906 804 906 804 904 812 c 128,-1,206
 902 820 902 820 897 840 c 1,207,-1
 921 882 l 1,208,-1
 959 940 l 2,209,210
 1022 1037 1022 1037 1028 1039 c 1,211,-1
 1097 266 l 1,212,-1
 1100 259 l 1,213,214
 1133 225 1133 225 1183 198 c 1,215,-1
 1184 198 l 1,216,217
 1207 188 1207 188 1232 183.5 c 128,-1,218
 1257 179 1257 179 1281 179 c 2,219,-1
 1316 180 l 2,220,221
 1325 180 1325 180 1336.5 183 c 128,-1,222
 1348 186 1348 186 1359.5 193 c 128,-1,223
 1371 200 1371 200 1382 211.5 c 128,-1,224
 1393 223 1393 223 1400 239 c 1,225,-1
 1401 247 l 1,226,-1
 1274 686 l 1,227,-1
 1324 797 l 1,228,-1
 1357 860 l 2,229,230
 1377 894 1377 894 1381 898 c 1,231,-1
 1425 695 l 1,232,-1
 1465 492 l 1,233,-1
 1478 408 l 1,234,-1
 1488 327 l 1,235,-1
 1488 327 l 1,114,115
EndSplineSet
Ligature2: "'liga' Standard Ligatures in Arabic lookup 6 subtable" laminitial lammedial hehfinal
EndChar

StartChar: fathatanisolated
Encoding: 65136 65136 73
Width: 408
Flags: W
LayerCount: 2
Fore
SplineSet
408 2054 m 1,0,1
 408 1988 408 1988 373 1968 c 2,2,-1
 70 1796 l 1,3,4
 73 1834 73 1834 84 1855 c 0,5,6
 96 1875 96 1875 136 1897 c 2,7,-1
 408 2054 l 1,0,1
408 1908 m 1,8,9
 408 1842 408 1842 373 1822 c 2,10,-1
 70 1650 l 1,11,12
 73 1688 73 1688 84 1709 c 0,13,14
 96 1729 96 1729 136 1751 c 2,15,-1
 408 1908 l 1,8,9
EndSplineSet
EndChar

StartChar: tatweelwithfathatanabove
Encoding: 65137 65137 74
Width: 1284
Flags: W
LayerCount: 2
Fore
SplineSet
811 1434 m 1,0,1
 811 1368 811 1368 776 1348 c 2,2,-1
 473 1176 l 1,3,4
 476 1214 476 1214 487 1235 c 0,5,6
 499 1255 499 1255 539 1277 c 2,7,-1
 811 1434 l 1,0,1
811 1288 m 1,8,9
 811 1222 811 1222 776 1202 c 2,10,-1
 473 1030 l 1,11,12
 476 1068 476 1068 487 1089 c 0,13,14
 499 1109 499 1109 539 1131 c 2,15,-1
 811 1288 l 1,8,9
1354 129 m 1,16,-1
 0 129 l 1,17,-1
 0 250 l 1,18,-1
 1354 250 l 1,19,-1
 1354 129 l 1,16,-1
EndSplineSet
Ligature2: "'liga' Standard Ligatures in Arabic lookup 6 subtable" tatweel fathatan
EndChar

StartChar: dammatanisolated
Encoding: 65138 65138 75
Width: 463
Flags: W
LayerCount: 2
Fore
SplineSet
463 1582 m 0,0,1
 463 1565 463 1565 462.5 1550 c 128,-1,2
 462 1535 462 1535 461 1523 c 1,3,4
 441 1534 441 1534 418 1548.5 c 128,-1,5
 395 1563 395 1563 369 1582 c 1,6,7
 243 1453 243 1453 129 1437 c 1,8,9
 172 1526 172 1526 172 1566 c 0,10,11
 172 1621 172 1621 123 1621 c 0,12,13
 81 1621 81 1621 74 1545 c 1,14,15
 64 1574 64 1574 64 1597 c 256,16,17
 64 1620 64 1620 70.5 1640 c 128,-1,18
 77 1660 77 1660 88.5 1675 c 128,-1,19
 100 1690 100 1690 115 1698.5 c 128,-1,20
 130 1707 130 1707 148 1707 c 0,21,22
 215 1707 215 1707 215 1607 c 2,23,-1
 209 1515 l 1,24,25
 274 1540 274 1540 333 1605 c 1,26,27
 267 1648 267 1648 267 1699 c 0,28,29
 267 1752 267 1752 307 1798 c 0,30,31
 347 1846 347 1846 389 1846 c 0,32,33
 411 1846 411 1846 434 1819 c 0,34,35
 457 1793 457 1793 457 1766 c 0,36,37
 457 1736 457 1736 446 1708 c 128,-1,38
 424 1652 l 1,39,40
 463 1622 463 1622 463 1582 c 0,0,1
387 1726 m 0,41,42
 387 1779 387 1779 346 1779 c 0,43,44
 320 1779 320 1779 320 1756 c 0,45,46
 320 1730 320 1730 383 1687 c 1,47,48
 387 1696 387 1696 387 1726 c 0,41,42
EndSplineSet
EndChar

StartChar: kasratanisolated
Encoding: 65140 65140 76
Width: 408
Flags: W
LayerCount: 2
Fore
SplineSet
408 -620 m 1,0,1
 408 -686 408 -686 373 -706 c 2,2,-1
 70 -878 l 1,3,4
 73 -840 73 -840 84 -818 c 1,5,6
 97 -800 97 -800 136 -777 c 2,7,-1
 408 -620 l 1,0,1
408 -767 m 1,8,9
 408 -833 408 -833 373 -853 c 2,10,-1
 70 -1025 l 1,11,12
 73 -987 73 -987 84 -965 c 1,13,14
 97 -947 97 -947 136 -924 c 2,15,-1
 408 -767 l 1,8,9
EndSplineSet
EndChar

StartChar: fathaisolated
Encoding: 65142 65142 77
Width: 408
Flags: W
LayerCount: 2
Fore
SplineSet
408 1708 m 1,0,1
 408 1642 408 1642 373 1622 c 2,2,-1
 70 1450 l 1,3,4
 73 1488 73 1488 84 1509 c 0,5,6
 96 1529 96 1529 136 1551 c 2,7,-1
 408 1708 l 1,0,1
EndSplineSet
EndChar

StartChar: fathamedial
Encoding: 65143 65143 78
Width: 1284
Flags: W
LayerCount: 2
Fore
SplineSet
811 1288 m 1,0,1
 811 1222 811 1222 776 1202 c 2,2,-1
 473 1030 l 1,3,4
 476 1068 476 1068 487 1089 c 0,5,6
 499 1109 499 1109 539 1131 c 2,7,-1
 811 1288 l 1,0,1
1354 129 m 1,8,-1
 0 129 l 1,9,-1
 0 250 l 1,10,-1
 1354 250 l 1,11,-1
 1354 129 l 1,8,-1
EndSplineSet
Ligature2: "'liga' Standard Ligatures in Arabic lookup 6 subtable" tatweel fatha
EndChar

StartChar: dammaisolated
Encoding: 65144 65144 79
Width: 414
Flags: W
LayerCount: 2
Fore
SplineSet
414 1641 m 1,0,-1
 406 1542 l 1,1,-1
 326 1594 l 1,2,3
 206 1450 206 1450 129 1450 c 0,4,5
 110 1450 110 1450 70 1462 c 1,6,7
 172 1519 172 1519 283 1618 c 1,8,9
 222 1663 222 1663 222 1708 c 0,10,11
 222 1768 222 1768 267 1833 c 0,12,13
 297 1876 297 1876 338 1876 c 0,14,15
 406 1876 406 1876 406 1788 c 0,16,17
 406 1737 406 1737 375 1671 c 1,18,19
 388 1660 388 1660 414 1641 c 1,0,-1
344 1729 m 0,20,21
 344 1752 344 1752 328 1771 c 128,-1,22
 312 1790 312 1790 291 1790 c 0,23,24
 273 1790 273 1790 273 1770 c 0,25,26
 273 1739 273 1739 338 1695 c 1,27,28
 344 1714 344 1714 344 1729 c 0,20,21
EndSplineSet
EndChar

StartChar: dammamedial
Encoding: 65145 65145 80
Width: 1284
Flags: W
LayerCount: 2
Fore
SplineSet
814 1221 m 1,0,-1
 806 1122 l 1,1,-1
 726 1174 l 1,2,3
 606 1030 606 1030 529 1030 c 0,4,5
 510 1030 510 1030 470 1042 c 1,6,7
 572 1099 572 1099 683 1198 c 1,8,9
 622 1243 622 1243 622 1288 c 0,10,11
 622 1348 622 1348 667 1413 c 0,12,13
 697 1456 697 1456 738 1456 c 0,14,15
 806 1456 806 1456 806 1368 c 0,16,17
 806 1317 806 1317 775 1251 c 1,18,19
 788 1240 788 1240 814 1221 c 1,0,-1
744 1309 m 0,20,21
 744 1332 744 1332 728 1351 c 128,-1,22
 712 1370 712 1370 691 1370 c 0,23,24
 673 1370 673 1370 673 1350 c 0,25,26
 673 1319 673 1319 738 1275 c 1,27,28
 744 1294 744 1294 744 1309 c 0,20,21
1354 129 m 1,29,-1
 0 129 l 1,30,-1
 0 250 l 1,31,-1
 1354 250 l 1,32,-1
 1354 129 l 1,29,-1
EndSplineSet
Ligature2: "'liga' Standard Ligatures in Arabic lookup 6 subtable" tatweel damma
EndChar

StartChar: kasraisolated
Encoding: 65146 65146 81
Width: 408
Flags: W
LayerCount: 2
Fore
SplineSet
408 -620 m 1,0,1
 408 -686 408 -686 373 -706 c 2,2,-1
 70 -878 l 1,3,4
 73 -840 73 -840 84 -818 c 1,5,6
 97 -800 97 -800 136 -777 c 2,7,-1
 408 -620 l 1,0,1
EndSplineSet
EndChar

StartChar: kasramedial
Encoding: 65147 65147 82
Width: 1284
Flags: W
LayerCount: 2
Fore
SplineSet
811 -71 m 1,0,1
 811 -137 811 -137 776 -157 c 2,2,-1
 473 -329 l 1,3,4
 476 -291 476 -291 487 -269 c 1,5,6
 500 -251 500 -251 539 -228 c 2,7,-1
 811 -71 l 1,0,1
1354 129 m 1,8,-1
 0 129 l 1,9,-1
 0 250 l 1,10,-1
 1354 250 l 1,11,-1
 1354 129 l 1,8,-1
EndSplineSet
Ligature2: "'liga' Standard Ligatures in Arabic lookup 6 subtable" tatweel kasra
EndChar

StartChar: shaddaisolated
Encoding: 65148 65148 83
Width: 420
Flags: W
LayerCount: 2
Fore
SplineSet
420 1683 m 0,0,1
 420 1515 420 1515 316 1515 c 0,2,3
 280 1515 280 1515 252 1536 c 1,4,5
 244 1501 244 1501 213 1476 c 0,6,7
 181 1450 181 1450 148 1450 c 0,8,9
 66 1450 66 1450 66 1558 c 0,10,11
 66 1583 66 1583 88 1659 c 1,12,-1
 111 1663 l 1,13,14
 111 1552 111 1552 150 1552 c 0,15,16
 214 1552 214 1552 240 1714 c 1,17,-1
 258 1720 l 1,18,19
 281 1622 281 1622 316 1622 c 0,20,21
 374 1622 374 1622 383 1769 c 1,22,-1
 406 1779 l 1,23,24
 420 1718 420 1718 420 1683 c 0,0,1
EndSplineSet
EndChar

StartChar: shaddamedial
Encoding: 65149 65149 84
Width: 1284
Flags: W
LayerCount: 2
Fore
SplineSet
819 1263 m 0,0,1
 819 1095 819 1095 715 1095 c 0,2,3
 679 1095 679 1095 651 1116 c 1,4,5
 643 1081 643 1081 612 1056 c 0,6,7
 580 1030 580 1030 547 1030 c 0,8,9
 465 1030 465 1030 465 1138 c 0,10,11
 465 1163 465 1163 487 1239 c 1,12,-1
 510 1243 l 1,13,14
 510 1132 510 1132 549 1132 c 0,15,16
 613 1132 613 1132 639 1294 c 1,17,-1
 657 1300 l 1,18,19
 680 1202 680 1202 715 1202 c 0,20,21
 773 1202 773 1202 782 1349 c 1,22,-1
 805 1359 l 1,23,24
 819 1298 819 1298 819 1263 c 0,0,1
1354 129 m 1,25,-1
 0 129 l 1,26,-1
 0 250 l 1,27,-1
 1354 250 l 1,28,-1
 1354 129 l 1,25,-1
EndSplineSet
Ligature2: "'liga' Standard Ligatures in Arabic lookup 6 subtable" tatweel shadda
EndChar

StartChar: sukunisolated
Encoding: 65150 65150 85
Width: 332
Flags: W
LayerCount: 2
Fore
SplineSet
332 1614 m 0,0,1
 332 1549 332 1549 286 1500 c 0,2,3
 239 1450 239 1450 181 1450 c 0,4,5
 74 1450 74 1450 74 1571 c 0,6,7
 74 1655 74 1655 112 1708 c 0,8,9
 149 1762 149 1762 211 1762 c 0,10,11
 258 1762 258 1762 295 1716 c 0,12,13
 332 1673 332 1673 332 1614 c 0,0,1
277 1590 m 0,14,15
 277 1616 277 1616 234 1647 c 0,16,17
 193 1676 193 1676 166 1676 c 0,18,19
 107 1676 107 1676 107 1608 c 0,20,21
 107 1549 107 1549 199 1549 c 0,22,23
 277 1549 277 1549 277 1590 c 0,14,15
EndSplineSet
EndChar

StartChar: sukunmedial
Encoding: 65151 65151 86
Width: 1284
Flags: W
LayerCount: 2
Fore
SplineSet
771 1194 m 0,0,1
 771 1129 771 1129 725 1080 c 0,2,3
 678 1030 678 1030 620 1030 c 0,4,5
 513 1030 513 1030 513 1151 c 0,6,7
 513 1235 513 1235 551 1288 c 0,8,9
 588 1342 588 1342 650 1342 c 0,10,11
 697 1342 697 1342 734 1296 c 0,12,13
 771 1253 771 1253 771 1194 c 0,0,1
716 1170 m 0,14,15
 716 1196 716 1196 673 1227 c 0,16,17
 632 1256 632 1256 605 1256 c 0,18,19
 546 1256 546 1256 546 1188 c 0,20,21
 546 1129 546 1129 638 1129 c 0,22,23
 716 1129 716 1129 716 1170 c 0,14,15
1354 129 m 1,24,-1
 0 129 l 1,25,-1
 0 250 l 1,26,-1
 1354 250 l 1,27,-1
 1354 129 l 1,24,-1
EndSplineSet
Ligature2: "'liga' Standard Ligatures in Arabic lookup 6 subtable" tatweel sukun
EndChar

StartChar: hamzaisolated
Encoding: 65152 65152 87
Width: 767
Flags: W
AnchorPoint: "ArabicBelow" 383 -385 basechar 0
AnchorPoint: "ArabicAbove" 383 746 basechar 0
LayerCount: 2
Fore
SplineSet
574 40 m 1,0,1
 541 40 541 40 510.5 36.5 c 128,-1,2
 480 33 480 33 454 25 c 2,3,-1
 337 -4 l 2,4,5
 327 -6 327 -6 282.5 -32 c 128,-1,6
 238 -58 238 -58 157 -109 c 2,7,-1
 117 -127 l 1,8,-1
 104 -135 l 1,9,10
 104 -126 104 -126 148 -70 c 0,11,12
 169 -47 169 -47 197 -24.5 c 128,-1,13
 225 -2 225 -2 262 17 c 2,14,-1
 286 29 l 1,15,-1
 281 53 l 1,16,17
 170 67 170 67 158 72 c 1,18,-1
 157 73 l 1,19,20
 83 93 83 93 83 136 c 0,21,22
 83 249 83 249 173 362 c 0,23,24
 280 496 280 496 443 496 c 0,25,26
 478 496 478 496 513 469 c 0,27,28
 549 434 549 434 549 402 c 1,29,-1
 473 295 l 1,30,-1
 441 319 l 2,31,32
 412 338 412 338 380.5 348.5 c 128,-1,33
 349 359 349 359 333 359 c 0,34,35
 309 359 309 359 294 354.5 c 128,-1,36
 279 350 279 350 252 335 c 0,37,38
 196 309 196 309 196 267 c 0,39,40
 196 220 196 220 336 194 c 2,41,-1
 487 178 l 1,42,-1
 582 173 l 1,43,-1
 662 173 l 1,44,-1
 574 40 l 1,0,1
EndSplineSet
EndChar

StartChar: alefwithmaddaaboveisolated
Encoding: 65153 65153 88
Width: 430
Flags: W
AnchorPoint: "ArabicBelow" 215 -283 basechar 0
AnchorPoint: "ArabicAbove" 215 1281 basechar 0
LayerCount: 2
Fore
SplineSet
501 1028 m 1,0,1
 502 1029 502 1029 509 1031 c 1,2,-1
 473 989 l 1,3,4
 390 929 390 929 341 929 c 0,5,6
 291 929 291 929 254 939 c 2,7,-1
 229 949 l 1,8,-1
 192 971 l 1,9,-1
 175 966 l 1,10,11
 170 956 170 956 164 945 c 128,-1,12
 158 934 158 934 148 920 c 1,13,-1
 148 919 l 1,14,15
 135 901 135 901 130 896 c 1,16,-1
 174 989 l 1,17,-1
 195 1026 l 1,18,19
 203 1021 203 1021 217.5 1014.5 c 128,-1,20
 232 1008 232 1008 249 1000 c 2,21,-1
 301 982 l 2,22,23
 325 976 325 976 348 976 c 0,24,25
 395 976 395 976 500 1028 c 1,26,-1
 501 1028 l 1,27,-1
 501 1028 l 1,0,1
353 297 m 1,28,29
 353 169 353 169 318 67 c 0,30,31
 307 34 307 34 295.5 9 c 128,-1,32
 284 -16 284 -16 271 -33 c 1,33,-1
 199 620 l 2,34,35
 199 631 199 631 218 665 c 128,-1,36
 237 699 237 699 272 760 c 2,37,-1
 313 832 l 1,38,39
 315 820 315 820 317 804.5 c 128,-1,40
 319 789 319 789 322 766 c 128,-1,41
 325 743 325 743 328.5 710.5 c 128,-1,42
 332 678 332 678 337 631 c 2,43,-1
 353 465 l 1,44,-1
 353 297 l 1,45,-1
 353 297 l 1,28,29
EndSplineSet
EndChar

StartChar: alefwithmaddaabovefinal
Encoding: 65154 65154 89
Width: 473
Flags: W
AnchorPoint: "ArabicBelow" 236 -250 basechar 0
AnchorPoint: "ArabicAbove" 236 1448 basechar 0
LayerCount: 2
Fore
SplineSet
473 1194 m 0,0,1
 476 1195 476 1195 478.5 1196 c 128,-1,2
 481 1197 481 1197 483 1198 c 1,3,-1
 440 1149 l 1,4,5
 352 1082 352 1082 297 1082 c 2,6,-1
 238 1082 l 1,7,-1
 197 1092 l 2,8,9
 186 1095 186 1095 170 1104.5 c 128,-1,10
 154 1114 154 1114 131 1130 c 1,11,-1
 114 1126 l 1,12,-1
 86 1079 l 2,13,14
 71 1057 71 1057 56 1042 c 1,15,16
 61 1053 61 1053 69 1070.5 c 128,-1,17
 77 1088 77 1088 89 1114 c 2,18,-1
 133 1193 l 1,19,-1
 220 1156 l 2,20,21
 265 1140 265 1140 305 1140 c 0,22,23
 330 1140 330 1140 371.5 1153 c 128,-1,24
 413 1166 413 1166 473 1194 c 0,0,1
235 0 m 1,25,-1
 161 867 l 1,26,-1
 265 995 l 1,27,28
 265 950 265 950 274.5 848 c 128,-1,29
 284 746 284 746 301 583 c 0,30,31
 318 417 318 417 330 332.5 c 128,-1,32
 342 248 342 248 344 240 c 1,33,34
 345 229 345 229 359 206 c 0,35,36
 366 194 366 194 392 187 c 1,37,-1
 427 184 l 1,38,-1
 504 184 l 1,39,-1
 504 0 l 1,40,-1
 235 0 l 1,25,-1
EndSplineSet
EndChar

StartChar: alefwithhamzaaboveisolated
Encoding: 65155 65155 90
Width: 428
Flags: W
AnchorPoint: "ArabicBelow" 214 -283 basechar 0
AnchorPoint: "ArabicAbove" 214 1364 basechar 0
LayerCount: 2
Fore
SplineSet
365 929 m 1,0,-1
 315 924 l 2,1,2
 277 920 277 920 215 881 c 2,3,-1
 162 846 l 1,4,5
 161 848 161 848 161 852 c 0,6,7
 161 871 161 871 193 897 c 2,8,-1
 232 929 l 1,9,-1
 199 932 l 1,10,-1
 183 935 l 1,11,-1
 165 941 l 2,12,13
 136 949 136 949 136 964 c 0,14,15
 136 1005 136 1005 177 1056 c 0,16,17
 223 1114 223 1114 284 1114 c 0,18,19
 300 1114 300 1114 310 1104.5 c 128,-1,20
 320 1095 320 1095 324 1080 c 1,21,-1
 319 1066 l 2,22,23
 316 1057 316 1057 313 1054 c 1,24,25
 308 1043 308 1043 301 1035 c 1,26,27
 286 1065 286 1065 249 1065 c 0,28,29
 222 1065 222 1065 203 1055.5 c 128,-1,30
 184 1046 184 1046 175 1026 c 1,31,-1
 174 1018 l 2,32,33
 174 1002 174 1002 205 995 c 2,34,-1
 250 985 l 1,35,-1
 394 985 l 1,36,-1
 365 929 l 1,0,-1
356 297 m 0,37,38
 356 231 356 231 347.5 174.5 c 128,-1,39
 339 118 339 118 322 67 c 0,40,41
 301 5 301 5 272 -33 c 1,42,-1
 184 685 l 2,43,44
 184 691 184 691 196.5 716.5 c 128,-1,45
 209 742 209 742 237 787 c 2,46,-1
 305 896 l 1,47,-1
 325 734 l 2,48,49
 333 658 333 658 338.5 597 c 128,-1,50
 344 536 344 536 348 488 c 0,51,52
 352 441 352 441 354 393.5 c 128,-1,53
 356 346 356 346 356 297 c 0,37,38
EndSplineSet
EndChar

StartChar: alefwithhamzaabovefinal
Encoding: 65156 65156 91
Width: 483
Flags: W
AnchorPoint: "ArabicBelow" 241 -250 basechar 0
AnchorPoint: "ArabicAbove" 241 1502 basechar 0
LayerCount: 2
Fore
SplineSet
255 0 m 1,0,-1
 186 832 l 1,1,-1
 292 960 l 1,2,3
 292 866 292 866 325 565 c 0,4,5
 341 415 341 415 351 335 c 128,-1,6
 361 255 361 255 365 243 c 1,7,-1
 367 227 l 1,8,-1
 379 203 l 1,9,10
 387 195 387 195 412 187 c 1,11,-1
 446 184 l 1,12,-1
 506 184 l 1,13,-1
 506 0 l 1,14,-1
 255 0 l 1,0,-1
381 1050 m 1,15,-1
 327 1044 l 2,16,17
 284 1040 284 1040 217 997 c 2,18,-1
 159 959 l 1,19,20
 158 961 158 961 158 965 c 0,21,22
 158 983 158 983 193 1015 c 2,23,-1
 236 1050 l 1,24,-1
 200 1053 l 1,25,-1
 182 1056 l 1,26,-1
 163 1063 l 2,27,28
 131 1071 131 1071 131 1088 c 0,29,30
 131 1130 131 1130 175 1189 c 0,31,32
 227 1252 227 1252 293 1252 c 0,33,34
 310 1252 310 1252 321 1241.5 c 128,-1,35
 332 1231 332 1231 336 1215 c 1,36,-1
 331 1200 l 2,37,38
 328 1190 328 1190 324 1186 c 1,39,40
 318 1173 318 1173 311 1166 c 1,41,42
 294 1198 294 1198 254 1198 c 0,43,44
 193 1198 193 1198 174 1156 c 1,45,-1
 172 1147 l 1,46,47
 172 1129 172 1129 206 1122 c 2,48,-1
 256 1111 l 1,49,-1
 413 1111 l 1,50,-1
 381 1050 l 1,15,-1
EndSplineSet
EndChar

StartChar: wawwithhamzaaboveisolated
Encoding: 65157 65157 92
Width: 842
Flags: W
AnchorPoint: "ArabicBelow" 421 -678 basechar 0
AnchorPoint: "ArabicAbove" 421 1163 basechar 0
LayerCount: 2
Fore
SplineSet
673 256 m 1,0,1
 673 309 673 309 635 347 c 0,2,3
 595 385 595 385 553 385 c 0,4,5
 514 385 514 385 471 357 c 0,6,7
 451 343 451 343 439 325.5 c 128,-1,8
 427 308 427 308 423 298 c 0,9,10
 421 290 421 290 421 285 c 2,11,-1
 422 275 l 1,12,13
 425 264 425 264 457 238 c 1,14,15
 480 225 480 225 497.5 218.5 c 128,-1,16
 515 212 515 212 527.5 210 c 128,-1,17
 540 208 540 208 548 207.5 c 128,-1,18
 556 207 556 207 559 206 c 1,19,-1
 562 206 l 2,20,21
 569 206 569 206 581 206.5 c 128,-1,22
 593 207 593 207 609 212 c 0,23,24
 625 219 625 219 636.5 222.5 c 128,-1,25
 648 226 648 226 655.5 230 c 128,-1,26
 663 234 663 234 667 239.5 c 128,-1,27
 671 245 671 245 673 256 c 1,0,1
818 217 m 0,28,29
 818 114 818 114 795 9 c 128,-1,30
 772 -96 772 -96 724 -197 c 0,31,32
 616 -428 616 -428 468 -428 c 0,33,34
 438 -428 438 -428 407 -425 c 128,-1,35
 376 -422 376 -422 344 -417 c 0,36,37
 314 -412 314 -412 276.5 -402.5 c 128,-1,38
 239 -393 239 -393 191 -379 c 0,39,40
 11 -336 11 -336 11 -309 c 1,41,-1
 27 -309 l 1,42,-1
 54 -312 l 1,43,-1
 206 -342 l 1,44,-1
 256 -346 l 2,45,46
 284 -346 284 -346 309 -341 c 128,-1,47
 334 -336 334 -336 357 -325 c 0,48,49
 429 -295 429 -295 497.5 -244.5 c 128,-1,50
 566 -194 566 -194 626 -128 c 256,51,52
 686 -62 686 -62 720 1.5 c 128,-1,53
 754 65 754 65 754 119 c 0,54,55
 754 143 754 143 747 177 c 1,56,57
 745 182 745 182 741.5 192 c 128,-1,58
 738 202 738 202 733 216 c 1,59,-1
 711 216 l 1,60,-1
 702 188 l 2,61,62
 682 146 682 146 668 120.5 c 128,-1,63
 654 95 654 95 646 81 c 0,64,65
 607 27 607 27 502 27 c 0,66,67
 437 27 437 27 396 83 c 0,68,69
 391 91 391 91 386.5 102.5 c 128,-1,70
 382 114 382 114 380 122 c 0,71,72
 378 131 378 131 374.5 163 c 128,-1,73
 371 195 371 195 371 237 c 0,74,75
 371 299 371 299 468 440 c 0,76,77
 516 509 516 509 556 544 c 128,-1,78
 596 579 596 579 631 579 c 0,79,80
 680 579 680 579 748 459 c 0,81,82
 781 399 781 399 799.5 339.5 c 128,-1,83
 818 280 818 280 818 217 c 0,28,29
604 711 m 1,84,-1
 550 705 l 2,85,86
 507 701 507 701 440 658 c 2,87,-1
 382 620 l 1,88,89
 381 622 381 622 381 626 c 0,90,91
 381 644 381 644 416 676 c 2,92,-1
 459 711 l 1,93,-1
 423 714 l 1,94,-1
 405 717 l 1,95,-1
 386 724 l 2,96,97
 354 732 354 732 354 749 c 0,98,99
 354 791 354 791 398 850 c 0,100,101
 450 913 450 913 516 913 c 0,102,103
 533 913 533 913 544 902.5 c 128,-1,104
 555 892 555 892 559 876 c 1,105,-1
 554 861 l 2,106,107
 551 851 551 851 547 847 c 1,108,109
 541 834 541 834 534 827 c 1,110,111
 517 859 517 859 477 859 c 0,112,113
 416 859 416 859 397 817 c 1,114,-1
 395 808 l 1,115,116
 395 790 395 790 429 783 c 2,117,-1
 479 772 l 1,118,-1
 636 772 l 1,119,-1
 604 711 l 1,84,-1
EndSplineSet
EndChar

StartChar: wawwithhamzaabovefinal
Encoding: 65158 65158 93
Width: 826
Flags: W
AnchorPoint: "ArabicBelow" 413 -660 basechar 0
AnchorPoint: "ArabicAbove" 413 1192 basechar 0
LayerCount: 2
Fore
SplineSet
622 318 m 1,0,-1
 606 342 l 2,1,2
 571 396 571 396 523 396 c 0,3,4
 503 396 503 396 488 389 c 128,-1,5
 473 382 473 382 461.5 370.5 c 128,-1,6
 450 359 450 359 440 343.5 c 128,-1,7
 430 328 430 328 421 310 c 1,8,-1
 419 304 l 1,9,10
 419 259 419 259 470 222 c 1,11,-1
 471 222 l 1,12,13
 497 206 497 206 522 199 c 128,-1,14
 547 192 547 192 576 192 c 0,15,16
 632 192 632 192 651 226 c 1,17,-1
 652 236 l 1,18,-1
 634 294 l 1,19,-1
 622 318 l 1,0,-1
774 0 m 1,20,-1
 762 -1 l 1,21,22
 745 -73 745 -73 711.5 -136.5 c 128,-1,23
 678 -200 678 -200 627 -265 c 0,24,25
 512 -410 512 -410 404 -410 c 0,26,27
 372 -410 372 -410 316.5 -391.5 c 128,-1,28
 261 -373 261 -373 176 -337 c 0,29,30
 14 -266 14 -266 9 -240 c 1,31,32
 9 -242 9 -242 155 -283 c 0,33,34
 167 -285 167 -285 178 -286.5 c 128,-1,35
 189 -288 189 -288 200 -288 c 0,36,37
 274 -288 274 -288 339 -270 c 0,38,39
 371 -261 371 -261 407 -242 c 128,-1,40
 443 -223 443 -223 483 -193 c 0,41,42
 521 -165 521 -165 552.5 -139.5 c 128,-1,43
 584 -114 584 -114 608 -92 c 2,44,-1
 646 -53 l 1,45,-1
 647 -53 l 1,46,-1
 662 -37 l 1,47,-1
 678 0 l 1,48,-1
 639 0 l 2,49,50
 524 0 524 0 444 23 c 1,51,-1
 444 24 l 1,52,53
 331 56 331 56 331 143 c 0,54,55
 331 209 331 209 409 374 c 0,56,57
 503 575 503 575 595 575 c 0,58,59
 666 575 666 575 734 405 c 0,60,61
 786 273 786 273 786 210 c 2,62,-1
 786 184 l 1,63,-1
 844 184 l 1,64,-1
 844 0 l 1,65,-1
 774 0 l 1,20,-1
607 740 m 1,66,-1
 553 734 l 2,67,68
 510 730 510 730 443 687 c 2,69,-1
 385 649 l 1,70,71
 384 651 384 651 384 655 c 0,72,73
 384 673 384 673 419 705 c 2,74,-1
 462 740 l 1,75,-1
 426 743 l 1,76,-1
 408 746 l 1,77,-1
 389 753 l 2,78,79
 357 761 357 761 357 778 c 0,80,81
 357 820 357 820 401 879 c 0,82,83
 453 942 453 942 519 942 c 0,84,85
 536 942 536 942 547 931.5 c 128,-1,86
 558 921 558 921 562 905 c 1,87,-1
 557 890 l 2,88,89
 554 880 554 880 550 876 c 1,90,91
 544 863 544 863 537 856 c 1,92,93
 520 888 520 888 480 888 c 0,94,95
 419 888 419 888 400 846 c 1,96,-1
 398 837 l 1,97,98
 398 819 398 819 432 812 c 2,99,-1
 482 801 l 1,100,-1
 639 801 l 1,101,-1
 607 740 l 1,66,-1
EndSplineSet
EndChar

StartChar: alefwithhamzabelowisolated
Encoding: 65159 65159 94
Width: 428
Flags: W
AnchorPoint: "ArabicBelow" 214 -543 basechar 0
AnchorPoint: "ArabicAbove" 214 1146 basechar 0
LayerCount: 2
Fore
SplineSet
340 297 m 0,0,1
 340 231 340 231 331.5 174.5 c 128,-1,2
 323 118 323 118 306 67 c 0,3,4
 285 5 285 5 256 -33 c 1,5,-1
 168 685 l 2,6,7
 168 691 168 691 180.5 716.5 c 128,-1,8
 193 742 193 742 221 787 c 2,9,-1
 289 896 l 1,10,-1
 309 734 l 2,11,12
 317 658 317 658 322.5 597 c 128,-1,13
 328 536 328 536 332 488 c 0,14,15
 336 441 336 441 338 393.5 c 128,-1,16
 340 346 340 346 340 297 c 0,0,1
339 -219 m 1,17,-1
 295 -224 l 2,18,19
 257 -229 257 -229 206 -262 c 2,20,-1
 159 -293 l 1,21,22
 158 -291 158 -291 158 -287 c 0,23,24
 158 -272 158 -272 186 -248 c 2,25,-1
 221 -219 l 1,26,-1
 192 -217 l 1,27,-1
 177 -214 l 1,28,-1
 162 -209 l 2,29,30
 136 -203 136 -203 136 -188 c 0,31,32
 136 -153 136 -153 172 -106 c 0,33,34
 214 -55 214 -55 268 -55 c 0,35,36
 281 -55 281 -55 290 -63.5 c 128,-1,37
 299 -72 299 -72 302 -85 c 1,38,-1
 298 -97 l 1,39,40
 297 -103 297 -103 293 -109 c 2,41,42
 289 -118 289 -118 282 -125 c 1,43,44
 268 -99 268 -99 236 -99 c 0,45,46
 187 -99 187 -99 171 -133 c 1,47,-1
 169 -140 l 1,48,49
 169 -154 169 -154 197 -161 c 2,50,-1
 238 -170 l 1,51,-1
 365 -170 l 1,52,-1
 339 -219 l 1,17,-1
EndSplineSet
EndChar

StartChar: alefwithhamzabelowfinal
Encoding: 65160 65160 95
Width: 403
Flags: W
AnchorPoint: "ArabicBelow" 201 -513 basechar 0
AnchorPoint: "ArabicAbove" 201 1210 basechar 0
LayerCount: 2
Fore
SplineSet
324 -189 m 1,0,-1
 280 -194 l 2,1,2
 242 -199 242 -199 191 -232 c 2,3,-1
 144 -263 l 1,4,5
 143 -261 143 -261 143 -257 c 0,6,7
 143 -242 143 -242 171 -218 c 2,8,-1
 206 -189 l 1,9,-1
 177 -187 l 1,10,-1
 162 -184 l 1,11,-1
 147 -179 l 2,12,13
 121 -173 121 -173 121 -158 c 0,14,15
 121 -123 121 -123 157 -76 c 0,16,17
 199 -25 199 -25 253 -25 c 0,18,19
 266 -25 266 -25 275 -33.5 c 128,-1,20
 284 -42 284 -42 287 -55 c 1,21,-1
 283 -67 l 1,22,23
 282 -73 282 -73 278 -79 c 2,24,25
 274 -88 274 -88 267 -95 c 1,26,27
 253 -69 253 -69 221 -69 c 0,28,29
 172 -69 172 -69 156 -103 c 1,30,-1
 154 -110 l 1,31,32
 154 -124 154 -124 182 -131 c 2,33,-1
 223 -140 l 1,34,-1
 350 -140 l 1,35,-1
 324 -189 l 1,0,-1
164 0 m 1,36,-1
 95 832 l 1,37,-1
 201 960 l 1,38,39
 201 866 201 866 234 565 c 0,40,41
 250 415 250 415 260 335 c 128,-1,42
 270 255 270 255 274 243 c 1,43,-1
 276 227 l 1,44,-1
 288 203 l 1,45,46
 296 195 296 195 321 187 c 1,47,-1
 355 184 l 1,48,-1
 415 184 l 1,49,-1
 415 0 l 1,50,-1
 164 0 l 1,36,-1
EndSplineSet
EndChar

StartChar: yehwithhamzaaboveisolated
Encoding: 65161 65161 96
Width: 1085
Flags: W
AnchorPoint: "ArabicBelow" 542 -705 basechar 0
AnchorPoint: "ArabicAbove" 542 1066 basechar 0
LayerCount: 2
Fore
SplineSet
294 696 m 0,0,1
 294 658 294 658 268.5 625 c 128,-1,2
 243 592 243 592 183 562 c 0,3,4
 172 556 172 556 161 551 c 0,5,6
 156 549 156 549 152 547 c 128,-1,7
 144 543 l 0,8,9
 92 517 92 517 60.5 500.5 c 128,-1,10
 29 484 29 484 17 472 c 1,11,-1
 0 468 l 1,12,-1
 -15 469 l 2,13,14
 -27 469 -27 469 -28 479 c 0,15,16
 -28 489 -28 489 5 525 c 2,17,-1
 53 566 l 1,18,-1
 -2 578 l 1,19,20
 -23 587 -23 587 -42 639 c 1,21,22
 -31 677 -31 677 -14 709.5 c 128,-1,23
 3 742 3 742 23 765.5 c 128,-1,24
 43 789 43 789 65.5 802.5 c 128,-1,25
 88 816 88 816 111 816 c 0,26,27
 129 816 129 816 147 806 c 128,-1,28
 165 796 165 796 165 772 c 2,29,-1
 160 727 l 1,30,-1
 157 715 l 1,31,-1
 142 698 l 1,32,-1
 124 693 l 1,33,-1
 101 695 l 1,34,-1
 96 708 l 1,35,36
 96 720 96 720 91 720 c 0,37,38
 50 715 50 715 37 707.5 c 128,-1,39
 24 700 24 700 24 683 c 1,40,41
 54 652 54 652 86 642 c 2,42,-1
 144 628 l 1,43,44
 164 636 164 636 182.5 645.5 c 128,-1,45
 201 655 201 655 218 666 c 2,46,-1
 279 707 l 2,47,48
 281 708 281 708 285 708 c 0,49,50
 294 708 294 708 294 696 c 0,0,1
1117 588 m 2,51,52
 1117 528 1117 528 1101.5 494.5 c 128,-1,53
 1086 461 1086 461 1069 461 c 0,54,55
 1066 461 1066 461 1060.5 467.5 c 128,-1,56
 1055 474 1055 474 1047 482 c 128,-1,57
 1039 490 1039 490 1029.5 498 c 128,-1,58
 1020 506 1020 506 1011 509 c 1,59,-1
 961 516 l 2,60,61
 949 516 949 516 924 499.5 c 128,-1,62
 899 483 899 483 867.5 456 c 128,-1,63
 836 429 836 429 803 395.5 c 128,-1,64
 770 362 770 362 743 327.5 c 128,-1,65
 716 293 716 293 698.5 261.5 c 128,-1,66
 681 230 681 230 681 207 c 0,67,68
 681 183 681 183 697 170 c 1,69,-1
 736 167 l 1,70,-1
 928 137 l 1,71,-1
 984 124 l 1,72,-1
 1007 114 l 2,73,74
 1055 87 1055 87 1055 24 c 2,75,-1
 1055 12 l 2,76,77
 1055 -2 1055 -2 1053 -20 c 128,-1,78
 1051 -38 1051 -38 1041 -54 c 1,79,-1
 1000 -150 l 1,80,81
 979 -180 979 -180 944 -214.5 c 128,-1,82
 909 -249 909 -249 863 -282.5 c 128,-1,83
 817 -316 817 -316 761.5 -347.5 c 128,-1,84
 706 -379 706 -379 643.5 -402.5 c 128,-1,85
 581 -426 581 -426 513 -440.5 c 128,-1,86
 445 -455 445 -455 375 -455 c 0,87,88
 330 -455 330 -455 285.5 -446.5 c 128,-1,89
 241 -438 241 -438 202 -422 c 128,-1,90
 163 -406 163 -406 130 -382.5 c 128,-1,91
 97 -359 97 -359 74 -329 c 0,92,93
 -21 -204 -21 -204 -21 -53 c 0,94,95
 -21 -1 -21 -1 30 157 c 0,96,97
 81 316 81 316 108 328 c 1,98,-1
 112 328 l 2,99,100
 120 328 120 328 120 316 c 0,101,102
 120 300 120 300 108 276 c 0,103,104
 82 237 82 237 72.5 174 c 128,-1,105
 63 111 63 111 63 39 c 0,106,107
 63 -19 63 -19 83.5 -74.5 c 128,-1,108
 104 -130 104 -130 148.5 -173 c 128,-1,109
 193 -216 193 -216 263 -242.5 c 128,-1,110
 333 -269 333 -269 432 -269 c 0,111,112
 481 -269 481 -269 524.5 -262 c 128,-1,113
 568 -255 568 -255 609 -242.5 c 128,-1,114
 650 -230 650 -230 691 -212 c 128,-1,115
 732 -194 732 -194 776 -173 c 0,116,117
 817 -153 817 -153 850 -132.5 c 128,-1,118
 883 -112 883 -112 906.5 -93 c 128,-1,119
 930 -74 930 -74 943 -58.5 c 128,-1,120
 956 -43 956 -43 956 -33 c 0,121,122
 956 -30 956 -30 955 -29 c 2,123,124
 955 -17 955 -17 932 -14 c 2,125,-1
 849 -8 l 2,126,127
 841 -8 841 -8 829.5 -7 c 128,-1,128
 818 -6 818 -6 795 0 c 2,129,-1
 758 6 l 2,130,131
 715 14 715 14 687.5 22 c 128,-1,132
 660 30 660 30 643 40 c 128,-1,133
 626 50 626 50 617 62.5 c 128,-1,134
 608 75 608 75 602 92 c 1,135,-1
 600 133 l 2,136,137
 600 185 600 185 617.5 246.5 c 128,-1,138
 635 308 635 308 665.5 370.5 c 128,-1,139
 696 433 696 433 737 493 c 128,-1,140
 778 553 778 553 825.5 601.5 c 128,-1,141
 873 650 873 650 924.5 684 c 128,-1,142
 976 718 976 718 1028 729 c 1,143,144
 1073 708 1073 708 1095 680 c 128,-1,145
 1117 652 1117 652 1117 614 c 2,146,-1
 1117 588 l 2,51,52
EndSplineSet
EndChar

StartChar: yehwithhamzaabovefinal
Encoding: 65162 65162 97
Width: 1046
Flags: W
AnchorPoint: "ArabicBelow" 523 -871 basechar 0
AnchorPoint: "ArabicAbove" 523 907 basechar 0
LayerCount: 2
Fore
SplineSet
343 537 m 0,0,1
 343 499 343 499 317.5 466 c 128,-1,2
 292 433 292 433 232 403 c 0,3,4
 221 397 221 397 210 392 c 0,5,6
 205 390 205 390 201 388 c 128,-1,7
 193 384 l 0,8,9
 141 358 141 358 109.5 341.5 c 128,-1,10
 78 325 78 325 66 313 c 1,11,-1
 49 309 l 1,12,-1
 34 310 l 2,13,14
 22 310 22 310 21 320 c 0,15,16
 21 330 21 330 54 366 c 2,17,-1
 102 407 l 1,18,-1
 47 419 l 1,19,20
 26 428 26 428 7 480 c 1,21,22
 18 518 18 518 35 550.5 c 128,-1,23
 52 583 52 583 72 606.5 c 128,-1,24
 92 630 92 630 114.5 643.5 c 128,-1,25
 137 657 137 657 160 657 c 0,26,27
 178 657 178 657 196 647 c 128,-1,28
 214 637 214 637 214 613 c 2,29,-1
 209 568 l 1,30,-1
 206 556 l 1,31,-1
 191 539 l 1,32,-1
 173 534 l 1,33,-1
 150 536 l 1,34,-1
 145 549 l 1,35,36
 145 561 145 561 140 561 c 0,37,38
 99 556 99 556 86 548.5 c 128,-1,39
 73 541 73 541 73 524 c 1,40,41
 103 493 103 493 135 483 c 2,42,-1
 193 469 l 1,43,44
 213 477 213 477 231.5 486.5 c 128,-1,45
 250 496 250 496 267 507 c 2,46,-1
 328 548 l 2,47,48
 330 549 330 549 334 549 c 0,49,50
 343 549 343 549 343 537 c 0,0,1
1038 -234 m 1,51,-1
 1022 -274 l 2,52,53
 1010 -301 1010 -301 979 -337.5 c 128,-1,54
 948 -374 948 -374 906.5 -411.5 c 128,-1,55
 865 -449 865 -449 817 -483.5 c 128,-1,56
 769 -518 769 -518 724 -540 c 0,57,58
 687 -558 687 -558 636 -573 c 128,-1,59
 585 -588 585 -588 530.5 -598.5 c 128,-1,60
 476 -609 476 -609 422 -615 c 128,-1,61
 368 -621 368 -621 326 -621 c 0,62,63
 279 -621 279 -621 231 -606.5 c 128,-1,64
 183 -592 183 -592 141.5 -565 c 128,-1,65
 100 -538 100 -538 67.5 -499.5 c 128,-1,66
 35 -461 35 -461 19 -413 c 0,67,68
 -1 -351 -1 -351 -1 -262 c 0,69,70
 -1 -246 -1 -246 0 -229 c 128,-1,71
 1 -212 1 -212 4 -194 c 2,72,-1
 12 -148 l 1,73,-1
 25 -102 l 2,74,75
 43 -41 43 -41 69.5 11.5 c 128,-1,76
 96 64 96 64 134 92 c 2,77,-1
 156 104 l 1,78,-1
 160 101 l 1,79,-1
 159 91 l 2,80,81
 159 81 159 81 151 66.5 c 128,-1,82
 143 52 143 52 132.5 32 c 128,-1,83
 122 12 122 12 111.5 -13.5 c 128,-1,84
 101 -39 101 -39 95 -71 c 2,85,-1
 81 -143 l 1,86,-1
 76 -201 l 2,87,88
 76 -286 76 -286 119 -340 c 128,-1,89
 162 -394 162 -394 244 -429 c 0,90,91
 299 -453 299 -453 346 -453 c 2,92,-1
 497 -453 l 2,93,94
 554 -453 554 -453 614 -438.5 c 128,-1,95
 674 -424 674 -424 734 -394.5 c 128,-1,96
 794 -365 794 -365 853 -320.5 c 128,-1,97
 912 -276 912 -276 966 -216 c 1,98,-1
 935 -191 l 1,99,100
 929 -190 929 -190 915.5 -187 c 128,-1,101
 902 -184 902 -184 885 -179.5 c 128,-1,102
 868 -175 868 -175 849 -169.5 c 128,-1,103
 830 -164 830 -164 813 -159 c 2,104,-1
 737 -146 l 2,105,106
 710 -141 710 -141 687.5 -137.5 c 128,-1,107
 665 -134 665 -134 648.5 -130 c 128,-1,108
 632 -126 632 -126 622 -120.5 c 128,-1,109
 612 -115 612 -115 611 -105 c 0,110,111
 611 -77 611 -77 639 -22 c 2,112,-1
 662 20 l 1,113,114
 679 34 679 34 722 58.5 c 128,-1,115
 765 83 765 83 819.5 107 c 128,-1,116
 874 131 874 131 934.5 148.5 c 128,-1,117
 995 166 995 166 1047 166 c 1,118,-1
 1047 0 l 1,119,120
 1012 0 1012 0 984 -1.5 c 128,-1,121
 956 -3 956 -3 936 -8 c 2,122,-1
 858 -25 l 1,123,-1
 941 -47 l 1,124,-1
 1012 -82 l 1,125,126
 1025 -92 1025 -92 1036 -124 c 128,-1,127
 1047 -156 1047 -156 1047 -195 c 1,128,-1
 1038 -234 l 1,51,-1
EndSplineSet
EndChar

StartChar: yehwithhamzaaboveinitial
Encoding: 65163 65163 98
Width: 639
Flags: W
AnchorPoint: "ArabicBelow" 319 -250 basechar 0
AnchorPoint: "ArabicAbove" 319 1236 basechar 0
LayerCount: 2
Fore
SplineSet
507 184 m 1,0,-1
 519 199 l 1,1,2
 509 238 509 238 496.5 266 c 128,-1,3
 484 294 484 294 464 329 c 0,4,5
 451 352 451 352 439.5 371.5 c 128,-1,6
 428 391 428 391 420 404 c 2,7,-1
 398 435 l 1,8,-1
 379 457 l 1,9,-1
 479 620 l 1,10,11
 515 567 515 567 539 527 c 0,12,13
 561 488 561 488 577 449 c 128,-1,14
 593 410 593 410 603 372 c 0,15,16
 609 345 609 345 609 310 c 2,17,-1
 609 263 l 1,18,-1
 569 0 l 1,19,-1
 -15 0 l 1,20,-1
 -15 184 l 1,21,-1
 507 184 l 1,0,-1
519 784 m 1,22,-1
 465 778 l 2,23,24
 422 774 422 774 355 731 c 2,25,-1
 297 693 l 1,26,27
 296 695 296 695 296 699 c 0,28,29
 296 717 296 717 331 749 c 2,30,-1
 374 784 l 1,31,-1
 338 787 l 1,32,-1
 320 790 l 1,33,-1
 301 797 l 2,34,35
 269 805 269 805 269 822 c 0,36,37
 269 864 269 864 313 923 c 0,38,39
 365 986 365 986 431 986 c 0,40,41
 448 986 448 986 459 975.5 c 128,-1,42
 470 965 470 965 474 949 c 1,43,-1
 469 934 l 2,44,45
 466 924 466 924 462 920 c 1,46,47
 456 907 456 907 449 900 c 1,48,49
 432 932 432 932 392 932 c 0,50,51
 331 932 331 932 312 890 c 1,52,-1
 310 881 l 1,53,54
 310 863 310 863 344 856 c 2,55,-1
 394 845 l 1,56,-1
 551 845 l 1,57,-1
 519 784 l 1,22,-1
EndSplineSet
EndChar

StartChar: yehwithhamzaabovemedial
Encoding: 65164 65164 99
Width: 617
Flags: W
AnchorPoint: "ArabicBelow" 308 -250 basechar 0
AnchorPoint: "ArabicAbove" 308 1081 basechar 0
LayerCount: 2
Fore
SplineSet
461 629 m 1,0,-1
 407 623 l 2,1,2
 364 619 364 619 297 576 c 2,3,-1
 239 538 l 1,4,5
 238 540 238 540 238 544 c 0,6,7
 238 562 238 562 273 594 c 2,8,-1
 316 629 l 1,9,-1
 280 632 l 1,10,-1
 262 635 l 1,11,-1
 243 642 l 2,12,13
 211 650 211 650 211 667 c 0,14,15
 211 709 211 709 255 768 c 0,16,17
 307 831 307 831 373 831 c 0,18,19
 390 831 390 831 401 820.5 c 128,-1,20
 412 810 412 810 416 794 c 1,21,-1
 411 779 l 2,22,23
 408 769 408 769 404 765 c 1,24,25
 398 752 398 752 391 745 c 1,26,27
 374 777 374 777 334 777 c 0,28,29
 273 777 273 777 254 735 c 1,30,-1
 252 726 l 1,31,32
 252 708 252 708 286 701 c 2,33,-1
 336 690 l 1,34,-1
 493 690 l 1,35,-1
 461 629 l 1,0,-1
368 184 m 1,36,37
 379 191 379 191 385.5 209 c 128,-1,38
 392 227 392 227 397 254 c 2,39,-1
 403 391 l 1,40,-1
 503 510 l 1,41,-1
 486 303 l 2,42,43
 486 258 486 258 521 221 c 0,44,45
 564 184 564 184 617 184 c 2,46,-1
 632 184 l 1,47,-1
 632 0 l 1,48,-1
 489 0 l 1,49,50
 403 114 403 114 391 114 c 0,51,52
 380 114 380 114 307 0 c 1,53,-1
 -23 0 l 1,54,-1
 -23 184 l 1,55,-1
 368 184 l 1,36,37
EndSplineSet
EndChar

StartChar: alefisolated
Encoding: 65165 65165 100
Width: 424
Flags: W
AnchorPoint: "ArabicBelow" 212 -283 basechar 0
AnchorPoint: "ArabicAbove" 212 1146 basechar 0
LayerCount: 2
Fore
SplineSet
352 297 m 0,0,1
 352 231 352 231 343.5 174.5 c 128,-1,2
 335 118 335 118 318 67 c 0,3,4
 297 5 297 5 268 -33 c 1,5,-1
 180 685 l 2,6,7
 180 691 180 691 192.5 716.5 c 128,-1,8
 205 742 205 742 233 787 c 2,9,-1
 301 896 l 1,10,-1
 321 734 l 2,11,12
 329 658 329 658 334.5 597 c 128,-1,13
 340 536 340 536 344 488 c 256,14,15
 348 440 348 440 350 393 c 128,-1,16
 352 346 352 346 352 297 c 0,0,1
EndSplineSet
EndChar

StartChar: aleffinal
Encoding: 65166 65166 101
Width: 399
Flags: W
AnchorPoint: "ArabicBelow" 199 -250 basechar 0
AnchorPoint: "ArabicAbove" 199 1210 basechar 0
LayerCount: 2
Fore
SplineSet
164 0 m 1,0,-1
 95 832 l 1,1,-1
 201 960 l 1,2,3
 201 866 201 866 234 565 c 0,4,5
 250 415 250 415 260 335 c 128,-1,6
 270 255 270 255 274 243 c 1,7,-1
 276 227 l 1,8,-1
 288 203 l 1,9,10
 296 195 296 195 321 187 c 1,11,-1
 355 184 l 1,12,-1
 415 184 l 1,13,-1
 415 0 l 1,14,-1
 164 0 l 1,0,-1
EndSplineSet
EndChar

StartChar: behisolated
Encoding: 65167 65167 102
Width: 1159
Flags: W
AnchorPoint: "ArabicBelow" 579 -699 basechar 0
AnchorPoint: "ArabicAbove" 579 829 basechar 0
LayerCount: 2
Fore
SplineSet
1102 326 m 1,0,1
 1101 307 1101 307 1099 289 c 128,-1,2
 1097 271 1097 271 1094 252 c 0,3,4
 1088 217 1088 217 1055 129 c 0,5,6
 1011 11 1011 11 1000 0 c 1,7,-1
 240 0 l 1,8,-1
 193 3 l 2,9,10
 185 3 185 3 178 6 c 2,11,-1
 155 13 l 2,12,13
 136 18 136 18 117 29.5 c 128,-1,14
 98 41 98 41 78 58 c 0,15,16
 7 114 7 114 7 196 c 0,17,18
 7 219 7 219 9.5 246 c 128,-1,19
 12 273 12 273 17 302 c 0,20,21
 28 363 28 363 56 465 c 0,22,23
 85 569 85 569 105 569 c 1,24,-1
 106 554 l 2,25,26
 106 526 106 526 99.5 490.5 c 128,-1,27
 93 455 93 455 90 426 c 0,28,29
 88 409 88 409 87 390 c 128,-1,30
 86 371 86 371 86 348 c 0,31,32
 86 302 86 302 114 274 c 0,33,34
 186 184 186 184 317 184 c 2,35,-1
 976 184 l 1,36,37
 993 187 993 187 997.5 194 c 128,-1,38
 1002 201 1002 201 1002 230 c 0,39,40
 1002 247 1002 247 998 270.5 c 128,-1,41
 994 294 994 294 983 318 c 0,42,43
 973 342 973 342 918 417 c 1,44,-1
 1011 579 l 1,45,46
 1036 540 1036 540 1051.5 515 c 128,-1,47
 1067 490 1067 490 1072 479 c 256,48,49
 1077 468 1077 468 1082 455.5 c 128,-1,50
 1087 443 1087 443 1092 427 c 0,51,52
 1102 397 1102 397 1102 367 c 2,53,-1
 1102 326 l 1,54,-1
 1102 326 l 1,0,1
722 -321 m 1,55,-1
 627 -449 l 1,56,-1
 495 -354 l 1,57,-1
 587 -226 l 1,58,-1
 722 -321 l 1,55,-1
EndSplineSet
EndChar

StartChar: behfinal
Encoding: 65168 65168 103
Width: 1200
Flags: W
AnchorPoint: "ArabicBelow" 600 -719 basechar 0
AnchorPoint: "ArabicAbove" 600 801 basechar 0
LayerCount: 2
Fore
SplineSet
1120 0 m 1,0,1
 1006 114 1006 114 984 114 c 0,2,3
 963 114 963 114 875 0 c 1,4,-1
 189 0 l 2,5,6
 101 0 101 0 55 55 c 0,7,8
 7 112 7 112 7 196 c 0,9,10
 7 293 7 293 46 424 c 0,11,12
 85 551 85 551 100 551 c 1,13,-1
 94 501 l 2,14,15
 82 447 82 447 76.5 414 c 128,-1,16
 71 381 71 381 71 352 c 0,17,18
 71 324 71 324 77 291 c 0,19,20
 84 262 84 262 113 236 c 0,21,22
 143 210 143 210 164 197 c 0,23,24
 186 184 186 184 251 184 c 2,25,-1
 943 184 l 2,26,27
 956 184 956 184 965 242 c 2,28,-1
 977 391 l 1,29,-1
 1077 513 l 1,30,31
 1071 409 1071 409 1065 334 c 0,32,33
 1064 329 1064 329 1064 323 c 0,34,35
 1064 313 l 0,36,37
 1064 253 1064 253 1096 221 c 0,38,39
 1114 202 1114 202 1129 193 c 128,-1,40
 1144 184 1144 184 1173 184 c 2,41,-1
 1223 184 l 1,42,-1
 1223 0 l 1,43,-1
 1120 0 l 1,0,1
712 -341 m 1,44,-1
 617 -469 l 1,45,-1
 485 -374 l 1,46,-1
 577 -246 l 1,47,-1
 712 -341 l 1,44,-1
EndSplineSet
EndChar

StartChar: behinitial
Encoding: 65169 65169 104
Width: 613
Flags: W
AnchorPoint: "ArabicBelow" 306 -719 basechar 0
AnchorPoint: "ArabicAbove" 306 850 basechar 0
LayerCount: 2
Fore
SplineSet
474 184 m 1,0,1
 483 196 483 196 483 206 c 0,2,3
 483 210 483 210 482 212 c 0,4,5
 479 223 479 223 459 269 c 0,6,7
 440 314 440 314 415.5 358 c 128,-1,8
 391 402 391 402 355 444 c 1,9,-1
 448 600 l 1,10,11
 484 546 484 546 506.5 506 c 128,-1,12
 529 466 529 466 544 430 c 0,13,14
 555 406 555 406 561 371.5 c 128,-1,15
 567 337 567 337 567 290 c 0,16,17
 567 267 567 267 565.5 242.5 c 128,-1,18
 564 218 564 218 560 189 c 2,19,-1
 548 93 l 2,20,21
 537 12 537 12 533 0 c 1,22,-1
 -8 0 l 1,23,-1
 -8 184 l 1,24,-1
 474 184 l 1,0,1
412 -341 m 1,25,-1
 317 -469 l 1,26,-1
 185 -374 l 1,27,-1
 277 -246 l 1,28,-1
 412 -341 l 1,25,-1
EndSplineSet
EndChar

StartChar: behmedial
Encoding: 65170 65170 105
Width: 631
Flags: W
AnchorPoint: "ArabicBelow" 315 -689 basechar 0
AnchorPoint: "ArabicAbove" 315 751 basechar 0
LayerCount: 2
Fore
SplineSet
385 184 m 1,0,1
 397 192 397 192 402 208 c 0,2,3
 404 216 404 216 408.5 260.5 c 128,-1,4
 413 305 413 305 421 387 c 1,5,6
 473 445 473 445 499 473.5 c 128,-1,7
 525 502 525 502 524 501 c 1,8,-1
 507 278 l 2,9,10
 507 250 507 250 535 216 c 2,11,-1
 536 215 l 2,12,13
 570 184 570 184 616 184 c 2,14,-1
 637 184 l 1,15,-1
 637 0 l 1,16,-1
 549 0 l 1,17,18
 439 114 439 114 418 114 c 256,19,20
 397 114 397 114 331 0 c 1,21,-1
 -8 0 l 1,22,-1
 -8 184 l 1,23,-1
 385 184 l 1,0,1
492 -311 m 1,24,-1
 397 -439 l 1,25,-1
 265 -344 l 1,26,-1
 357 -216 l 1,27,-1
 492 -311 l 1,24,-1
EndSplineSet
EndChar

StartChar: tehmarbutaisolated
Encoding: 65171 65171 106
Width: 582
Flags: W
AnchorPoint: "ArabicBelow" 291 -268 basechar 0
AnchorPoint: "ArabicAbove" 291 1221 basechar 0
LayerCount: 2
Fore
SplineSet
460 180 m 1,0,-1
 470 192 l 1,1,2
 470 240 470 240 375 344 c 0,3,4
 279 449 279 449 254 449 c 1,5,-1
 178 355 l 2,6,7
 132 287 132 287 126 256 c 1,8,9
 126 202 126 202 164 176 c 0,10,11
 190 159 190 159 247 159 c 0,12,13
 331 159 331 159 387 169 c 2,14,-1
 460 180 l 1,0,-1
535 259 m 1,15,-1
 494 142 l 2,16,17
 475 87 475 87 440 60 c 1,18,-1
 440 59 l 1,19,-1
 333 11 l 1,20,-1
 266 -10 l 1,21,-1
 218 -18 l 1,22,23
 164 -18 164 -18 132 -15.5 c 128,-1,24
 100 -13 100 -13 83 -8 c 1,25,-1
 83 -7 l 1,26,27
 5 12 5 12 5 78 c 0,28,29
 5 121 5 121 21.5 175.5 c 128,-1,30
 38 230 38 230 78 294 c 2,31,-1
 166 434 l 2,32,33
 203 497 203 497 237 544 c 128,-1,34
 271 591 271 591 303 626 c 1,35,-1
 490 471 l 1,36,-1
 512 440 l 1,37,-1
 533 401 l 2,38,39
 547 364 547 364 547 319 c 2,40,-1
 544 289 l 1,41,-1
 535 259 l 1,15,-1
164 971 m 1,42,-1
 288 884 l 1,43,-1
 201 766 l 1,44,-1
 79 853 l 1,45,-1
 164 971 l 1,42,-1
344 971 m 1,46,-1
 468 884 l 1,47,-1
 381 766 l 1,48,-1
 259 853 l 1,49,-1
 344 971 l 1,46,-1
EndSplineSet
EndChar

StartChar: tehmarbutafinal
Encoding: 65172 65172 107
Width: 707
Flags: W
AnchorPoint: "ArabicBelow" 353 -250 basechar 0
AnchorPoint: "ArabicAbove" 353 1301 basechar 0
LayerCount: 2
Fore
SplineSet
95 1032 m 1,0,-1
 219 945 l 1,1,-1
 132 827 l 1,2,-1
 10 914 l 1,3,-1
 95 1032 l 1,0,-1
347 1051 m 1,4,-1
 471 964 l 1,5,-1
 384 846 l 1,6,-1
 262 933 l 1,7,-1
 347 1051 l 1,4,-1
377 479 m 2,8,-1
 352 427 l 2,9,10
 343 413 343 413 326 400.5 c 128,-1,11
 309 388 309 388 285 376 c 2,12,-1
 179 323 l 1,13,-1
 179 301 l 1,14,15
 218 290 218 290 300 274 c 0,16,17
 385 259 385 259 438 259 c 0,18,19
 469 260 469 260 475 266 c 128,-1,20
 481 272 481 272 482 284 c 2,21,-1
 482 287 l 2,22,23
 482 296 482 296 479 320 c 128,-1,24
 476 344 476 344 471 383 c 0,25,26
 464 428 464 428 458.5 457 c 128,-1,27
 453 486 453 486 448 500 c 0,28,29
 442 518 442 518 437 524.5 c 128,-1,30
 432 531 432 531 427 531 c 0,31,32
 421 531 421 531 416 526 c 2,33,34
 409 522 409 522 397.5 508.5 c 128,-1,35
 386 495 386 495 377 479 c 2,8,-1
713 0 m 1,36,-1
 597 0 l 2,37,38
 540 0 540 0 513 109 c 0,39,40
 501 192 501 192 497 207 c 256,41,42
 493 222 493 222 485 227 c 0,43,44
 480 230 480 230 474 230 c 0,45,46
 473 230 473 230 463 228 c 1,47,48
 436 214 436 214 397 132 c 0,49,50
 362 63 362 63 335 63 c 0,51,52
 327 63 327 63 188 92 c 0,53,54
 121 106 121 106 85 114 c 128,-1,55
 49 122 49 122 42 123 c 0,56,57
 30 124 30 124 25 126 c 1,58,59
 25 139 25 139 44 197 c 256,60,61
 63 255 63 255 92 321 c 0,62,63
 106 353 106 353 118.5 373.5 c 128,-1,64
 131 394 131 394 141 404 c 0,65,66
 164 427 164 427 238 471 c 2,67,-1
 411 577 l 1,68,-1
 417 587 l 1,69,70
 417 604 417 604 399 652 c 1,71,-1
 486 797 l 1,72,73
 570 253 570 253 581 227 c 1,74,-1
 599 199 l 1,75,76
 615 184 615 184 647 184 c 2,77,-1
 713 184 l 1,78,-1
 713 0 l 1,36,-1
EndSplineSet
EndChar

StartChar: tehisolated
Encoding: 65173 65173 108
Width: 1132
Flags: W
AnchorPoint: "ArabicBelow" 566 -251 basechar 0
AnchorPoint: "ArabicAbove" 566 1160 basechar 0
LayerCount: 2
Fore
SplineSet
734 823 m 1,0,-1
 647 705 l 1,1,-1
 525 792 l 1,2,-1
 610 910 l 1,3,-1
 734 823 l 1,0,-1
554 823 m 1,4,-1
 467 705 l 1,5,-1
 345 792 l 1,6,-1
 430 910 l 1,7,-1
 554 823 l 1,4,-1
1054 130 m 0,8,9
 1012 12 1012 12 1000 0 c 1,10,11
 808 -1 808 -1 663 -1 c 256,12,13
 518 -1 518 -1 416 -1 c 0,14,15
 313 -1 313 -1 256 -1 c 0,16,17
 200 -1 200 -1 187 0 c 0,18,19
 135 3 135 3 96 30 c 0,20,21
 76 44 76 44 60.5 58 c 128,-1,22
 45 72 45 72 32 86 c 0,23,24
 7 114 7 114 7 196 c 0,25,26
 7 219 7 219 9.5 246 c 128,-1,27
 12 273 12 273 17 302 c 0,28,29
 28 363 28 363 56 465 c 0,30,31
 85 569 85 569 105 569 c 1,32,33
 106 567 106 567 106 559 c 0,34,35
 106 536 106 536 97 475 c 0,36,37
 92 433 92 433 89 407 c 128,-1,38
 86 381 86 381 86 368 c 0,39,40
 86 343 86 343 92 319 c 0,41,42
 95 307 95 307 98.5 297 c 128,-1,43
 102 287 102 287 106 279 c 0,44,45
 112 266 112 266 150 224 c 0,46,47
 186 184 186 184 317 184 c 2,48,-1
 976 184 l 1,49,50
 983 187 983 187 992.5 194 c 128,-1,51
 1002 201 1002 201 1002 215 c 256,52,53
 1002 229 1002 229 996 270 c 0,54,55
 992 308 992 308 943 380 c 2,56,-1
 918 417 l 1,57,-1
 1011 579 l 1,58,-1
 1061 501 l 2,59,60
 1083 458 1083 458 1092 427 c 0,61,62
 1101 400 1101 400 1101 355 c 2,63,-1
 1101 342 l 2,64,65
 1100 316 1100 316 1097.5 291.5 c 128,-1,66
 1095 267 1095 267 1090 244 c 0,67,68
 1081 199 1081 199 1054 130 c 0,8,9
EndSplineSet
EndChar

StartChar: tehfinal
Encoding: 65174 65174 109
Width: 1217
Flags: W
AnchorPoint: "ArabicBelow" 608 -250 basechar 0
AnchorPoint: "ArabicAbove" 608 1090 basechar 0
LayerCount: 2
Fore
SplineSet
1120 0 m 1,0,-1
 1013 113 l 1,1,-1
 963 113 l 1,2,-1
 875 0 l 1,3,-1
 189 0 l 2,4,5
 101 0 101 0 55 55 c 0,6,7
 7 112 7 112 7 196 c 0,8,9
 7 293 7 293 46 424 c 0,10,11
 85 551 85 551 100 551 c 1,12,-1
 94 501 l 2,13,14
 82 447 82 447 75.5 409.5 c 128,-1,15
 69 372 69 372 69 343 c 0,16,17
 69 313 69 313 76 288 c 256,18,19
 83 263 83 263 113 236 c 0,20,21
 143 210 143 210 164 197 c 0,22,23
 186 184 186 184 201 184 c 2,24,-1
 941 184 l 1,25,26
 956 201 956 201 965 242 c 0,27,28
 970 278 970 278 973 315.5 c 128,-1,29
 976 353 976 353 978 391 c 1,30,-1
 1077 513 l 1,31,32
 1075 462 1075 462 1071 413.5 c 128,-1,33
 1067 365 1067 365 1060 317 c 2,34,-1
 1059 299 l 2,35,36
 1059 258 1059 258 1096 221 c 0,37,38
 1116 200 1116 200 1139.5 193 c 128,-1,39
 1163 186 1163 186 1187 184 c 2,40,-1
 1223 184 l 1,41,-1
 1223 0 l 1,42,-1
 1120 0 l 1,0,-1
734 753 m 1,43,-1
 647 635 l 1,44,-1
 525 722 l 1,45,-1
 610 840 l 1,46,-1
 734 753 l 1,43,-1
554 753 m 1,47,-1
 467 635 l 1,48,-1
 345 722 l 1,49,-1
 430 840 l 1,50,-1
 554 753 l 1,47,-1
EndSplineSet
EndChar

StartChar: tehinitial
Encoding: 65175 65175 110
Width: 604
Flags: W
AnchorPoint: "ArabicBelow" 302 -250 basechar 0
AnchorPoint: "ArabicAbove" 302 1253 basechar 0
LayerCount: 2
Fore
SplineSet
460 184 m 1,0,-1
 449 254 l 2,1,2
 414 376 414 376 330 466 c 1,3,-1
 431 641 l 1,4,5
 445 626 445 626 466 590 c 0,6,7
 478 571 478 571 488.5 552.5 c 128,-1,8
 499 534 499 534 508 517 c 0,9,10
 526 483 526 483 540 447.5 c 128,-1,11
 554 412 554 412 558 391 c 0,12,13
 560 377 560 377 561.5 360 c 128,-1,14
 563 343 563 343 563 319 c 0,15,16
 563 308 563 308 563 294 c 0,17,18
 563 281 563 281 562 265 c 0,19,20
 561 240 561 240 546.5 174 c 128,-1,21
 532 108 532 108 503 0 c 1,22,-1
 -8 0 l 1,23,-1
 -8 184 l 1,24,-1
 460 184 l 1,0,-1
524 910 m 1,25,-1
 431 785 l 1,26,-1
 302 878 l 1,27,-1
 392 1003 l 1,28,-1
 524 910 l 1,25,-1
332 910 m 1,29,-1
 240 785 l 1,30,-1
 110 878 l 1,31,-1
 200 1003 l 1,32,-1
 332 910 l 1,29,-1
EndSplineSet
EndChar

StartChar: tehmedial
Encoding: 65176 65176 111
Width: 658
Flags: W
AnchorPoint: "ArabicBelow" 329 -250 basechar 0
AnchorPoint: "ArabicAbove" 329 1180 basechar 0
LayerCount: 2
Fore
SplineSet
403 184 m 1,0,1
 414 191 414 191 420.5 209 c 128,-1,2
 427 227 427 227 432 254 c 2,3,-1
 438 391 l 1,4,-1
 538 510 l 1,5,-1
 521 303 l 2,6,7
 521 258 521 258 556 221 c 0,8,9
 599 184 599 184 652 184 c 2,10,-1
 667 184 l 1,11,-1
 667 0 l 1,12,-1
 524 0 l 1,13,14
 438 114 438 114 426 114 c 0,15,16
 415 114 415 114 342 0 c 1,17,-1
 -8 0 l 1,18,-1
 -8 184 l 1,19,-1
 403 184 l 1,0,1
464 843 m 1,20,-1
 377 725 l 1,21,-1
 255 812 l 1,22,-1
 340 930 l 1,23,-1
 464 843 l 1,20,-1
284 843 m 1,24,-1
 197 725 l 1,25,-1
 75 812 l 1,26,-1
 160 930 l 1,27,-1
 284 843 l 1,24,-1
EndSplineSet
EndChar

StartChar: thehisolated
Encoding: 65177 65177 112
Width: 1132
Flags: W
AnchorPoint: "ArabicBelow" 566 -251 basechar 0
AnchorPoint: "ArabicAbove" 566 1168 basechar 0
LayerCount: 2
Fore
SplineSet
1054 130 m 0,0,1
 1012 12 1012 12 1000 0 c 1,2,3
 808 -1 808 -1 663 -1 c 256,4,5
 518 -1 518 -1 416 -1 c 0,6,7
 313 -1 313 -1 256 -1 c 0,8,9
 200 -1 200 -1 187 0 c 0,10,11
 135 3 135 3 96 30 c 0,12,13
 76 44 76 44 60.5 58 c 128,-1,14
 45 72 45 72 32 86 c 0,15,16
 7 114 7 114 7 196 c 0,17,18
 7 219 7 219 9.5 246 c 128,-1,19
 12 273 12 273 17 302 c 0,20,21
 28 363 28 363 56 465 c 0,22,23
 85 569 85 569 105 569 c 1,24,25
 106 567 106 567 106 559 c 0,26,27
 106 536 106 536 97 475 c 0,28,29
 92 433 92 433 89 407 c 128,-1,30
 86 381 86 381 86 368 c 0,31,32
 86 343 86 343 92 319 c 0,33,34
 95 307 95 307 98.5 297 c 128,-1,35
 102 287 102 287 106 279 c 0,36,37
 112 266 112 266 150 224 c 0,38,39
 186 184 186 184 317 184 c 2,40,-1
 976 184 l 1,41,42
 983 187 983 187 992.5 194 c 128,-1,43
 1002 201 1002 201 1002 215 c 256,44,45
 1002 229 1002 229 996 270 c 0,46,47
 992 308 992 308 943 380 c 2,48,-1
 918 417 l 1,49,-1
 1011 579 l 1,50,-1
 1061 501 l 2,51,52
 1083 458 1083 458 1092 427 c 0,53,54
 1101 400 1101 400 1101 355 c 2,55,-1
 1101 342 l 2,56,57
 1100 316 1100 316 1097.5 291.5 c 128,-1,58
 1095 267 1095 267 1090 244 c 0,59,60
 1081 199 1081 199 1054 130 c 0,0,1
633 845 m 1,61,-1
 560 746 l 1,62,-1
 457 819 l 1,63,-1
 529 918 l 1,64,-1
 633 845 l 1,61,-1
572 636 m 1,65,-1
 485 518 l 1,66,-1
 363 605 l 1,67,-1
 448 723 l 1,68,-1
 572 636 l 1,65,-1
752 636 m 1,69,-1
 665 518 l 1,70,-1
 543 605 l 1,71,-1
 628 723 l 1,72,-1
 752 636 l 1,69,-1
EndSplineSet
EndChar

StartChar: thehfinal
Encoding: 65178 65178 113
Width: 1207
Flags: W
AnchorPoint: "ArabicBelow" 603 -250 basechar 0
AnchorPoint: "ArabicAbove" 603 1198 basechar 0
LayerCount: 2
Fore
SplineSet
1061 0 m 1,0,-1
 986 114 l 1,1,-1
 963 114 l 1,2,-1
 875 0 l 1,3,-1
 189 0 l 2,4,5
 101 0 101 0 55 55 c 0,6,7
 7 112 7 112 7 196 c 0,8,9
 7 293 7 293 46 424 c 0,10,11
 85 551 85 551 100 551 c 1,12,-1
 94 501 l 2,13,14
 71 395 71 395 71 360 c 0,15,16
 71 322 71 322 77 301 c 2,17,-1
 78 297 l 2,18,19
 81 289 81 289 84 281.5 c 128,-1,20
 87 274 87 274 91 269 c 0,21,22
 99 257 99 257 143 221 c 0,23,24
 186 184 186 184 251 184 c 2,25,-1
 941 184 l 1,26,27
 952 190 952 190 954 194.5 c 128,-1,28
 956 199 956 199 959 216 c 2,29,-1
 960 221 l 2,30,31
 962 232 962 232 965 246 c 128,-1,32
 968 260 968 260 970 278 c 256,33,34
 972 296 972 296 974 324.5 c 128,-1,35
 976 353 976 353 978 391 c 1,36,-1
 1077 513 l 1,37,38
 1077 444 1077 444 1059 299 c 0,39,40
 1059 257 1059 257 1072.5 234 c 128,-1,41
 1086 211 1086 211 1101 200 c 0,42,43
 1114 191 1114 191 1163 186 c 2,44,-1
 1187 184 l 1,45,-1
 1223 184 l 1,46,-1
 1223 0 l 1,47,-1
 1061 0 l 1,0,-1
673 875 m 1,48,-1
 600 776 l 1,49,-1
 497 849 l 1,50,-1
 569 948 l 1,51,-1
 673 875 l 1,48,-1
612 666 m 1,52,-1
 525 548 l 1,53,-1
 403 635 l 1,54,-1
 488 753 l 1,55,-1
 612 666 l 1,52,-1
792 666 m 1,56,-1
 705 548 l 1,57,-1
 583 635 l 1,58,-1
 668 753 l 1,59,-1
 792 666 l 1,56,-1
EndSplineSet
EndChar

StartChar: thehinitial
Encoding: 65179 65179 114
Width: 730
Flags: W
AnchorPoint: "ArabicBelow" 365 -250 basechar 0
AnchorPoint: "ArabicAbove" 365 1298 basechar 0
LayerCount: 2
Fore
SplineSet
590 184 m 1,0,1
 583 211 583 211 572.5 244 c 128,-1,2
 562 277 562 277 547 311 c 128,-1,3
 532 345 532 345 513.5 377 c 128,-1,4
 495 409 495 409 473 433 c 1,5,-1
 556 599 l 1,6,7
 584 554 584 554 600.5 526.5 c 128,-1,8
 617 499 617 499 623 488 c 256,9,10
 629 477 629 477 635.5 462.5 c 128,-1,11
 642 448 642 448 650 429 c 0,12,13
 666 392 666 392 674 350 c 128,-1,14
 682 308 682 308 684 280 c 2,15,-1
 684 247 l 2,16,17
 684 226 684 226 681.5 201 c 128,-1,18
 679 176 679 176 671 147 c 0,19,20
 660 105 660 105 632 0 c 1,21,-1
 -8 0 l 1,22,-1
 -8 184 l 1,23,-1
 590 184 l 1,0,1
414 975 m 1,24,-1
 341 876 l 1,25,-1
 238 949 l 1,26,-1
 310 1048 l 1,27,-1
 414 975 l 1,24,-1
353 766 m 1,28,-1
 266 648 l 1,29,-1
 144 735 l 1,30,-1
 229 853 l 1,31,-1
 353 766 l 1,28,-1
533 766 m 1,32,-1
 446 648 l 1,33,-1
 324 735 l 1,34,-1
 409 853 l 1,35,-1
 533 766 l 1,32,-1
EndSplineSet
EndChar

StartChar: thehmedial
Encoding: 65180 65180 115
Width: 672
Flags: W
AnchorPoint: "ArabicBelow" 336 -250 basechar 0
AnchorPoint: "ArabicAbove" 336 1291 basechar 0
LayerCount: 2
Fore
SplineSet
411 184 m 1,0,-1
 429 360 l 1,1,-1
 534 495 l 1,2,-1
 518 278 l 2,3,4
 518 249 518 249 532 232 c 128,-1,5
 546 215 546 215 563 199 c 0,6,7
 581 184 581 184 603 184 c 2,8,-1
 682 184 l 1,9,-1
 682 0 l 1,10,-1
 494 0 l 1,11,12
 429 113 429 113 418 113 c 256,13,14
 407 113 407 113 338 0 c 1,15,-1
 -12 0 l 1,16,-1
 -12 184 l 1,17,-1
 411 184 l 1,0,-1
397 968 m 1,18,-1
 324 869 l 1,19,-1
 221 942 l 1,20,-1
 293 1041 l 1,21,-1
 397 968 l 1,18,-1
336 759 m 1,22,-1
 249 641 l 1,23,-1
 127 728 l 1,24,-1
 212 846 l 1,25,-1
 336 759 l 1,22,-1
516 759 m 1,26,-1
 429 641 l 1,27,-1
 307 728 l 1,28,-1
 392 846 l 1,29,-1
 516 759 l 1,26,-1
EndSplineSet
EndChar

StartChar: jeemisolated
Encoding: 65181 65181 116
Width: 901
Flags: W
AnchorPoint: "ArabicBelow" 450 -922 basechar 0
AnchorPoint: "ArabicAbove" 450 799 basechar 0
LayerCount: 2
Fore
SplineSet
651 -151 m 1,0,1
 652 -150 652 -150 652 -148 c 1,2,-1
 654 -154 l 1,3,-1
 651 -151 l 1,0,1
936 -535 m 1,4,5
 921 -552 921 -552 895 -570 c 128,-1,6
 869 -588 869 -588 830 -608 c 0,7,8
 703 -672 703 -672 521 -672 c 0,9,10
 313 -672 313 -672 189 -566 c 256,11,12
 65 -460 65 -460 65 -301 c 0,13,14
 65 -195 65 -195 83.5 -106.5 c 128,-1,15
 102 -18 102 -18 141 62 c 0,16,17
 207 198 207 198 348 325 c 1,18,-1
 348 346 l 1,19,20
 325 352 325 352 307.5 358 c 128,-1,21
 290 364 290 364 272 366 c 2,22,-1
 224 372 l 1,23,-1
 167 372 l 2,24,25
 121 372 121 372 78 340 c 0,26,27
 52 317 52 317 41 316 c 1,28,-1
 73 428 l 1,29,30
 130 549 130 549 210 549 c 2,31,-1
 253 549 l 2,32,33
 284 545 284 545 317 543 c 1,34,-1
 432 514 l 1,35,-1
 597 489 l 1,36,-1
 846 489 l 1,37,-1
 774 326 l 1,38,39
 747 325 747 325 715.5 321 c 128,-1,40
 684 317 684 317 631 306 c 0,41,42
 605 301 605 301 578 295 c 128,-1,43
 551 289 551 289 523 281 c 1,44,-1
 522 282 l 1,45,-1
 434 250 l 2,46,47
 373 226 373 226 321.5 184 c 128,-1,48
 270 142 270 142 224 73 c 0,49,50
 134 -61 134 -61 134 -171 c 0,51,52
 134 -303 134 -303 247 -395 c 0,53,54
 286 -429 286 -429 352 -456 c 0,55,56
 384 -470 384 -470 410.5 -479.5 c 128,-1,57
 437 -489 437 -489 457 -494 c 0,58,59
 478 -499 478 -499 511.5 -504.5 c 128,-1,60
 545 -510 545 -510 592 -516 c 0,61,62
 640 -522 640 -522 687.5 -526 c 128,-1,63
 735 -530 735 -530 785 -535 c 2,64,-1
 936 -535 l 1,65,-1
 936 -535 l 1,4,5
656 -149 m 1,66,-1
 561 -277 l 1,67,-1
 429 -182 l 1,68,-1
 521 -54 l 1,69,-1
 656 -149 l 1,66,-1
EndSplineSet
EndChar

StartChar: jeemfinal
Encoding: 65182 65182 117
Width: 987
Flags: W
AnchorPoint: "ArabicBelow" 493 -832 basechar 0
AnchorPoint: "ArabicAbove" 493 816 basechar 0
LayerCount: 2
Fore
SplineSet
770 0 m 2,0,1
 694 0 694 0 661 11 c 0,2,3
 621 28 621 28 601.5 45 c 128,-1,4
 582 62 582 62 568 86 c 0,5,6
 557 108 557 108 557 142 c 0,7,8
 557 159 557 159 559.5 176.5 c 128,-1,9
 562 194 562 194 567 211 c 0,10,11
 573 232 573 232 577.5 245.5 c 128,-1,12
 582 259 582 259 584.5 269 c 128,-1,13
 587 279 587 279 588.5 287.5 c 128,-1,14
 590 296 590 296 590 306 c 0,15,16
 590 310 590 310 589.5 314 c 128,-1,17
 589 318 589 318 589 323 c 1,18,-1
 434 290 l 2,19,20
 399 282 399 282 365.5 270 c 128,-1,21
 332 258 332 258 301 241 c 0,22,23
 239 208 239 208 166 106 c 0,24,25
 92 5 92 5 92 -100 c 0,26,27
 92 -265 92 -265 268 -353 c 0,28,29
 299 -369 299 -369 332 -381 c 128,-1,30
 365 -393 365 -393 406 -402.5 c 128,-1,31
 447 -412 447 -412 499 -420 c 128,-1,32
 551 -428 551 -428 621 -436 c 2,33,-1
 752 -443 l 1,34,-1
 886 -443 l 1,35,36
 863 -463 863 -463 836 -482.5 c 128,-1,37
 809 -502 809 -502 778 -519 c 0,38,39
 715 -550 715 -550 638.5 -566 c 128,-1,40
 562 -582 562 -582 469 -582 c 0,41,42
 427 -582 427 -582 402 -580.5 c 128,-1,43
 377 -579 377 -579 367 -577 c 0,44,45
 320 -573 320 -573 280 -559 c 0,46,47
 198 -537 198 -537 133 -486 c 0,48,49
 13 -393 13 -393 13 -228 c 0,50,51
 13 -44 13 -44 112 118 c 0,52,53
 138 163 138 163 183 215.5 c 128,-1,54
 228 268 228 268 291 332 c 2,55,-1
 303 344 l 1,56,57
 294 357 294 357 281.5 365 c 128,-1,58
 269 373 269 373 255 377 c 128,-1,59
 241 381 241 381 227.5 383 c 128,-1,60
 214 385 214 385 203 386 c 0,61,62
 195 387 195 387 182.5 387.5 c 128,-1,63
 170 388 170 388 153 388 c 2,64,-1
 125 388 l 2,65,66
 70 388 70 388 27 368 c 2,67,-1
 -21 338 l 1,68,-1
 -22 343 l 1,69,70
 -22 385 -22 385 38 492 c 0,71,72
 92 566 92 566 125 566 c 2,73,-1
 180 566 l 2,74,75
 191 566 191 566 199.5 565.5 c 128,-1,76
 208 565 208 565 217 564 c 128,-1,77
 226 563 226 563 237.5 561.5 c 128,-1,78
 249 560 249 560 266 559 c 1,79,-1
 400 527 l 1,80,-1
 540 509 l 1,81,-1
 592 506 l 1,82,-1
 794 506 l 1,83,-1
 722 342 l 1,84,-1
 645 330 l 1,85,86
 636 321 636 321 628 275 c 1,87,88
 628 254 628 254 637 238 c 0,89,90
 659 203 659 203 712 189 c 2,91,-1
 754 184 l 1,92,-1
 1005 184 l 1,93,-1
 1005 0 l 1,94,-1
 770 0 l 2,0,1
563 -164 m 1,95,-1
 468 -292 l 1,96,-1
 336 -197 l 1,97,-1
 428 -69 l 1,98,-1
 563 -164 l 1,95,-1
EndSplineSet
EndChar

StartChar: jeeminitial
Encoding: 65183 65183 118
Width: 1208
Flags: W
AnchorPoint: "ArabicBelow" 604 -641 basechar 0
AnchorPoint: "ArabicAbove" 604 809 basechar 0
LayerCount: 2
Fore
SplineSet
439 184 m 1,0,-1
 493 193 l 1,1,-1
 542 207 l 1,2,-1
 584 223 l 1,3,-1
 637 251 l 1,4,-1
 637 274 l 1,5,-1
 524 329 l 2,6,7
 391 385 391 385 322 385 c 0,8,9
 269 385 269 385 245 373 c 0,10,11
 227 365 227 365 216 360.5 c 128,-1,12
 205 356 205 356 201 354 c 1,13,-1
 256 443 l 1,14,15
 357 559 357 559 421 559 c 0,16,17
 476 559 476 559 537.5 538 c 128,-1,18
 599 517 599 517 680 468 c 2,19,-1
 777 411 l 1,20,-1
 857 371 l 1,21,-1
 1038 298 l 1,22,-1
 1165 265 l 1,23,-1
 1049 114 l 1,24,-1
 799 132 l 1,25,-1
 714 132 l 2,26,27
 678 132 678 132 628.5 116 c 128,-1,28
 579 100 579 100 515 66 c 0,29,30
 390 0 390 0 339 0 c 2,31,-1
 -26 0 l 1,32,-1
 -26 184 l 1,33,-1
 439 184 l 1,0,-1
760 -258 m 1,34,-1
 661 -391 l 1,35,-1
 524 -292 l 1,36,-1
 620 -159 l 1,37,-1
 760 -258 l 1,34,-1
EndSplineSet
EndChar

StartChar: jeemmedial
Encoding: 65184 65184 119
Width: 1310
Flags: W
AnchorPoint: "ArabicBelow" 655 -696 basechar 0
AnchorPoint: "ArabicAbove" 655 809 basechar 0
LayerCount: 2
Fore
SplineSet
689 -318 m 1,0,-1
 594 -446 l 1,1,-1
 462 -351 l 1,2,-1
 554 -223 l 1,3,-1
 689 -318 l 1,0,-1
456 185 m 1,4,5
 475 188 475 188 487.5 190.5 c 128,-1,6
 500 193 500 193 513 196.5 c 128,-1,7
 526 200 526 200 541.5 205.5 c 128,-1,8
 557 211 557 211 581 220 c 0,9,10
 685 261 685 261 686 281 c 1,11,-1
 526 346 l 2,12,13
 388 390 388 390 360 390 c 0,14,15
 285 390 285 390 250 371 c 2,16,-1
 227 355 l 1,17,-1
 268 434 l 2,18,19
 309 492 309 492 350.5 523.5 c 128,-1,20
 392 555 392 555 436 557 c 2,21,-1
 471 559 l 2,22,23
 555 559 555 559 676 503 c 0,24,25
 761 464 761 464 819.5 440 c 128,-1,26
 878 416 878 416 912 404 c 2,27,-1
 1074 364 l 2,28,29
 1120 359 1120 359 1155 356 c 128,-1,30
 1190 353 1190 353 1215 353 c 1,31,-1
 1154 184 l 1,32,-1
 1321 184 l 1,33,-1
 1321 0 l 1,34,-1
 1067 0 l 1,35,-1
 1042 158 l 1,36,-1
 783 158 l 1,37,-1
 771 159 l 2,38,39
 736 159 736 159 689 139.5 c 128,-1,40
 642 120 642 120 573 78 c 0,41,42
 510 41 510 41 460 20.5 c 128,-1,43
 410 0 410 0 378 0 c 2,44,-1
 -20 0 l 1,45,-1
 -20 184 l 1,46,-1
 456 185 l 1,4,5
EndSplineSet
EndChar

StartChar: hahisolated
Encoding: 65185 65185 120
Width: 901
Flags: W
AnchorPoint: "ArabicBelow" 450 -922 basechar 0
AnchorPoint: "ArabicAbove" 450 799 basechar 0
LayerCount: 2
Fore
SplineSet
936 -535 m 1,0,1
 921 -552 921 -552 895 -570 c 128,-1,2
 869 -588 869 -588 830 -608 c 0,3,4
 703 -672 703 -672 521 -672 c 0,5,6
 313 -672 313 -672 189 -566 c 256,7,8
 65 -460 65 -460 65 -301 c 0,9,10
 65 -195 65 -195 83.5 -106.5 c 128,-1,11
 102 -18 102 -18 141 62 c 0,12,13
 207 198 207 198 348 325 c 1,14,-1
 348 346 l 1,15,16
 325 352 325 352 307.5 358 c 128,-1,17
 290 364 290 364 272 366 c 2,18,-1
 224 372 l 1,19,-1
 167 372 l 2,20,21
 121 372 121 372 78 340 c 0,22,23
 52 317 52 317 41 316 c 1,24,-1
 73 428 l 1,25,26
 130 549 130 549 210 549 c 2,27,-1
 253 549 l 2,28,29
 284 545 284 545 317 543 c 1,30,-1
 432 514 l 1,31,-1
 597 489 l 1,32,-1
 846 489 l 1,33,-1
 774 326 l 1,34,35
 747 325 747 325 715.5 321 c 128,-1,36
 684 317 684 317 631 306 c 0,37,38
 605 301 605 301 578 295 c 128,-1,39
 551 289 551 289 523 281 c 1,40,-1
 522 282 l 1,41,-1
 434 250 l 2,42,43
 373 226 373 226 321.5 184 c 128,-1,44
 270 142 270 142 224 73 c 0,45,46
 134 -61 134 -61 134 -171 c 0,47,48
 134 -303 134 -303 247 -395 c 0,49,50
 286 -429 286 -429 352 -456 c 0,51,52
 384 -470 384 -470 410.5 -479.5 c 128,-1,53
 437 -489 437 -489 457 -494 c 0,54,55
 478 -499 478 -499 511.5 -504.5 c 128,-1,56
 545 -510 545 -510 592 -516 c 0,57,58
 640 -522 640 -522 687.5 -526 c 128,-1,59
 735 -530 735 -530 785 -535 c 2,60,-1
 936 -535 l 1,61,-1
 936 -535 l 1,0,1
EndSplineSet
EndChar

StartChar: hahfinal
Encoding: 65186 65186 121
Width: 1044
Flags: W
AnchorPoint: "ArabicBelow" 522 -831 basechar 0
AnchorPoint: "ArabicAbove" 522 817 basechar 0
LayerCount: 2
Fore
SplineSet
830 1 m 2,0,1
 754 1 754 1 721 12 c 0,2,3
 681 29 681 29 661.5 46 c 128,-1,4
 642 63 642 63 628 87 c 0,5,6
 617 109 617 109 617 143 c 0,7,8
 617 160 617 160 619.5 177.5 c 128,-1,9
 622 195 622 195 627 212 c 0,10,11
 633 233 633 233 637.5 246.5 c 128,-1,12
 642 260 642 260 644.5 270 c 128,-1,13
 647 280 647 280 648.5 288.5 c 128,-1,14
 650 297 650 297 650 307 c 0,15,16
 650 311 650 311 649.5 315 c 128,-1,17
 649 319 649 319 649 324 c 1,18,-1
 494 291 l 2,19,20
 459 283 459 283 425.5 271 c 128,-1,21
 392 259 392 259 361 242 c 0,22,23
 299 209 299 209 226 107 c 0,24,25
 152 6 152 6 152 -99 c 0,26,27
 152 -264 152 -264 328 -352 c 0,28,29
 359 -368 359 -368 392 -380 c 128,-1,30
 425 -392 425 -392 466 -401.5 c 128,-1,31
 507 -411 507 -411 559 -419 c 128,-1,32
 611 -427 611 -427 681 -435 c 2,33,-1
 812 -442 l 1,34,-1
 946 -442 l 1,35,36
 923 -462 923 -462 896 -481.5 c 128,-1,37
 869 -501 869 -501 838 -518 c 0,38,39
 775 -549 775 -549 698.5 -565 c 128,-1,40
 622 -581 622 -581 529 -581 c 0,41,42
 487 -581 487 -581 462 -579.5 c 128,-1,43
 437 -578 437 -578 427 -576 c 0,44,45
 380 -572 380 -572 340 -558 c 0,46,47
 258 -536 258 -536 193 -485 c 0,48,49
 73 -392 73 -392 73 -227 c 0,50,51
 73 -43 73 -43 172 119 c 0,52,53
 198 164 198 164 243 216.5 c 128,-1,54
 288 269 288 269 351 333 c 2,55,-1
 363 345 l 1,56,57
 354 358 354 358 341.5 366 c 128,-1,58
 329 374 329 374 315 378 c 128,-1,59
 301 382 301 382 287.5 384 c 128,-1,60
 274 386 274 386 263 387 c 0,61,62
 255 388 255 388 242.5 388.5 c 128,-1,63
 230 389 230 389 213 389 c 2,64,-1
 185 389 l 2,65,66
 130 389 130 389 87 369 c 2,67,-1
 39 339 l 1,68,-1
 38 344 l 1,69,70
 38 386 38 386 98 493 c 0,71,72
 152 567 152 567 185 567 c 2,73,-1
 240 567 l 2,74,75
 251 567 251 567 259.5 566.5 c 128,-1,76
 268 566 268 566 277 565 c 128,-1,77
 286 564 286 564 297.5 562.5 c 128,-1,78
 309 561 309 561 326 560 c 1,79,-1
 460 528 l 1,80,-1
 600 510 l 1,81,-1
 652 507 l 1,82,-1
 854 507 l 1,83,-1
 782 343 l 1,84,-1
 705 331 l 1,85,86
 696 322 696 322 688 276 c 1,87,88
 688 255 688 255 697 239 c 0,89,90
 719 204 719 204 772 190 c 2,91,-1
 814 185 l 1,92,-1
 1065 185 l 1,93,-1
 1065 1 l 1,94,-1
 830 1 l 2,0,1
EndSplineSet
EndChar

StartChar: hahinitial
Encoding: 65187 65187 122
Width: 1192
Flags: W
AnchorPoint: "ArabicBelow" 596 -250 basechar 0
AnchorPoint: "ArabicAbove" 596 809 basechar 0
LayerCount: 2
Fore
SplineSet
444 184 m 1,0,-1
 498 193 l 1,1,-1
 547 207 l 1,2,-1
 589 223 l 1,3,-1
 642 251 l 1,4,-1
 642 274 l 1,5,-1
 529 329 l 2,6,7
 396 385 396 385 327 385 c 0,8,9
 274 385 274 385 250 373 c 0,10,11
 232 365 232 365 221 360.5 c 128,-1,12
 210 356 210 356 206 354 c 1,13,-1
 261 443 l 1,14,15
 362 559 362 559 426 559 c 0,16,17
 481 559 481 559 542.5 538 c 128,-1,18
 604 517 604 517 685 468 c 2,19,-1
 782 411 l 1,20,-1
 862 371 l 1,21,-1
 1043 298 l 1,22,-1
 1170 265 l 1,23,-1
 1054 114 l 1,24,-1
 804 132 l 1,25,-1
 719 132 l 2,26,27
 683 132 683 132 633.5 116 c 128,-1,28
 584 100 584 100 520 66 c 0,29,30
 395 0 395 0 344 0 c 2,31,-1
 -21 0 l 1,32,-1
 -21 184 l 1,33,-1
 444 184 l 1,0,-1
EndSplineSet
EndChar

StartChar: hahmedial
Encoding: 65188 65188 123
Width: 1312
Flags: W
AnchorPoint: "ArabicBelow" 656 -250 basechar 0
AnchorPoint: "ArabicAbove" 656 809 basechar 0
LayerCount: 2
Fore
SplineSet
456 185 m 1,0,1
 475 188 475 188 487.5 190.5 c 128,-1,2
 500 193 500 193 513 196.5 c 128,-1,3
 526 200 526 200 541.5 205.5 c 128,-1,4
 557 211 557 211 581 220 c 0,5,6
 685 261 685 261 686 281 c 1,7,-1
 526 346 l 2,8,9
 388 390 388 390 360 390 c 0,10,11
 285 390 285 390 250 371 c 2,12,-1
 227 355 l 1,13,-1
 268 434 l 2,14,15
 309 492 309 492 350.5 523.5 c 128,-1,16
 392 555 392 555 436 557 c 2,17,-1
 471 559 l 2,18,19
 555 559 555 559 676 503 c 0,20,21
 761 464 761 464 819.5 440 c 128,-1,22
 878 416 878 416 912 404 c 2,23,-1
 1074 364 l 2,24,25
 1120 359 1120 359 1155 356 c 128,-1,26
 1190 353 1190 353 1215 353 c 1,27,-1
 1154 184 l 1,28,-1
 1321 184 l 1,29,-1
 1321 0 l 1,30,-1
 1067 0 l 1,31,-1
 1042 158 l 1,32,-1
 783 158 l 1,33,-1
 771 159 l 2,34,35
 736 159 736 159 689 139.5 c 128,-1,36
 642 120 642 120 573 78 c 0,37,38
 510 41 510 41 460 20.5 c 128,-1,39
 410 0 410 0 378 0 c 2,40,-1
 -20 0 l 1,41,-1
 -20 184 l 1,42,-1
 456 185 l 1,0,1
EndSplineSet
EndChar

StartChar: khahisolated
Encoding: 65189 65189 124
Width: 901
Flags: W
AnchorPoint: "ArabicBelow" 450 -922 basechar 0
AnchorPoint: "ArabicAbove" 450 1207 basechar 0
LayerCount: 2
Fore
SplineSet
936 -535 m 1,0,1
 921 -552 921 -552 895 -570 c 128,-1,2
 869 -588 869 -588 830 -608 c 0,3,4
 703 -672 703 -672 521 -672 c 0,5,6
 313 -672 313 -672 189 -566 c 256,7,8
 65 -460 65 -460 65 -301 c 0,9,10
 65 -195 65 -195 83.5 -106.5 c 128,-1,11
 102 -18 102 -18 141 62 c 0,12,13
 207 198 207 198 348 325 c 1,14,-1
 348 346 l 1,15,16
 325 352 325 352 307.5 358 c 128,-1,17
 290 364 290 364 272 366 c 2,18,-1
 224 372 l 1,19,-1
 167 372 l 2,20,21
 121 372 121 372 78 340 c 0,22,23
 52 317 52 317 41 316 c 1,24,-1
 73 428 l 1,25,26
 130 549 130 549 210 549 c 2,27,-1
 253 549 l 2,28,29
 284 545 284 545 317 543 c 1,30,-1
 432 514 l 1,31,-1
 597 489 l 1,32,-1
 846 489 l 1,33,-1
 774 326 l 1,34,35
 747 325 747 325 715.5 321 c 128,-1,36
 684 317 684 317 631 306 c 0,37,38
 605 301 605 301 578 295 c 128,-1,39
 551 289 551 289 523 281 c 1,40,-1
 522 282 l 1,41,-1
 434 250 l 2,42,43
 373 226 373 226 321.5 184 c 128,-1,44
 270 142 270 142 224 73 c 0,45,46
 134 -61 134 -61 134 -171 c 0,47,48
 134 -303 134 -303 247 -395 c 0,49,50
 286 -429 286 -429 352 -456 c 0,51,52
 384 -470 384 -470 410.5 -479.5 c 128,-1,53
 437 -489 437 -489 457 -494 c 0,54,55
 478 -499 478 -499 511.5 -504.5 c 128,-1,56
 545 -510 545 -510 592 -516 c 0,57,58
 640 -522 640 -522 687.5 -526 c 128,-1,59
 735 -530 735 -530 785 -535 c 2,60,-1
 936 -535 l 1,61,-1
 936 -535 l 1,0,1
474 862 m 1,62,-1
 379 734 l 1,63,-1
 247 829 l 1,64,-1
 339 957 l 1,65,-1
 474 862 l 1,62,-1
EndSplineSet
EndChar

StartChar: khahfinal
Encoding: 65190 65190 125
Width: 1044
Flags: W
AnchorPoint: "ArabicBelow" 522 -831 basechar 0
AnchorPoint: "ArabicAbove" 522 1198 basechar 0
LayerCount: 2
Fore
SplineSet
830 1 m 2,0,1
 754 1 754 1 721 12 c 0,2,3
 681 29 681 29 661.5 46 c 128,-1,4
 642 63 642 63 628 87 c 0,5,6
 617 109 617 109 617 143 c 0,7,8
 617 160 617 160 619.5 177.5 c 128,-1,9
 622 195 622 195 627 212 c 0,10,11
 633 233 633 233 637.5 246.5 c 128,-1,12
 642 260 642 260 644.5 270 c 128,-1,13
 647 280 647 280 648.5 288.5 c 128,-1,14
 650 297 650 297 650 307 c 0,15,16
 650 311 650 311 649.5 315 c 128,-1,17
 649 319 649 319 649 324 c 1,18,-1
 494 291 l 2,19,20
 459 283 459 283 425.5 271 c 128,-1,21
 392 259 392 259 361 242 c 0,22,23
 299 209 299 209 226 107 c 0,24,25
 152 6 152 6 152 -99 c 0,26,27
 152 -264 152 -264 328 -352 c 0,28,29
 359 -368 359 -368 392 -380 c 128,-1,30
 425 -392 425 -392 466 -401.5 c 128,-1,31
 507 -411 507 -411 559 -419 c 128,-1,32
 611 -427 611 -427 681 -435 c 2,33,-1
 812 -442 l 1,34,-1
 946 -442 l 1,35,36
 923 -462 923 -462 896 -481.5 c 128,-1,37
 869 -501 869 -501 838 -518 c 0,38,39
 775 -549 775 -549 698.5 -565 c 128,-1,40
 622 -581 622 -581 529 -581 c 0,41,42
 487 -581 487 -581 462 -579.5 c 128,-1,43
 437 -578 437 -578 427 -576 c 0,44,45
 380 -572 380 -572 340 -558 c 0,46,47
 258 -536 258 -536 193 -485 c 0,48,49
 73 -392 73 -392 73 -227 c 0,50,51
 73 -43 73 -43 172 119 c 0,52,53
 198 164 198 164 243 216.5 c 128,-1,54
 288 269 288 269 351 333 c 2,55,-1
 363 345 l 1,56,57
 354 358 354 358 341.5 366 c 128,-1,58
 329 374 329 374 315 378 c 128,-1,59
 301 382 301 382 287.5 384 c 128,-1,60
 274 386 274 386 263 387 c 0,61,62
 255 388 255 388 242.5 388.5 c 128,-1,63
 230 389 230 389 213 389 c 2,64,-1
 185 389 l 2,65,66
 130 389 130 389 87 369 c 2,67,-1
 39 339 l 1,68,-1
 38 344 l 1,69,70
 38 386 38 386 98 493 c 0,71,72
 152 567 152 567 185 567 c 2,73,-1
 240 567 l 2,74,75
 251 567 251 567 259.5 566.5 c 128,-1,76
 268 566 268 566 277 565 c 128,-1,77
 286 564 286 564 297.5 562.5 c 128,-1,78
 309 561 309 561 326 560 c 1,79,-1
 460 528 l 1,80,-1
 600 510 l 1,81,-1
 652 507 l 1,82,-1
 854 507 l 1,83,-1
 782 343 l 1,84,-1
 705 331 l 1,85,86
 696 322 696 322 688 276 c 1,87,88
 688 255 688 255 697 239 c 0,89,90
 719 204 719 204 772 190 c 2,91,-1
 814 185 l 1,92,-1
 1065 185 l 1,93,-1
 1065 1 l 1,94,-1
 830 1 l 2,0,1
464 853 m 1,95,-1
 369 725 l 1,96,-1
 237 820 l 1,97,-1
 329 948 l 1,98,-1
 464 853 l 1,95,-1
EndSplineSet
EndChar

StartChar: khahinitial
Encoding: 65191 65191 126
Width: 1196
Flags: W
AnchorPoint: "ArabicBelow" 598 -250 basechar 0
AnchorPoint: "ArabicAbove" 598 1185 basechar 0
LayerCount: 2
Fore
SplineSet
448 184 m 1,0,-1
 502 193 l 1,1,-1
 551 207 l 1,2,-1
 593 223 l 1,3,-1
 646 251 l 1,4,-1
 646 274 l 1,5,-1
 533 329 l 2,6,7
 400 385 400 385 331 385 c 0,8,9
 278 385 278 385 254 373 c 0,10,11
 236 365 236 365 225 360.5 c 128,-1,12
 214 356 214 356 210 354 c 1,13,-1
 265 443 l 1,14,15
 366 559 366 559 430 559 c 0,16,17
 485 559 485 559 546.5 538 c 128,-1,18
 608 517 608 517 689 468 c 2,19,-1
 786 411 l 1,20,-1
 866 371 l 1,21,-1
 1047 298 l 1,22,-1
 1174 265 l 1,23,-1
 1058 114 l 1,24,-1
 808 132 l 1,25,-1
 723 132 l 2,26,27
 687 132 687 132 637.5 116 c 128,-1,28
 588 100 588 100 524 66 c 0,29,30
 399 0 399 0 348 0 c 2,31,-1
 -17 0 l 1,32,-1
 -17 184 l 1,33,-1
 448 184 l 1,0,-1
614 840 m 1,34,-1
 519 712 l 1,35,-1
 387 807 l 1,36,-1
 479 935 l 1,37,-1
 614 840 l 1,34,-1
EndSplineSet
EndChar

StartChar: khahmedial
Encoding: 65192 65192 127
Width: 1312
Flags: W
AnchorPoint: "ArabicBelow" 656 -250 basechar 0
AnchorPoint: "ArabicAbove" 656 1181 basechar 0
LayerCount: 2
Fore
SplineSet
610 836 m 1,0,-1
 515 708 l 1,1,-1
 383 803 l 1,2,-1
 475 931 l 1,3,-1
 610 836 l 1,0,-1
456 185 m 1,4,5
 475 188 475 188 487.5 190.5 c 128,-1,6
 500 193 500 193 513 196.5 c 128,-1,7
 526 200 526 200 541.5 205.5 c 128,-1,8
 557 211 557 211 581 220 c 0,9,10
 685 261 685 261 686 281 c 1,11,-1
 526 346 l 2,12,13
 388 390 388 390 360 390 c 0,14,15
 285 390 285 390 250 371 c 2,16,-1
 227 355 l 1,17,-1
 268 434 l 2,18,19
 309 492 309 492 350.5 523.5 c 128,-1,20
 392 555 392 555 436 557 c 2,21,-1
 471 559 l 2,22,23
 555 559 555 559 676 503 c 0,24,25
 761 464 761 464 819.5 440 c 128,-1,26
 878 416 878 416 912 404 c 2,27,-1
 1074 364 l 2,28,29
 1120 359 1120 359 1155 356 c 128,-1,30
 1190 353 1190 353 1215 353 c 1,31,-1
 1154 184 l 1,32,-1
 1321 184 l 1,33,-1
 1321 0 l 1,34,-1
 1067 0 l 1,35,-1
 1042 158 l 1,36,-1
 783 158 l 1,37,-1
 771 159 l 2,38,39
 736 159 736 159 689 139.5 c 128,-1,40
 642 120 642 120 573 78 c 0,41,42
 510 41 510 41 460 20.5 c 128,-1,43
 410 0 410 0 378 0 c 2,44,-1
 -20 0 l 1,45,-1
 -20 184 l 1,46,-1
 456 185 l 1,4,5
EndSplineSet
EndChar

StartChar: dalisolated
Encoding: 65193 65193 128
Width: 672
Flags: W
AnchorPoint: "ArabicBelow" 336 -252 basechar 0
AnchorPoint: "ArabicAbove" 336 932 basechar 0
LayerCount: 2
Fore
SplineSet
128 184 m 1,0,-1
 551 184 l 1,1,-1
 551 210 l 2,2,3
 551 264 551 264 509 330 c 0,4,5
 487 363 487 363 464 388.5 c 128,-1,6
 441 414 441 414 413 431 c 2,7,-1
 358 464 l 1,8,-1
 314 485 l 1,9,-1
 359 682 l 1,10,11
 411 647 411 647 442.5 624 c 128,-1,12
 474 601 474 601 486 590 c 0,13,14
 510 567 510 567 545 516 c 256,15,16
 580 465 580 465 597.5 422 c 128,-1,17
 615 379 615 379 625 333 c 0,18,19
 636 286 636 286 637 263 c 0,20,21
 638 251 638 251 638 231 c 0,22,23
 638 212 638 212 638 185 c 0,24,25
 638 130 638 130 629 78 c 0,26,27
 614 -2 614 -2 581 -2 c 2,28,-1
 109 -2 l 1,29,-1
 128 184 l 1,0,-1
EndSplineSet
EndChar

StartChar: dalfinal
Encoding: 65194 65194 129
Width: 886
Flags: W
AnchorPoint: "ArabicBelow" 443 -250 basechar 0
AnchorPoint: "ArabicAbove" 443 970 basechar 0
LayerCount: 2
Fore
SplineSet
771 0 m 1,0,1
 715 114 715 114 708 114 c 0,2,3
 699 114 699 114 596 0 c 1,4,-1
 144 0 l 2,5,6
 132 0 132 0 125 6 c 1,7,8
 116 17 116 17 114 34 c 1,9,10
 119 85 119 85 124.5 124.5 c 128,-1,11
 130 164 130 164 136 192 c 0,12,13
 142 221 142 221 150.5 251.5 c 128,-1,14
 159 282 159 282 170 316 c 0,15,16
 177 340 177 340 180 343 c 1,17,-1
 175 262 l 2,18,19
 175 238 175 238 188 213 c 0,20,21
 205 184 205 184 244 184 c 2,22,-1
 692 184 l 1,23,-1
 693 201 l 2,24,25
 693 235 693 235 684 285 c 0,26,27
 674 345 674 345 615 550 c 1,28,-1
 698 720 l 1,29,-1
 813 275 l 2,30,31
 834 184 834 184 874 184 c 2,32,-1
 904 184 l 1,33,-1
 904 0 l 1,34,-1
 771 0 l 1,0,1
EndSplineSet
EndChar

StartChar: thalisolated
Encoding: 65195 65195 130
Width: 672
Flags: W
AnchorPoint: "ArabicBelow" 336 -252 basechar 0
AnchorPoint: "ArabicAbove" 336 1249 basechar 0
LayerCount: 2
Fore
SplineSet
128 184 m 1,0,-1
 551 184 l 1,1,-1
 551 210 l 2,2,3
 551 264 551 264 509 330 c 0,4,5
 487 363 487 363 464 388.5 c 128,-1,6
 441 414 441 414 413 431 c 2,7,-1
 358 464 l 1,8,-1
 314 485 l 1,9,-1
 359 682 l 1,10,11
 411 647 411 647 442.5 624 c 128,-1,12
 474 601 474 601 486 590 c 0,13,14
 510 567 510 567 545 516 c 256,15,16
 580 465 580 465 597.5 422 c 128,-1,17
 615 379 615 379 625 333 c 0,18,19
 636 286 636 286 637 263 c 0,20,21
 638 251 638 251 638 231 c 0,22,23
 638 212 638 212 638 185 c 0,24,25
 638 130 638 130 629 78 c 0,26,27
 614 -2 614 -2 581 -2 c 2,28,-1
 109 -2 l 1,29,-1
 128 184 l 1,0,-1
329 912 m 1,30,-1
 242 794 l 1,31,-1
 120 881 l 1,32,-1
 205 999 l 1,33,-1
 329 912 l 1,30,-1
EndSplineSet
EndChar

StartChar: thalfinal
Encoding: 65196 65196 131
Width: 898
Flags: W
AnchorPoint: "ArabicBelow" 449 -250 basechar 0
AnchorPoint: "ArabicAbove" 449 1203 basechar 0
LayerCount: 2
Fore
SplineSet
522 953 m 1,0,-1
 646 866 l 1,1,-1
 559 748 l 1,2,-1
 437 835 l 1,3,-1
 522 953 l 1,0,-1
904 0 m 1,4,-1
 771 0 l 1,5,6
 715 114 715 114 708 114 c 0,7,8
 699 114 699 114 596 0 c 1,9,-1
 144 0 l 2,10,11
 132 0 132 0 125 6 c 1,12,13
 116 17 116 17 114 34 c 1,14,15
 119 85 119 85 124.5 124.5 c 128,-1,16
 130 164 130 164 136 192 c 0,17,18
 148 249 148 249 170 316 c 0,19,20
 178 341 178 341 180 343 c 1,21,-1
 175 262 l 2,22,23
 175 238 175 238 188 213 c 0,24,25
 205 184 205 184 244 184 c 2,26,-1
 692 184 l 1,27,-1
 693 201 l 2,28,29
 693 235 693 235 684 285 c 0,30,31
 674 344 674 344 615 550 c 1,32,-1
 698 720 l 1,33,-1
 813 275 l 2,34,35
 834 184 834 184 874 184 c 2,36,-1
 904 184 l 1,37,-1
 904 0 l 1,4,-1
EndSplineSet
EndChar

StartChar: rehisolated
Encoding: 65197 65197 132
Width: 831
Flags: W
AnchorPoint: "ArabicBelow" 415 -675 basechar 0
AnchorPoint: "ArabicAbove" 415 755 basechar 0
LayerCount: 2
Fore
SplineSet
779 3 m 0,0,1
 747 -131 747 -131 674 -252 c 0,2,3
 570 -425 570 -425 446 -425 c 0,4,5
 379 -425 379 -425 196 -353 c 0,6,7
 18 -284 18 -284 18 -258 c 1,8,-1
 152 -298 l 2,9,10
 227 -318 227 -318 264 -318 c 0,11,12
 367 -318 367 -318 545 -164 c 0,13,14
 722 -11 722 -11 722 91 c 0,15,16
 722 133 722 133 633 222 c 0,17,18
 604 252 604 252 576.5 276 c 128,-1,19
 549 300 549 300 524 319 c 1,20,-1
 588 505 l 1,21,22
 646 474 646 474 707 391 c 0,23,24
 793 269 793 269 793 124 c 0,25,26
 793 99 793 99 789.5 69 c 128,-1,27
 786 39 786 39 779 3 c 0,0,1
EndSplineSet
EndChar

StartChar: rehfinal
Encoding: 65198 65198 133
Width: 948
Flags: W
AnchorPoint: "ArabicBelow" 474 -672 basechar 0
AnchorPoint: "ArabicAbove" 474 690 basechar 0
LayerCount: 2
Fore
SplineSet
869 0 m 2,0,1
 839 0 839 0 832 6 c 1,2,3
 827 8 827 8 817 15.5 c 128,-1,4
 807 23 807 23 792 35 c 1,5,-1
 771 35 l 1,6,7
 756 -92 756 -92 644 -249 c 0,8,9
 519 -422 519 -422 405 -422 c 0,10,11
 343 -422 343 -422 173 -346 c 0,12,13
 7 -273 7 -273 7 -249 c 0,14,15
 7 -248 7 -248 8 -248 c 1,16,-1
 160 -305 l 1,17,-1
 204 -309 l 2,18,19
 235 -309 235 -309 264.5 -303 c 128,-1,20
 294 -297 294 -297 322 -283 c 0,21,22
 363 -266 363 -266 470 -190 c 2,23,-1
 542 -131 l 1,24,-1
 605 -68 l 2,25,26
 689 22 689 22 689 75 c 0,27,28
 689 90 689 90 674.5 116.5 c 128,-1,29
 660 143 660 143 631 185 c 0,30,31
 611 215 611 215 593.5 237 c 128,-1,32
 576 259 576 259 558 280 c 1,33,-1
 654 440 l 1,34,-1
 703 363 l 1,35,-1
 753 293 l 2,36,37
 786 243 786 243 831 212 c 0,38,39
 874 184 874 184 913 184 c 2,40,-1
 957 184 l 1,41,-1
 957 0 l 1,42,-1
 869 0 l 2,0,1
EndSplineSet
EndChar

StartChar: zainisolated
Encoding: 65199 65199 134
Width: 831
Flags: W
AnchorPoint: "ArabicBelow" 415 -675 basechar 0
AnchorPoint: "ArabicAbove" 415 1149 basechar 0
LayerCount: 2
Fore
SplineSet
674 -252 m 0,0,1
 570 -425 570 -425 446 -425 c 0,2,3
 379 -425 379 -425 196 -353 c 0,4,5
 18 -284 18 -284 18 -259 c 1,6,-1
 20 -258 l 1,7,-1
 152 -298 l 2,8,9
 227 -318 227 -318 264 -318 c 0,10,11
 367 -318 367 -318 545 -164 c 0,12,13
 722 -11 722 -11 722 91 c 0,14,15
 722 131 722 131 633 223 c 2,16,-1
 524 319 l 1,17,-1
 588 505 l 1,18,19
 646 474 646 474 707 391 c 0,20,21
 793 269 793 269 793 124 c 0,22,23
 793 73 793 73 777 2 c 0,24,25
 763 -65 763 -65 737 -128 c 128,-1,26
 711 -191 711 -191 674 -252 c 0,0,1
613 812 m 1,27,-1
 526 694 l 1,28,-1
 404 781 l 1,29,-1
 489 899 l 1,30,-1
 613 812 l 1,27,-1
EndSplineSet
EndChar

StartChar: zainfinal
Encoding: 65200 65200 135
Width: 947
Flags: W
AnchorPoint: "ArabicBelow" 473 -672 basechar 0
AnchorPoint: "ArabicAbove" 473 1180 basechar 0
LayerCount: 2
Fore
SplineSet
876.023 0 m 2,0,1
 861.023 0 861.023 0 851.023 2 c 128,-1,2
 841.023 4 841.023 4 832.523 8.5 c 128,-1,3
 824.023 13 824.023 13 816.523 21 c 128,-1,4
 809.023 29 809.023 29 799.023 41 c 1,5,-1
 778.023 41 l 1,6,7
 763.023 -92 763.023 -92 651.023 -249 c 0,8,9
 588.023 -337 588.023 -337 528.523 -379.5 c 128,-1,10
 469.023 -422 469.023 -422 412.023 -422 c 0,11,12
 349.023 -422 349.023 -422 180.023 -345 c 0,13,14
 13.0234 -268 13.0234 -268 15.0234 -248 c 1,15,-1
 167.023 -305 l 1,16,17
 182.023 -306 182.023 -306 195.023 -306.5 c 128,-1,18
 208.023 -307 208.023 -307 219.023 -307 c 0,19,20
 236.023 -307 236.023 -307 249.023 -306 c 128,-1,21
 262.023 -305 262.023 -305 271.023 -303 c 0,22,23
 300.023 -297 300.023 -297 330.023 -283 c 0,24,25
 351.023 -274 351.023 -274 388.523 -252 c 128,-1,26
 426.023 -230 426.023 -230 477.023 -190 c 2,27,-1
 511.023 -163 l 1,28,-1
 612.023 -68 l 2,29,30
 696.023 22 696.023 22 696.023 75 c 0,31,32
 696.023 90 696.023 90 681.023 117 c 0,33,34
 674.023 131 674.023 131 645.523 171 c 128,-1,35
 617.023 211 617.023 211 566.023 280 c 1,36,-1
 661.023 440 l 1,37,-1
 710.023 363 l 1,38,-1
 760.023 293 l 2,39,40
 815.023 229 815.023 229 849.023 206 c 0,41,42
 881.023 184 881.023 184 920.023 184 c 2,43,-1
 964.023 184 l 1,44,-1
 964.023 0 l 1,45,-1
 876.023 0 l 2,0,1
703.023 843 m 1,46,-1
 616.023 725 l 1,47,-1
 494.023 812 l 1,48,-1
 579.023 930 l 1,49,-1
 703.023 843 l 1,46,-1
EndSplineSet
EndChar

StartChar: seenisolated
Encoding: 65201 65201 136
Width: 1630
Flags: W
AnchorPoint: "ArabicBelow" 815 -665 basechar 0
AnchorPoint: "ArabicAbove" 815 718 basechar 0
LayerCount: 2
Fore
SplineSet
1258 -2 m 1,0,-1
 1217 39 l 1,1,-1
 1163 -2 l 1,2,-1
 850 -2 l 1,3,-1
 850 -27 l 2,4,5
 850 -46 850 -46 829 -101 c 0,6,7
 806 -161 806 -161 782.5 -202 c 128,-1,8
 759 -243 759 -243 733 -267 c 256,9,10
 707 -291 707 -291 660.5 -315 c 128,-1,11
 614 -339 614 -339 548 -365 c 0,12,13
 416 -415 416 -415 359 -415 c 0,14,15
 193 -415 193 -415 112 -373 c 1,16,-1
 111 -373 l 1,17,18
 7 -320 7 -320 7 -193 c 0,19,20
 7 -59 7 -59 79 127 c 0,21,22
 144 291 144 291 171 291 c 1,23,-1
 114 129 l 1,24,-1
 93 57 l 1,25,-1
 85 -1 l 2,26,27
 85 -108 85 -108 166 -171 c 0,28,29
 203 -200 203 -200 251 -218.5 c 128,-1,30
 299 -237 299 -237 359 -238 c 2,31,-1
 438 -234 l 1,32,-1
 482 -226 l 1,33,-1
 538 -212 l 1,34,-1
 606 -190 l 2,35,36
 752 -143 752 -143 780 -93 c 1,37,-1
 782 -86 l 1,38,39
 782 -68 782 -68 776 -37 c 128,-1,40
 770 -6 770 -6 754 45 c 0,41,42
 737 99 737 99 715 148 c 128,-1,43
 693 197 693 197 664 245 c 1,44,-1
 764 422 l 1,45,-1
 831 287 l 2,46,47
 851 249 851 249 873 224.5 c 128,-1,48
 895 200 895 200 917 182 c 1,49,-1
 1215 182 l 1,50,-1
 1228 194 l 1,51,-1
 1238 325 l 1,52,-1
 1334 427 l 1,53,-1
 1322 381 l 2,54,55
 1298 247 1298 247 1298 213 c 2,56,-1
 1301 191 l 1,57,-1
 1313 182 l 1,58,-1
 1514 182 l 1,59,-1
 1527 194 l 1,60,-1
 1527 211 l 1,61,-1
 1523 248 l 1,62,-1
 1501 333 l 1,63,-1
 1602 468 l 1,64,-1
 1602 274 l 2,65,66
 1603 265 1603 265 1603.5 256 c 128,-1,67
 1604 247 1604 247 1604 238 c 0,68,69
 1604 167 1604 167 1580.5 108.5 c 128,-1,70
 1557 50 1557 50 1530 -2 c 1,71,-1
 1258 -2 l 1,0,-1
EndSplineSet
EndChar

StartChar: seenfinal
Encoding: 65202 65202 137
Width: 1681
Flags: W
AnchorPoint: "ArabicBelow" 840 -663 basechar 0
AnchorPoint: "ArabicAbove" 840 720 basechar 0
LayerCount: 2
Fore
SplineSet
1616 0 m 1,0,-1
 1549 58 l 1,1,-1
 1528 0 l 1,2,-1
 1256 0 l 1,3,-1
 1215 41 l 1,4,-1
 1161 0 l 1,5,-1
 860 0 l 1,6,-1
 848 -12 l 1,7,8
 848 -44 848 -44 827 -99 c 0,9,10
 804 -159 804 -159 780.5 -200 c 128,-1,11
 757 -241 757 -241 731 -265 c 256,12,13
 705 -289 705 -289 658.5 -313 c 128,-1,14
 612 -337 612 -337 546 -363 c 0,15,16
 414 -413 414 -413 357 -413 c 0,17,18
 191 -413 191 -413 110 -371 c 1,19,-1
 109 -371 l 1,20,21
 5 -318 5 -318 5 -191 c 0,22,23
 5 -57 5 -57 77 129 c 0,24,25
 142 293 142 293 169 293 c 1,26,-1
 112 131 l 1,27,-1
 91 59 l 1,28,-1
 83 1 l 2,29,30
 83 -106 83 -106 164 -169 c 0,31,32
 250 -234 250 -234 395 -234 c 2,33,-1
 479 -224 l 1,34,-1
 536 -210 l 2,35,36
 562 -203 562 -203 594.5 -193 c 128,-1,37
 627 -183 627 -183 668 -169 c 0,38,39
 749 -142 749 -142 778 -91 c 1,40,-1
 780 -84 l 1,41,42
 780 -66 780 -66 774 -35 c 128,-1,43
 768 -4 768 -4 752 47 c 0,44,45
 735 101 735 101 713 150 c 128,-1,46
 691 199 691 199 662 247 c 1,47,-1
 762 424 l 1,48,-1
 829 289 l 2,49,50
 849 251 849 251 871 226.5 c 128,-1,51
 893 202 893 202 915 184 c 1,52,-1
 1213 184 l 1,53,-1
 1226 196 l 1,54,-1
 1236 327 l 1,55,-1
 1332 429 l 1,56,-1
 1320 383 l 2,57,58
 1296 249 1296 249 1296 215 c 2,59,-1
 1299 193 l 1,60,-1
 1311 184 l 1,61,-1
 1512 184 l 1,62,-1
 1525 196 l 1,63,-1
 1525 213 l 1,64,-1
 1521 250 l 2,65,66
 1513 310 1513 310 1499 335 c 1,67,-1
 1600 470 l 1,68,-1
 1600 276 l 1,69,-1
 1608 242 l 2,70,71
 1616 215 1616 215 1648 193 c 1,72,-1
 1666 185 l 1,73,-1
 1694 184 l 1,74,-1
 1694 0 l 1,75,-1
 1616 0 l 1,0,-1
EndSplineSet
EndChar

StartChar: seeninitial
Encoding: 65203 65203 138
Width: 1105
Flags: W
AnchorPoint: "ArabicBelow" 552 -252 basechar 0
AnchorPoint: "ArabicAbove" 552 729 basechar 0
LayerCount: 2
Fore
SplineSet
-30 184 m 1,0,-1
 285 184 l 1,1,-1
 296 199 l 1,2,-1
 307 322 l 1,3,-1
 419 437 l 1,4,-1
 405 353 l 1,5,-1
 392 295 l 1,6,-1
 378 184 l 1,7,-1
 653 184 l 1,8,-1
 664 199 l 1,9,-1
 675 322 l 1,10,-1
 787 437 l 1,11,-1
 773 353 l 1,12,-1
 760 295 l 1,13,-1
 746 184 l 1,14,-1
 946 184 l 1,15,-1
 958 199 l 1,16,-1
 931 336 l 1,17,-1
 1052 479 l 1,18,-1
 1052 264 l 2,19,20
 1052 231 1052 231 1049 203 c 0,21,22
 1047 174 1047 174 1034 123 c 1,23,-1
 979 0 l 1,24,-1
 713 0 l 1,25,-1
 657 51 l 1,26,-1
 626 -2 l 1,27,-1
 339 -2 l 1,28,-1
 283 38 l 1,29,-1
 229 0 l 1,30,-1
 -30 0 l 1,31,-1
 -30 184 l 1,0,-1
EndSplineSet
EndChar

StartChar: seenmedial
Encoding: 65204 65204 139
Width: 1130
Flags: W
AnchorPoint: "ArabicBelow" 565 -251 basechar 0
AnchorPoint: "ArabicAbove" 565 730 basechar 0
LayerCount: 2
Fore
SplineSet
-30 185 m 1,0,-1
 285 185 l 1,1,-1
 296 200 l 1,2,-1
 307 323 l 1,3,-1
 419 438 l 1,4,-1
 405 354 l 1,5,-1
 392 296 l 1,6,-1
 378 185 l 1,7,-1
 653 185 l 1,8,-1
 664 200 l 1,9,-1
 675 323 l 1,10,-1
 787 438 l 1,11,-1
 773 354 l 1,12,-1
 760 296 l 1,13,-1
 746 185 l 1,14,-1
 946 185 l 1,15,-1
 948 200 l 1,16,-1
 931 337 l 1,17,-1
 1052 480 l 1,18,-1
 1052 265 l 1,19,-1
 1039 185 l 1,20,-1
 1141 185 l 1,21,-1
 1141 1 l 1,22,-1
 1041 1 l 1,23,-1
 1000 51 l 1,24,-1
 979 1 l 1,25,-1
 713 1 l 1,26,-1
 667 52 l 1,27,-1
 626 -1 l 1,28,-1
 339 -1 l 1,29,-1
 283 39 l 1,30,-1
 229 1 l 1,31,-1
 -30 1 l 1,32,-1
 -30 185 l 1,0,-1
EndSplineSet
EndChar

StartChar: sheenisolated
Encoding: 65205 65205 140
Width: 1630
Flags: W
AnchorPoint: "ArabicBelow" 815 -665 basechar 0
AnchorPoint: "ArabicAbove" 815 1270 basechar 0
LayerCount: 2
Fore
SplineSet
1258 -2 m 1,0,-1
 1217 39 l 1,1,-1
 1163 -2 l 1,2,-1
 862 -2 l 1,3,-1
 850 -14 l 1,4,-1
 850 -27 l 2,5,6
 850 -46 850 -46 829 -101 c 0,7,8
 806 -161 806 -161 782.5 -202 c 128,-1,9
 759 -243 759 -243 733 -267 c 256,10,11
 707 -291 707 -291 660.5 -315 c 128,-1,12
 614 -339 614 -339 548 -365 c 0,13,14
 416 -415 416 -415 359 -415 c 0,15,16
 193 -415 193 -415 112 -373 c 1,17,-1
 111 -373 l 1,18,19
 7 -320 7 -320 7 -193 c 0,20,21
 7 -59 7 -59 79 127 c 0,22,23
 144 291 144 291 171 291 c 1,24,-1
 114 129 l 1,25,-1
 93 57 l 1,26,-1
 85 -1 l 2,27,28
 85 -108 85 -108 166 -171 c 0,29,30
 203 -200 203 -200 251 -218.5 c 128,-1,31
 299 -237 299 -237 359 -238 c 2,32,-1
 438 -234 l 1,33,-1
 482 -226 l 1,34,-1
 538 -212 l 1,35,-1
 606 -190 l 2,36,37
 752 -143 752 -143 780 -93 c 1,38,-1
 782 -86 l 1,39,40
 782 -68 782 -68 776 -37 c 128,-1,41
 770 -6 770 -6 754 45 c 0,42,43
 737 99 737 99 715 148 c 128,-1,44
 693 197 693 197 664 245 c 1,45,-1
 764 422 l 1,46,-1
 831 287 l 2,47,48
 851 249 851 249 873 224.5 c 128,-1,49
 895 200 895 200 917 182 c 1,50,-1
 1215 182 l 1,51,-1
 1228 194 l 1,52,-1
 1238 325 l 1,53,-1
 1334 427 l 1,54,-1
 1322 381 l 2,55,56
 1298 247 1298 247 1298 213 c 2,57,-1
 1301 191 l 1,58,-1
 1313 182 l 1,59,-1
 1514 182 l 1,60,-1
 1527 194 l 1,61,-1
 1527 211 l 1,62,-1
 1523 248 l 1,63,-1
 1501 333 l 1,64,-1
 1602 468 l 1,65,-1
 1602 274 l 2,66,67
 1603 265 1603 265 1603.5 256 c 128,-1,68
 1604 247 1604 247 1604 238 c 0,69,70
 1604 167 1604 167 1580.5 108.5 c 128,-1,71
 1557 50 1557 50 1530 -2 c 1,72,-1
 1258 -2 l 1,0,-1
1298 945 m 1,73,-1
 1223 845 l 1,74,-1
 1119 920 l 1,75,-1
 1192 1020 l 1,76,-1
 1298 945 l 1,73,-1
1234 735 m 1,77,-1
 1147 617 l 1,78,-1
 1025 704 l 1,79,-1
 1110 822 l 1,80,-1
 1234 735 l 1,77,-1
1414 735 m 1,81,-1
 1327 617 l 1,82,-1
 1205 704 l 1,83,-1
 1290 822 l 1,84,-1
 1414 735 l 1,81,-1
EndSplineSet
EndChar

